# Blender 4.4.1
# www.blender.org
mtllib enemy.mtl
o AlienEnemy
v 0.000000 3.035265 -0.000000
v -1.000000 2.035265 0.500000
v 1.000000 2.035265 0.500000
v 1.000000 2.035265 -0.500000
v -1.000000 2.035265 -0.500000
v 0.000000 1.035265 0.000000
v -0.500000 0.035265 0.500000
v 0.500000 0.035265 0.500000
v 0.500000 0.035265 -0.500000
v -0.500000 0.035265 -0.500000
v 0.000000 3.535265 -0.000000
v -0.300000 3.335265 0.300000
v 0.300000 3.335265 0.300000
v 0.300000 3.335265 -0.300000
v -0.300000 3.335265 -0.300000
vn -0.0000 0.4472 0.8944
vn 0.7071 0.7071 -0.0000
vn -0.0000 0.4472 -0.8944
vn -0.7071 0.7071 -0.0000
vn -0.0000 -0.4472 0.8944
vn 0.7071 -0.7071 -0.0000
vn -0.0000 -0.4472 -0.8944
vn -0.7071 -0.7071 -0.0000
vn 0.8944 0.4472 -0.0000
vn -0.8944 0.4472 -0.0000
vn -0.0000 0.8321 0.5547
vn 0.5547 0.8321 -0.0000
vn -0.0000 0.8321 -0.5547
vn -0.5547 0.8321 -0.0000
vt 0.500000 1.000000
vt 0.000000 0.500000
vt 1.000000 0.500000
vt 0.500000 0.000000
s 0
usemtl AlienMat
f 1/1/1 2/2/1 3/3/1
f 1/1/2 3/3/2 4/4/2
f 1/1/3 4/4/3 5/2/3
f 1/1/4 5/2/4 2/3/4
f 2/1/5 6/2/5 3/3/5
f 3/1/6 6/2/6 4/3/6
f 4/1/7 6/2/7 5/3/7
f 5/1/8 6/2/8 2/3/8
f 6/1/1 7/2/1 8/3/1
f 6/1/9 8/2/9 9/3/9
f 6/1/3 9/2/3 10/3/3
f 6/1/10 10/2/10 7/3/10
f 11/1/11 12/2/11 13/3/11
f 11/1/12 13/2/12 14/3/12
f 11/1/13 14/2/13 15/3/13
f 11/1/14 15/2/14 12/3/14
