# Blender 4.4.1
# www.blender.org
mtllib block.mtl
o space_rock
v -0.243870 0.394589 -0.000000
v 0.244193 0.395113 -0.000000
v -0.248436 -0.401977 0.000000
v 0.242657 -0.392627 0.000000
v 0.000000 -0.298867 0.483577
v 0.000000 0.278864 0.451211
v 0.000000 -0.284653 -0.460578
v 0.000000 0.297227 -0.480923
v 0.484379 -0.000000 -0.299363
v 0.462721 0.000000 0.285977
v -0.470440 -0.000000 -0.290748
v -0.468634 0.000000 0.289631
v -0.377381 0.233235 0.144147
v -0.274696 0.169772 0.444468
v -0.151771 0.397341 0.245570
v 0.160305 0.419684 0.259379
v 0.000000 0.469600 -0.000000
v 0.155623 0.407427 -0.251804
v -0.191973 0.502594 -0.310620
v -0.243015 0.150191 -0.393206
v -0.397307 0.245549 -0.151758
v -0.580520 0.000000 0.000000
v 0.252343 0.155956 0.408299
v 0.415088 0.256538 0.158550
v -0.281624 -0.174053 0.455677
v 0.000000 0.000000 0.438622
v -0.459785 -0.284163 -0.175622
v -0.391465 -0.241939 0.149527
v 0.000000 -0.000000 -0.463940
v -0.275586 -0.170322 -0.445908
v 0.467707 0.289059 -0.178648
v 0.259281 0.160245 -0.419525
v 0.464683 -0.287190 0.177493
v 0.262586 -0.162287 0.424873
v 0.152396 -0.398977 0.246581
v -0.165363 -0.432927 0.267564
v 0.000000 -0.415995 0.000000
v -0.149219 -0.390660 -0.241441
v 0.162291 -0.424885 -0.262593
v 0.268600 -0.166004 -0.434604
v 0.408196 -0.252279 -0.155917
v 0.561365 0.000000 0.000000
v -0.302635 0.306241 0.070065
v -0.299171 0.350276 0.216483
v -0.212485 0.422467 0.127275
v -0.468745 0.141217 0.235761
v -0.356050 0.081461 0.351858
v -0.301134 0.186111 0.257199
v -0.196978 0.272218 0.318718
v -0.130873 0.218492 0.434412
v -0.086400 0.373189 0.377635
v -0.099567 0.582877 0.161103
v -0.186337 0.655933 -0.000000
v 0.088887 0.383931 0.388505
v 0.000000 0.432027 0.267007
v 0.081305 0.475965 0.131553
v 0.203010 0.403631 0.121600
v 0.116210 0.409078 -0.000000
v -0.083013 0.485965 -0.134317
v -0.239958 0.477092 -0.143731
v 0.210066 0.417658 -0.125826
v 0.099483 0.582383 -0.160966
v 0.000000 0.384144 -0.237414
v 0.090340 0.390208 -0.394857
v -0.090820 0.392283 -0.396957
v -0.322104 0.377126 -0.233077
v -0.283984 0.287368 -0.065747
v -0.130182 0.217339 -0.432119
v -0.192536 0.266077 -0.311529
v -0.332628 0.205576 -0.284099
v -0.401415 0.091840 -0.396689
v -0.435411 0.131174 -0.218995
v -0.415811 0.256985 -0.000000
v -0.524138 -0.000000 -0.148897
v -0.541104 0.149557 -0.092432
v -0.514378 0.142171 0.087866
v -0.388195 0.000000 0.110278
v 0.314158 0.367823 0.227327
v 0.319719 0.323529 0.074021
v 0.130853 0.218458 0.434344
v 0.173910 0.240338 0.281392
v 0.331809 0.205069 0.283398
v 0.409025 0.093581 0.404210
v 0.438008 0.131956 0.220301
v -0.136685 0.084476 0.494530
v 0.000000 0.148785 0.523747
v -0.404885 -0.092634 0.400118
v -0.262098 0.000000 0.424084
v -0.145798 -0.090108 0.527502
v -0.134846 -0.225125 0.447598
v 0.000000 -0.137465 0.483898
v -0.565685 -0.156351 0.096630
v -0.433511 -0.130602 0.218039
v -0.474734 -0.143021 -0.238773
v -0.511922 -0.141491 -0.087447
v -0.529409 -0.327193 0.000000
v -0.289746 -0.293199 -0.067081
v -0.330346 -0.334281 0.076481
v -0.260766 -0.000000 -0.421929
v -0.343828 -0.078665 -0.339779
v 0.000000 0.140818 -0.495700
v -0.145086 0.089668 -0.524926
v -0.137080 -0.084720 -0.495958
v 0.000000 -0.153757 -0.541249
v -0.129480 -0.216166 -0.429787
v 0.186775 0.258117 -0.302209
v 0.131324 0.219245 -0.435908
v 0.316158 0.319925 -0.073196
v 0.295655 0.346158 -0.213938
v 0.277459 0.171479 -0.236978
v 0.458533 0.138140 -0.230624
v 0.359837 0.082328 -0.355600
v 0.315751 -0.319513 0.073102
v 0.327668 -0.383640 0.237103
v 0.206284 -0.410140 0.123561
v 0.470922 -0.141872 0.236855
v 0.336351 -0.076954 0.332390
v 0.284284 -0.175697 0.242807
v 0.190702 -0.263544 0.308563
v 0.130860 -0.218471 0.434370
v 0.090884 -0.392557 0.397234
v 0.099847 -0.584515 0.161556
v 0.188601 -0.663904 0.000000
v -0.091979 -0.397286 0.402019
v 0.000000 -0.381490 0.235774
v -0.081454 -0.476842 0.131796
v -0.238754 -0.474697 0.143010
v -0.121282 -0.426929 0.000000
v 0.083682 -0.489885 -0.135401
v 0.205152 -0.407888 -0.122883
v -0.192317 -0.382371 -0.115195
v -0.100408 -0.587800 -0.162464
v 0.000000 -0.443474 -0.274082
v -0.089726 -0.387555 -0.392172
v 0.089708 -0.387480 -0.392096
v 0.298482 -0.349469 -0.215984
v 0.308589 -0.312266 -0.071444
v 0.133671 -0.223164 -0.443699
v 0.189288 -0.261589 -0.306273
v 0.324672 -0.200658 -0.277303
v 0.398308 -0.091129 -0.393618
v 0.439789 -0.132493 -0.221197
v 0.431556 -0.266717 0.000000
v 0.383333 -0.000000 -0.108897
v 0.567207 -0.156772 -0.096890
v 0.518575 -0.143331 0.088583
v 0.541901 0.000000 0.153943
v 0.136268 -0.084218 0.493022
v 0.251285 0.000000 0.406588
v 0.148509 0.091784 0.537312
v -0.303564 -0.355420 0.219662
v -0.167637 -0.231669 0.271243
v -0.337127 -0.208356 0.287941
v -0.183995 -0.254274 -0.297709
v -0.329797 -0.386133 -0.238643
v -0.294676 -0.182120 -0.251684
v 0.261863 -0.000000 -0.423704
v 0.149273 -0.092256 -0.540076
v 0.139094 0.085965 -0.503248
v 0.538274 0.148775 0.091948
v 0.497092 0.137393 -0.084914
v 0.525580 0.324826 -0.000000
vn -0.9479 0.3046 0.0930
vn -0.6966 0.7143 -0.0676
vn -0.8040 0.5033 0.3168
vn -0.6381 0.7016 0.3173
vn -0.6919 0.5727 0.4397
vn -0.4695 0.6451 0.6028
vn -0.8409 0.3548 0.4086
vn -0.6283 0.5856 0.5121
vn -0.9887 0.0121 0.1491
vn -0.6046 0.3996 0.6890
vn -0.5907 0.4499 0.6698
vn -0.5872 0.5773 0.5673
vn -0.3835 0.6807 0.6242
vn -0.3480 0.5053 0.7897
vn -0.0228 0.4610 0.8871
vn -0.3738 0.9236 -0.0853
vn 0.0341 0.8757 0.4816
vn 0.4628 0.8865 -0.0022
vn 0.0424 0.8462 0.5311
vn 0.4420 0.6208 0.6475
vn 0.4396 0.7500 0.4942
vn 0.4466 0.8940 0.0360
vn 0.4434 0.8663 0.2299
vn 0.4302 0.8999 -0.0710
vn 0.4635 0.8854 0.0364
vn -0.7480 0.6605 -0.0645
vn 0.1162 0.9118 -0.3939
vn -0.1770 0.7808 -0.5991
vn 0.1978 0.9649 -0.1726
vn 0.6549 0.7550 0.0331
vn 0.4187 0.6677 -0.6155
vn 0.1146 0.8663 -0.4862
vn -0.2679 0.6825 -0.6801
vn 0.4222 0.7640 -0.4880
vn -0.0068 0.3226 -0.9465
vn -0.7415 0.6522 0.1578
vn -0.8244 0.4407 -0.3551
vn -0.6905 0.6865 -0.2278
vn -0.5732 0.2638 -0.7758
vn -0.5017 0.4113 -0.7610
vn -0.4501 0.5128 -0.7311
vn -0.5668 0.5430 -0.6196
vn -0.7701 0.4589 -0.4431
vn -0.5945 0.2462 -0.7655
vn -0.8296 -0.0109 -0.5582
vn -0.5408 0.8396 0.0514
vn -0.8405 0.4885 -0.2343
vn -0.9198 0.0129 -0.3923
vn -0.9619 0.0323 0.2715
vn -0.8632 0.2934 0.4109
vn -0.9016 0.0339 0.4312
vn 0.4019 0.9142 0.0526
vn 0.5243 0.6652 0.5316
vn 0.6390 0.5676 0.5192
vn 0.5403 0.4787 0.6920
vn 0.4899 0.5678 0.6615
vn 0.4391 0.5722 0.6926
vn 0.4639 0.6265 0.6263
vn 0.7709 0.4332 0.4669
vn 0.6114 0.1758 0.7715
vn 0.8000 -0.0604 0.5970
vn -0.0821 0.1591 0.9838
vn -0.1647 0.0836 0.9828
vn -0.0154 -0.0979 0.9951
vn -0.4894 0.1203 0.8637
vn -0.7186 -0.1718 0.6738
vn -0.4312 -0.6015 0.6725
vn -0.0824 -0.0137 0.9965
vn 0.0888 -0.0538 0.9946
vn -0.4475 -0.5322 0.7187
vn 0.0477 -0.2865 0.9569
vn -0.9060 -0.2463 0.3442
vn -0.8713 -0.0392 0.4892
vn -0.5922 -0.5789 0.5605
vn -0.9398 -0.1624 -0.3006
vn -0.6784 -0.3689 -0.6354
vn -0.5996 -0.6273 -0.4970
vn -0.5888 -0.8070 0.0455
vn -0.5804 -0.8143 0.0093
vn -0.3036 -0.9528 -0.0048
vn -0.5481 -0.7481 -0.3740
vn -0.5904 -0.4064 -0.6973
vn -0.5280 0.0245 -0.8489
vn -0.6086 -0.4975 -0.6182
vn -0.2689 0.1413 -0.9528
vn 0.0338 0.1454 -0.9888
vn -0.0400 0.1045 -0.9937
vn -0.2390 -0.0941 -0.9665
vn -0.4464 -0.5066 -0.7376
vn -0.1108 -0.1949 -0.9745
vn -0.0414 -0.4578 -0.8881
vn 0.4752 0.4214 -0.7724
vn 0.7081 0.4475 -0.5462
vn 0.6221 0.5238 -0.5820
vn 0.5181 0.5922 -0.6172
vn 0.3264 0.9444 -0.0405
vn 0.5633 0.5502 -0.6164
vn 0.4548 0.5202 -0.7228
vn 0.5220 0.5060 -0.6866
vn 0.8350 0.2285 -0.5005
vn 0.9900 0.0342 -0.1372
vn 0.9077 -0.4193 -0.0193
vn 0.4918 -0.8499 -0.1889
vn 0.7693 -0.5767 0.2749
vn 0.6870 -0.6094 0.3958
vn 0.5022 -0.6385 0.5832
vn 0.3258 -0.7259 0.6057
vn 0.6196 -0.3732 0.6906
vn 0.4977 -0.3778 0.7808
vn 0.5308 -0.4575 0.7134
vn 0.6698 -0.4238 0.6098
vn 0.6365 -0.4506 0.6260
vn 0.4249 -0.7769 0.4646
vn 0.4459 -0.3806 0.8102
vn 0.3518 -0.9171 -0.1874
vn -0.1317 -0.8613 0.4907
vn -0.4418 -0.8971 0.0087
vn -0.0216 -0.8856 0.4639
vn -0.4775 -0.7314 0.4870
vn -0.2808 -0.7016 0.6550
vn -0.1415 -0.9863 0.0846
vn -0.2765 -0.9606 0.0286
vn -0.4557 -0.8899 -0.0188
vn 0.7086 -0.6300 -0.3178
vn 0.1469 -0.9406 -0.3062
vn 0.4861 -0.7549 -0.4402
vn -0.3031 -0.9529 0.0032
vn -0.6567 -0.7527 0.0472
vn -0.5130 -0.6630 -0.5453
vn 0.0151 -0.8521 -0.5231
vn 0.4059 -0.6379 -0.6545
vn -0.4845 -0.6407 -0.5956
vn 0.5819 -0.8132 -0.0109
vn 0.6180 -0.6544 -0.4358
vn 0.6105 -0.6993 -0.3717
vn 0.5949 -0.5315 -0.6030
vn 0.4240 -0.5652 -0.7077
vn 0.5116 -0.5300 -0.6763
vn 0.5592 -0.6366 -0.5311
vn 0.8869 -0.2529 -0.3866
vn 0.6374 -0.2708 -0.7214
vn 0.5921 -0.8019 -0.0801
vn 0.9068 -0.1621 -0.3892
vn 0.9322 0.0973 -0.3485
vn 0.9409 0.0789 -0.3294
vn 0.9225 -0.3464 0.1702
vn 0.9254 0.0205 0.3784
vn 0.1727 -0.1485 0.9737
vn 0.5407 -0.0949 0.8359
vn 0.2758 0.0298 0.9607
vn -0.6105 -0.4709 0.6368
vn -0.5713 -0.5598 0.6002
vn -0.5122 -0.7091 0.4846
vn -0.5731 -0.5274 -0.6273
vn -0.4698 -0.7385 -0.4837
vn -0.4951 -0.4363 -0.7514
vn 0.5279 0.1190 -0.8409
vn 0.2615 -0.0306 -0.9647
vn 0.2094 0.1942 -0.9583
vn 0.9334 0.2495 0.2578
vn 0.9202 -0.1076 -0.3764
vn 0.6740 0.7356 0.0676
vt 0.500000 0.176208
vt 0.463791 0.252270
vt 0.414109 0.168791
vt 0.441930 0.333333
vt 0.400306 0.258405
vt 0.338104 0.200000
vt 0.425832 0.416313
vt 0.387498 0.360160
vt 0.411896 0.500000
vt 0.375942 0.448650
vt 0.338104 0.400000
vt 0.338104 0.300000
vt 0.285797 0.255944
vt 0.296571 0.357141
vt 0.250000 0.323792
vt 0.500000 0.088104
vt 0.338104 0.100000
vt 0.000000 0.000015
vt 0.250000 0.176208
vt 0.214203 0.255944
vt 0.161896 0.200000
vt 0.161896 0.100000
vt 0.000000 0.088104
vt 0.085891 0.168791
vt 0.000000 0.176208
vt 0.585891 0.168791
vt 0.661896 0.100000
vt 0.661896 0.200000
vt 0.838104 0.100000
vt 0.914109 0.168791
vt 0.838104 0.200000
vt 0.750000 0.176208
vt 0.714203 0.255944
vt 0.785797 0.255944
vt 0.750000 0.323792
vt 0.536209 0.252270
vt 0.599694 0.258405
vt 0.558070 0.333333
vt 0.661896 0.300000
vt 0.703429 0.357141
vt 0.661896 0.400000
vt 0.612502 0.360160
vt 0.574168 0.416313
vt 0.624058 0.448650
vt 0.588104 0.500000
vt 0.500000 0.323792
vt 0.526927 0.415332
vt 0.544052 0.500000
vt 0.500000 0.500000
vt 0.473073 0.415332
vt 0.455948 0.500000
vt 0.036209 0.252270
vt 0.099694 0.258405
vt 0.058070 0.333333
vt 0.161896 0.300000
vt 0.203429 0.357141
vt 0.161896 0.400000
vt 0.112502 0.360160
vt 0.074168 0.416313
vt 0.124058 0.448650
vt 0.088104 0.500000
vt 0.250000 0.411896
vt 0.292918 0.448057
vt 0.250000 0.500000
vt 0.338104 0.500000
vt 0.375942 0.551350
vt 0.338104 0.600000
vt 0.292918 0.551943
vt 0.250000 0.588104
vt 0.296571 0.642859
vt 0.250000 0.676208
vt 0.425832 0.583687
vt 0.473073 0.584668
vt 0.441930 0.666667
vt 0.526927 0.584668
vt 0.574168 0.583687
vt 0.558070 0.666667
vt 0.500000 0.676208
vt 0.463791 0.747730
vt 0.536209 0.747730
vt 0.500000 0.823792
vt 0.624058 0.551350
vt 0.661896 0.500000
vt 0.661896 0.600000
vt 0.707082 0.448057
vt 0.750000 0.411896
vt 0.750000 0.500000
vt 0.707082 0.551943
vt 0.703429 0.642859
vt 0.750000 0.588104
vt 0.750000 0.676208
vt 0.796571 0.357141
vt 0.838104 0.300000
vt 0.838104 0.400000
vt 0.900306 0.258405
vt 0.963791 0.252270
vt 0.941930 0.333333
vt 0.887498 0.360160
vt 0.875942 0.448650
vt 0.925832 0.416313
vt 0.911896 0.500000
vt 0.000000 0.823792
vt 0.036209 0.747730
vt 0.085891 0.831209
vt 0.058070 0.666667
vt 0.099694 0.741595
vt 0.161896 0.800000
vt 0.074168 0.583687
vt 0.112502 0.639840
vt 0.124058 0.551350
vt 0.161896 0.600000
vt 0.161896 0.700000
vt 0.214203 0.744056
vt 0.203429 0.642859
vt 0.000000 0.911896
vt 0.161896 0.900000
vt 0.000000 0.999984
vt 0.250000 0.823792
vt 0.285797 0.744056
vt 0.338104 0.800000
vt 0.338104 0.900000
vt 0.500000 0.911896
vt 0.414109 0.831209
vt 0.914109 0.831209
vt 0.838104 0.900000
vt 0.838104 0.800000
vt 0.661896 0.900000
vt 0.585891 0.831209
vt 0.661896 0.800000
vt 0.750000 0.823792
vt 0.785797 0.744056
vt 0.714203 0.744056
vt 0.963791 0.747730
vt 0.900306 0.741595
vt 0.941930 0.666667
vt 0.838104 0.700000
vt 0.796571 0.642859
vt 0.838104 0.600000
vt 0.887498 0.639840
vt 0.925832 0.583687
vt 0.875942 0.551350
vt 0.000000 0.676208
vt 0.973073 0.584668
vt 0.955948 0.500000
vt 0.000000 0.500000
vt 0.026927 0.584668
vt 0.044052 0.500000
vt 0.207082 0.551943
vt 0.161896 0.500000
vt 0.207082 0.448057
vt 0.400306 0.741595
vt 0.338104 0.700000
vt 0.387498 0.639840
vt 0.661896 0.700000
vt 0.599694 0.741595
vt 0.612502 0.639840
vt 0.838104 0.500000
vt 0.792918 0.551943
vt 0.792918 0.448057
vt 0.026927 0.415332
vt 0.973073 0.415332
vt 0.000000 0.323792
s 1
usemtl Rock
f 1/1/1 43/2/2 45/3/3
f 43/2/2 13/4/4 44/5/5
f 45/3/3 44/5/5 15/6/6
f 43/2/2 44/5/5 45/3/3
f 13/4/4 46/7/7 48/8/8
f 46/7/7 12/9/9 47/10/10
f 48/8/8 47/10/10 14/11/11
f 46/7/7 47/10/10 48/8/8
f 15/6/6 49/12/12 51/13/13
f 49/12/12 14/11/11 50/14/14
f 51/13/13 50/14/14 6/15/15
f 49/12/12 50/14/14 51/13/13
f 13/4/4 48/8/8 44/5/5
f 48/8/8 14/11/11 49/12/12
f 44/5/5 49/12/12 15/6/6
f 48/8/8 49/12/12 44/5/5
f 1/1/1 45/3/3 53/16/16
f 45/3/3 15/6/6 52/17/17
f 53/16/16 52/17/17 17/18/18
f 45/3/3 52/17/17 53/16/16
f 15/6/6 51/13/13 55/19/19
f 51/13/13 6/15/15 54/20/20
f 55/19/19 54/20/20 16/21/21
f 51/13/13 54/20/20 55/19/19
f 17/18/18 56/22/22 58/23/23
f 56/22/22 16/21/21 57/24/24
f 58/23/23 57/24/24 2/25/25
f 56/22/22 57/24/24 58/23/23
f 15/6/6 55/19/19 52/17/17
f 55/19/19 16/21/21 56/22/22
f 52/17/17 56/22/22 17/18/18
f 55/19/19 56/22/22 52/17/17
f 1/1/1 53/16/16 60/26/26
f 53/16/16 17/18/18 59/27/27
f 60/26/26 59/27/27 19/28/28
f 53/16/16 59/27/27 60/26/26
f 17/18/18 58/23/23 62/29/29
f 58/23/23 2/25/25 61/30/30
f 62/29/29 61/30/30 18/31/31
f 58/23/23 61/30/30 62/29/29
f 19/28/28 63/32/32 65/33/33
f 63/32/32 18/31/31 64/34/34
f 65/33/33 64/34/34 8/35/35
f 63/32/32 64/34/34 65/33/33
f 17/18/18 62/29/29 59/27/27
f 62/29/29 18/31/31 63/32/32
f 59/27/27 63/32/32 19/28/28
f 62/29/29 63/32/32 59/27/27
f 1/1/1 60/26/26 67/36/36
f 60/26/26 19/28/28 66/37/37
f 67/36/36 66/37/37 21/38/38
f 60/26/26 66/37/37 67/36/36
f 19/28/28 65/33/33 69/39/39
f 65/33/33 8/35/35 68/40/40
f 69/39/39 68/40/40 20/41/41
f 65/33/33 68/40/40 69/39/39
f 21/38/38 70/42/42 72/43/43
f 70/42/42 20/41/41 71/44/44
f 72/43/43 71/44/44 11/45/45
f 70/42/42 71/44/44 72/43/43
f 19/28/28 69/39/39 66/37/37
f 69/39/39 20/41/41 70/42/42
f 66/37/37 70/42/42 21/38/38
f 69/39/39 70/42/42 66/37/37
f 1/1/1 67/36/36 43/2/2
f 67/36/36 21/38/38 73/46/46
f 43/2/2 73/46/46 13/4/4
f 67/36/36 73/46/46 43/2/2
f 21/38/38 72/43/43 75/47/47
f 72/43/43 11/45/45 74/48/48
f 75/47/47 74/48/48 22/49/49
f 72/43/43 74/48/48 75/47/47
f 13/4/4 76/50/50 46/7/7
f 76/50/50 22/49/49 77/51/51
f 46/7/7 77/51/51 12/9/9
f 76/50/50 77/51/51 46/7/7
f 21/38/38 75/47/47 73/46/46
f 75/47/47 22/49/49 76/50/50
f 73/46/46 76/50/50 13/4/4
f 75/47/47 76/50/50 73/46/46
f 2/25/25 57/24/24 79/52/52
f 57/24/24 16/21/21 78/53/53
f 79/52/52 78/53/53 24/54/54
f 57/24/24 78/53/53 79/52/52
f 16/21/21 54/20/20 81/55/55
f 54/20/20 6/15/15 80/56/56
f 81/55/55 80/56/56 23/57/57
f 54/20/20 80/56/56 81/55/55
f 24/54/54 82/58/58 84/59/59
f 82/58/58 23/57/57 83/60/60
f 84/59/59 83/60/60 10/61/61
f 82/58/58 83/60/60 84/59/59
f 16/21/21 81/55/55 78/53/53
f 81/55/55 23/57/57 82/58/58
f 78/53/53 82/58/58 24/54/54
f 81/55/55 82/58/58 78/53/53
f 6/15/15 50/14/14 86/62/62
f 50/14/14 14/11/11 85/63/63
f 86/62/62 85/63/63 26/64/64
f 50/14/14 85/63/63 86/62/62
f 14/11/11 47/10/10 88/65/65
f 47/10/10 12/9/9 87/66/66
f 88/65/65 87/66/66 25/67/67
f 47/10/10 87/66/66 88/65/65
f 26/64/64 89/68/68 91/69/69
f 89/68/68 25/67/67 90/70/70
f 91/69/69 90/70/70 5/71/71
f 89/68/68 90/70/70 91/69/69
f 14/11/11 88/65/65 85/63/63
f 88/65/65 25/67/67 89/68/68
f 85/63/63 89/68/68 26/64/64
f 88/65/65 89/68/68 85/63/63
f 12/9/9 77/51/51 93/72/72
f 77/51/51 22/49/49 92/73/73
f 93/72/72 92/73/73 28/74/74
f 77/51/51 92/73/73 93/72/72
f 22/49/49 74/48/48 95/75/75
f 74/48/48 11/45/45 94/76/76
f 95/75/75 94/76/76 27/77/77
f 74/48/48 94/76/76 95/75/75
f 28/74/74 96/78/78 98/79/79
f 96/78/78 27/77/77 97/80/80
f 98/79/79 97/80/80 3/81/81
f 96/78/78 97/80/80 98/79/79
f 22/49/49 95/75/75 92/73/73
f 95/75/75 27/77/77 96/78/78
f 92/73/73 96/78/78 28/74/74
f 95/75/75 96/78/78 92/73/73
f 11/45/45 71/44/44 100/82/82
f 71/44/44 20/41/41 99/83/83
f 100/82/82 99/83/83 30/84/84
f 71/44/44 99/83/83 100/82/82
f 20/41/41 68/40/40 102/85/85
f 68/40/40 8/35/35 101/86/86
f 102/85/85 101/86/86 29/87/87
f 68/40/40 101/86/86 102/85/85
f 30/84/84 103/88/88 105/89/89
f 103/88/88 29/87/87 104/90/90
f 105/89/89 104/90/90 7/91/91
f 103/88/88 104/90/90 105/89/89
f 20/41/41 102/85/85 99/83/83
f 102/85/85 29/87/87 103/88/88
f 99/83/83 103/88/88 30/84/84
f 102/85/85 103/88/88 99/83/83
f 8/35/35 64/34/34 107/92/92
f 64/34/34 18/31/31 106/93/93
f 107/92/92 106/93/93 32/94/94
f 64/34/34 106/93/93 107/92/92
f 18/31/31 61/30/30 109/95/95
f 61/30/30 2/25/25 108/96/96
f 109/95/95 108/96/96 31/97/97
f 61/30/30 108/96/96 109/95/95
f 32/94/94 110/98/98 112/99/99
f 110/98/98 31/97/97 111/100/100
f 112/99/99 111/100/100 9/101/101
f 110/98/98 111/100/100 112/99/99
f 18/31/31 109/95/95 106/93/93
f 109/95/95 31/97/97 110/98/98
f 106/93/93 110/98/98 32/94/94
f 109/95/95 110/98/98 106/93/93
f 4/102/102 113/103/103 115/104/104
f 113/103/103 33/105/105 114/106/106
f 115/104/104 114/106/106 35/107/107
f 113/103/103 114/106/106 115/104/104
f 33/105/105 116/108/108 118/109/109
f 116/108/108 10/61/61 117/110/110
f 118/109/109 117/110/110 34/111/111
f 116/108/108 117/110/110 118/109/109
f 35/107/107 119/112/112 121/113/113
f 119/112/112 34/111/111 120/114/114
f 121/113/113 120/114/114 5/71/71
f 119/112/112 120/114/114 121/113/113
f 33/105/105 118/109/109 114/106/106
f 118/109/109 34/111/111 119/112/112
f 114/106/106 119/112/112 35/107/107
f 118/109/109 119/112/112 114/106/106
f 4/102/102 115/104/104 123/115/115
f 115/104/104 35/107/107 122/116/116
f 123/115/115 122/116/116 37/117/117
f 115/104/104 122/116/116 123/115/115
f 35/107/107 121/113/113 125/118/118
f 121/113/113 5/71/71 124/119/119
f 125/118/118 124/119/119 36/120/120
f 121/113/113 124/119/119 125/118/118
f 37/117/117 126/121/121 128/122/122
f 126/121/121 36/120/120 127/123/123
f 128/122/122 127/123/123 3/81/81
f 126/121/121 127/123/123 128/122/122
f 35/107/107 125/118/118 122/116/116
f 125/118/118 36/120/120 126/121/121
f 122/116/116 126/121/121 37/117/117
f 125/118/118 126/121/121 122/116/116
f 4/102/102 123/115/115 130/124/124
f 123/115/115 37/117/117 129/125/125
f 130/124/124 129/125/125 39/126/126
f 123/115/115 129/125/125 130/124/124
f 37/117/117 128/122/122 132/127/127
f 128/122/122 3/81/81 131/128/128
f 132/127/127 131/128/128 38/129/129
f 128/122/122 131/128/128 132/127/127
f 39/126/126 133/130/130 135/131/131
f 133/130/130 38/129/129 134/132/132
f 135/131/131 134/132/132 7/91/91
f 133/130/130 134/132/132 135/131/131
f 37/117/117 132/127/127 129/125/125
f 132/127/127 38/129/129 133/130/130
f 129/125/125 133/130/130 39/126/126
f 132/127/127 133/130/130 129/125/125
f 4/102/102 130/124/124 137/133/133
f 130/124/124 39/126/126 136/134/134
f 137/133/133 136/134/134 41/135/135
f 130/124/124 136/134/134 137/133/133
f 39/126/126 135/131/131 139/136/136
f 135/131/131 7/91/91 138/137/137
f 139/136/136 138/137/137 40/138/138
f 135/131/131 138/137/137 139/136/136
f 41/135/135 140/139/139 142/140/140
f 140/139/139 40/138/138 141/141/141
f 142/140/140 141/141/141 9/101/101
f 140/139/139 141/141/141 142/140/140
f 39/126/126 139/136/136 136/134/134
f 139/136/136 40/138/138 140/139/139
f 136/134/134 140/139/139 41/135/135
f 139/136/136 140/139/139 136/134/134
f 4/102/102 137/133/133 113/103/103
f 137/133/133 41/135/135 143/142/142
f 113/103/103 143/142/142 33/105/105
f 137/133/133 143/142/142 113/103/103
f 41/135/135 142/140/140 145/143/143
f 142/140/140 9/101/101 144/144/144
f 145/143/143 144/144/144 42/145/145
f 142/140/140 144/144/144 145/143/143
f 33/105/105 146/146/146 116/108/108
f 146/146/146 42/145/145 147/147/147
f 116/108/108 147/147/147 10/61/61
f 146/146/146 147/147/147 116/108/108
f 41/135/135 145/143/143 143/142/142
f 145/143/143 42/145/145 146/146/146
f 143/142/142 146/146/146 33/105/105
f 145/143/143 146/146/146 143/142/142
f 5/71/71 120/114/114 91/69/69
f 120/114/114 34/111/111 148/148/148
f 91/69/69 148/148/148 26/64/64
f 120/114/114 148/148/148 91/69/69
f 34/111/111 117/110/110 149/149/149
f 117/110/110 10/61/61 83/60/60
f 149/149/149 83/60/60 23/57/57
f 117/110/110 83/60/60 149/149/149
f 26/64/64 150/150/150 86/62/62
f 150/150/150 23/57/57 80/56/56
f 86/62/62 80/56/56 6/15/15
f 150/150/150 80/56/56 86/62/62
f 34/111/111 149/149/149 148/148/148
f 149/149/149 23/57/57 150/150/150
f 148/148/148 150/150/150 26/64/64
f 149/149/149 150/150/150 148/148/148
f 3/81/81 127/123/123 98/79/79
f 127/123/123 36/120/120 151/151/151
f 98/79/79 151/151/151 28/74/74
f 127/123/123 151/151/151 98/79/79
f 36/120/120 124/119/119 152/152/152
f 124/119/119 5/71/71 90/70/70
f 152/152/152 90/70/70 25/67/67
f 124/119/119 90/70/70 152/152/152
f 28/74/74 153/153/153 93/72/72
f 153/153/153 25/67/67 87/66/66
f 93/72/72 87/66/66 12/9/9
f 153/153/153 87/66/66 93/72/72
f 36/120/120 152/152/152 151/151/151
f 152/152/152 25/67/67 153/153/153
f 151/151/151 153/153/153 28/74/74
f 152/152/152 153/153/153 151/151/151
f 7/91/91 134/132/132 105/89/89
f 134/132/132 38/129/129 154/154/154
f 105/89/89 154/154/154 30/84/84
f 134/132/132 154/154/154 105/89/89
f 38/129/129 131/128/128 155/155/155
f 131/128/128 3/81/81 97/80/80
f 155/155/155 97/80/80 27/77/77
f 131/128/128 97/80/80 155/155/155
f 30/84/84 156/156/156 100/82/82
f 156/156/156 27/77/77 94/76/76
f 100/82/82 94/76/76 11/45/45
f 156/156/156 94/76/76 100/82/82
f 38/129/129 155/155/155 154/154/154
f 155/155/155 27/77/77 156/156/156
f 154/154/154 156/156/156 30/84/84
f 155/155/155 156/156/156 154/154/154
f 9/101/101 141/141/141 112/99/99
f 141/141/141 40/138/138 157/157/157
f 112/99/99 157/157/157 32/94/94
f 141/141/141 157/157/157 112/99/99
f 40/138/138 138/137/137 158/158/158
f 138/137/137 7/91/91 104/90/90
f 158/158/158 104/90/90 29/87/87
f 138/137/137 104/90/90 158/158/158
f 32/94/94 159/159/159 107/92/92
f 159/159/159 29/87/87 101/86/86
f 107/92/92 101/86/86 8/35/35
f 159/159/159 101/86/86 107/92/92
f 40/138/138 158/158/158 157/157/157
f 158/158/158 29/87/87 159/159/159
f 157/157/157 159/159/159 32/94/94
f 158/158/158 159/159/159 157/157/157
f 10/61/61 147/147/147 84/59/59
f 147/147/147 42/145/145 160/160/160
f 84/59/59 160/160/160 24/54/54
f 147/147/147 160/160/160 84/59/59
f 42/145/145 144/144/144 161/161/161
f 144/144/144 9/101/101 111/100/100
f 161/161/161 111/100/100 31/97/97
f 144/144/144 111/100/100 161/161/161
f 24/54/54 162/162/162 79/52/52
f 162/162/162 31/97/97 108/96/96
f 79/52/52 108/96/96 2/25/25
f 162/162/162 108/96/96 79/52/52
f 42/145/145 161/161/161 160/160/160
f 161/161/161 31/97/97 162/162/162
f 160/160/160 162/162/162 24/54/54
f 161/161/161 162/162/162 160/160/160
