# Blender 4.4.1
# www.blender.org
mtllib setumei2.mtl
o テキスト.004
v -14.390112 0.604608 0.082180
v -14.040751 0.604608 0.081160
v -14.040783 -1.157866 0.070173
v -14.390144 -1.157866 0.071193
v -14.390121 0.106091 0.079072
v -14.430481 0.149867 0.079463
v -14.469299 0.189050 0.079820
v -14.506838 0.223790 0.080147
v -14.543354 0.254236 0.080443
v -14.579103 0.280539 0.080711
v -14.614353 0.302848 0.080953
v -14.649357 0.321314 0.081171
v -14.684374 0.336087 0.081365
v -14.719666 0.347315 0.081538
v -14.755487 0.355150 0.081691
v -14.792099 0.359741 0.081827
v -14.829762 0.361238 0.081946
v -14.881086 0.357767 0.082074
v -14.928949 0.347535 0.082150
v -14.973162 0.330816 0.082175
v -15.013527 0.307882 0.082150
v -15.049860 0.279006 0.082076
v -15.081968 0.244459 0.081955
v -15.109659 0.204515 0.081786
v -15.132744 0.159447 0.081573
v -15.151033 0.109526 0.081315
v -15.164333 0.055025 0.081014
v -15.172455 -0.003782 0.080671
v -15.175201 -0.066623 0.080288
v -15.175220 -1.157866 0.073485
v -15.524582 -1.157866 0.074505
v -15.524563 -0.070549 0.081283
v -15.519115 0.044855 0.081987
v -15.503241 0.149724 0.082594
v -15.477636 0.244152 0.083108
v -15.442993 0.328236 0.083531
v -15.400009 0.402070 0.083866
v -15.349382 0.465750 0.084115
v -15.291800 0.519371 0.084281
v -15.227964 0.563029 0.084367
v -15.158567 0.596819 0.084375
v -15.084305 0.620837 0.084308
v -15.005873 0.635177 0.084168
v -14.923965 0.639936 0.083959
v -14.874933 0.637908 0.083803
v -14.826120 0.631886 0.083623
v -14.777742 0.621966 0.083420
v -14.730021 0.608243 0.083195
v -14.683168 0.590813 0.082949
v -14.637411 0.569771 0.082685
v -14.592960 0.545213 0.082402
v -14.550035 0.517233 0.082102
v -14.508854 0.485928 0.081787
v -14.469639 0.451393 0.081457
v -14.432602 0.413723 0.081114
v -14.397966 0.373014 0.080759
v -14.390116 0.373014 0.080736
v -12.706118 0.639936 0.077483
v -12.577314 0.631920 0.077057
v -12.454565 0.608516 0.076553
v -12.338850 0.570691 0.075979
v -12.231146 0.519414 0.075345
v -12.132441 0.455653 0.074660
v -12.043711 0.380374 0.073931
v -11.965940 0.294546 0.073169
v -11.900110 0.199136 0.072382
v -11.847200 0.095113 0.071579
v -11.808195 -0.016557 0.070769
v -11.784071 -0.134905 0.069961
v -11.775816 -0.258965 0.069164
v -11.783779 -0.391140 0.068363
v -11.807116 -0.516256 0.067651
v -11.845007 -0.633466 0.067031
v -11.896639 -0.741926 0.066506
v -11.961191 -0.840791 0.066078
v -12.037848 -0.929215 0.065751
v -12.125790 -1.006354 0.065526
v -12.224197 -1.071363 0.065408
v -12.332256 -1.123396 0.065400
v -12.449144 -1.161609 0.065503
v -12.574047 -1.185157 0.065721
v -12.706150 -1.193194 0.066056
v -12.843662 -1.185456 0.066506
v -12.973076 -1.162699 0.067026
v -13.093658 -1.125604 0.067609
v -13.204672 -1.074852 0.068249
v -13.305382 -1.011124 0.068941
v -13.395052 -0.935103 0.069676
v -13.472944 -0.847469 0.070450
v -13.538324 -0.748904 0.071255
v -13.590458 -0.640090 0.072086
v -13.628605 -0.521707 0.072935
v -13.652033 -0.394439 0.073797
v -13.660002 -0.258965 0.074665
v -13.651802 -0.131607 0.075435
v -13.627779 -0.011105 0.076116
v -13.588789 0.101737 0.076705
v -13.535692 0.206115 0.077201
v -13.469347 0.301224 0.077600
v -13.390614 0.386262 0.077900
v -13.300348 0.460423 0.078099
v -13.199411 0.522903 0.078194
v -13.088661 0.572899 0.078182
v -12.968958 0.609606 0.078062
v -12.841156 0.632220 0.077829
v -12.702198 0.325910 0.075514
v -12.787405 0.320846 0.075732
v -12.867992 0.306010 0.075874
v -12.943426 0.281934 0.075944
v -13.013180 0.249148 0.075944
v -13.076715 0.208184 0.075874
v -13.133505 0.159574 0.075737
v -13.183018 0.103849 0.075534
v -13.224720 0.041541 0.075267
v -13.258080 -0.026818 0.074938
v -13.282568 -0.100697 0.074549
v -13.297649 -0.179565 0.074102
v -13.302794 -0.262890 0.073597
v -13.298025 -0.355001 0.073009
v -13.283934 -0.440747 0.072434
v -13.260847 -0.519815 0.071873
v -13.229092 -0.591891 0.071331
v -13.188992 -0.656661 0.070810
v -13.140881 -0.713812 0.070314
v -13.085079 -0.763031 0.069844
v -13.021919 -0.804004 0.069404
v -12.951727 -0.836418 0.068997
v -12.874826 -0.859958 0.068626
v -12.791548 -0.874313 0.068293
v -12.702219 -0.879167 0.068002
v -12.620104 -0.874085 0.067794
v -12.542841 -0.859122 0.067662
v -12.470865 -0.834700 0.067604
v -12.404617 -0.801242 0.067619
v -12.344524 -0.759170 0.067706
v -12.291031 -0.708906 0.067863
v -12.244570 -0.650873 0.068089
v -12.205580 -0.585494 0.068383
v -12.174494 -0.513191 0.068743
v -12.151747 -0.434387 0.069168
v -12.137781 -0.349504 0.069656
v -12.133026 -0.258965 0.070207
v -12.137928 -0.176542 0.070735
v -12.152288 -0.098426 0.071264
v -12.175589 -0.025162 0.071788
v -12.207315 0.042704 0.072304
v -12.246944 0.104628 0.072806
v -12.293961 0.160065 0.073289
v -12.347849 0.208468 0.073748
v -12.408089 0.249293 0.074178
v -12.474159 0.281995 0.074575
v -12.545547 0.306029 0.074933
v -12.621735 0.320849 0.075248
v -11.414656 1.138453 0.076820
v -11.412735 1.166460 0.076989
v -11.407150 1.193390 0.077141
v -11.398155 1.218984 0.077274
v -11.386013 1.242984 0.077388
v -11.370979 1.265129 0.077483
v -11.353317 1.285163 0.077556
v -11.333284 1.302824 0.077607
v -11.311136 1.317856 0.077637
v -11.287136 1.329998 0.077642
v -11.261541 1.338991 0.077623
v -11.234610 1.344577 0.077580
v -11.206606 1.346496 0.077510
v -11.178600 1.344576 0.077416
v -11.151669 1.338990 0.077303
v -11.126074 1.329997 0.077172
v -11.102074 1.317855 0.077026
v -11.079929 1.302824 0.076868
v -11.059895 1.285162 0.076699
v -11.042233 1.265129 0.076523
v -11.027201 1.242983 0.076341
v -11.015059 1.218984 0.076156
v -11.006067 1.193389 0.075970
v -11.000483 1.166460 0.075786
v -10.998566 1.138453 0.075606
v -11.000484 1.110447 0.075437
v -11.006073 1.083517 0.075285
v -11.015066 1.057923 0.075152
v -11.027208 1.033923 0.075038
v -11.042240 1.011777 0.074943
v -11.059902 0.991744 0.074870
v -11.079939 0.974082 0.074819
v -11.102085 0.959051 0.074789
v -11.126085 0.946909 0.074784
v -11.151680 0.937916 0.074803
v -11.178610 0.932330 0.074846
v -11.206614 0.930411 0.074916
v -11.234621 0.932330 0.075010
v -11.261553 0.937916 0.075123
v -11.287148 0.946909 0.075254
v -11.311148 0.959051 0.075400
v -11.333294 0.974082 0.075558
v -11.353325 0.991744 0.075727
v -11.370987 1.011777 0.075903
v -11.386021 1.033923 0.076085
v -11.398163 1.057923 0.076270
v -11.407156 1.083517 0.076456
v -11.412739 1.110447 0.076640
v -11.379335 0.604608 0.073389
v -11.029978 0.604608 0.072369
v -11.030010 -1.157866 0.061383
v -11.379368 -1.157866 0.062403
v -10.123205 0.969664 0.071998
v -9.467676 0.329835 0.066095
v -9.467676 0.290582 0.065851
v -9.773857 0.290582 0.066745
v -9.773874 -0.639722 0.060945
v -9.777882 -0.717404 0.060473
v -9.789888 -0.791120 0.060048
v -9.809881 -0.860338 0.059675
v -9.837851 -0.924526 0.059357
v -9.873777 -0.983154 0.059096
v -9.917650 -1.035690 0.058897
v -9.969456 -1.081601 0.058762
v -10.029182 -1.120357 0.058695
v -10.096811 -1.151426 0.058698
v -10.172331 -1.174276 0.058776
v -10.255730 -1.188376 0.058932
v -10.346991 -1.193194 0.059168
v -10.376923 -1.192151 0.059262
v -10.409470 -1.189105 0.059376
v -10.444145 -1.184178 0.059508
v -10.480455 -1.177492 0.059656
v -10.517910 -1.169171 0.059817
v -10.556019 -1.159338 0.059990
v -10.594292 -1.148113 0.060171
v -10.632236 -1.135622 0.060360
v -10.669363 -1.121986 0.060553
v -10.705181 -1.107327 0.060749
v -10.739199 -1.091769 0.060946
v -10.770929 -1.075434 0.061140
v -10.770924 -0.749631 0.063171
v -10.735836 -0.770321 0.062940
v -10.701212 -0.789212 0.062721
v -10.667027 -0.806303 0.062514
v -10.633245 -0.821595 0.062321
v -10.599848 -0.835089 0.062139
v -10.566805 -0.846783 0.061970
v -10.534088 -0.856678 0.061812
v -10.501675 -0.864774 0.061667
v -10.469530 -0.871071 0.061534
v -10.437632 -0.875569 0.061413
v -10.405951 -0.878267 0.061304
v -10.374462 -0.879167 0.061206
v -10.348080 -0.877888 0.061137
v -10.320415 -0.873842 0.061082
v -10.292150 -0.866716 0.061043
v -10.263969 -0.856197 0.061027
v -10.236549 -0.841969 0.061035
v -10.210575 -0.823722 0.061073
v -10.186728 -0.801140 0.061144
v -10.165686 -0.773910 0.061253
v -10.148134 -0.741719 0.061402
v -10.134754 -0.704253 0.061597
v -10.126225 -0.661200 0.061840
v -10.123234 -0.612244 0.062137
v -10.123217 0.290582 0.067765
v -10.680622 0.290582 0.069392
v -10.680616 0.604608 0.071349
v -10.123211 0.604608 0.069722
v -9.404892 -0.843839 0.058596
v -9.385445 -0.858062 0.058450
v -9.366419 -0.871262 0.058312
v -9.347912 -0.883399 0.058183
v -9.330017 -0.894432 0.058062
v -9.312834 -0.904320 0.057950
v -9.296455 -0.913023 0.057848
v -9.280973 -0.920499 0.057756
v -9.266487 -0.926707 0.057675
v -9.253092 -0.931607 0.057605
v -9.240881 -0.935157 0.057547
v -9.229952 -0.937318 0.057502
v -9.220400 -0.938047 0.057470
v -9.210016 -0.937545 0.057442
v -9.200464 -0.935993 0.057424
v -9.191757 -0.933324 0.057415
v -9.183908 -0.929469 0.057417
v -9.176933 -0.924361 0.057428
v -9.170841 -0.917930 0.057450
v -9.165651 -0.910109 0.057484
v -9.161375 -0.900829 0.057529
v -9.158022 -0.890023 0.057587
v -9.155611 -0.877622 0.057657
v -9.154156 -0.863559 0.057741
v -9.153666 -0.847764 0.057838
v -9.153648 0.058987 0.063490
v -9.147881 0.154526 0.064069
v -9.131060 0.241043 0.064559
v -9.103903 0.318672 0.064964
v -9.067141 0.387552 0.065286
v -9.021490 0.447818 0.065528
v -8.967676 0.499606 0.065694
v -8.906420 0.543052 0.065786
v -8.838444 0.578294 0.065807
v -8.764475 0.605467 0.065760
v -8.685228 0.624707 0.065649
v -8.601429 0.636152 0.065476
v -8.513802 0.639936 0.065243
v -8.451317 0.638299 0.065051
v -8.391422 0.633376 0.064845
v -8.334089 0.625155 0.064627
v -8.279293 0.613622 0.064395
v -8.227005 0.598763 0.064149
v -8.177198 0.580566 0.063891
v -8.129847 0.559015 0.063618
v -8.084917 0.534098 0.063332
v -8.042387 0.505800 0.063031
v -8.002228 0.474109 0.062716
v -7.964417 0.439011 0.062387
v -7.928921 0.400491 0.062043
v -7.928928 0.019734 0.059670
v -7.971680 0.067503 0.060092
v -8.015469 0.110762 0.060490
v -8.060183 0.149577 0.060862
v -8.105713 0.184016 0.061210
v -8.151955 0.214149 0.061533
v -8.198797 0.240043 0.061831
v -8.246126 0.261766 0.062105
v -8.293840 0.279387 0.062354
v -8.341825 0.292974 0.062578
v -8.389975 0.302594 0.062779
v -8.438179 0.308316 0.062955
v -8.486328 0.310208 0.063108
v -8.537113 0.308305 0.063244
v -8.583483 0.302503 0.063343
v -8.625435 0.292667 0.063405
v -8.662971 0.278660 0.063427
v -8.696093 0.260347 0.063409
v -8.724798 0.237590 0.063351
v -8.749086 0.210253 0.063252
v -8.768959 0.178201 0.063110
v -8.784418 0.141297 0.062925
v -8.795458 0.099404 0.062696
v -8.802082 0.052386 0.062422
v -8.804291 0.000107 0.062103
v -8.804293 -0.094101 0.061516
v -8.494188 -0.204010 0.059925
v -8.423000 -0.229745 0.059557
v -8.351564 -0.256475 0.059182
v -8.281115 -0.285031 0.058798
v -8.212870 -0.316245 0.058404
v -8.148060 -0.350949 0.057999
v -8.087915 -0.389973 0.057580
v -8.033653 -0.434148 0.057146
v -7.986509 -0.484308 0.056696
v -7.947706 -0.541282 0.056227
v -7.918472 -0.605902 0.055739
v -7.900032 -0.679000 0.055230
v -7.893614 -0.761407 0.054697
v -7.897165 -0.817729 0.054356
v -7.907610 -0.872443 0.054046
v -7.924654 -0.924922 0.053768
v -7.947992 -0.974538 0.053527
v -7.977331 -1.020665 0.053325
v -8.012365 -1.062676 0.053166
v -8.052795 -1.099944 0.053052
v -8.098326 -1.131842 0.052986
v -8.148653 -1.157743 0.052971
v -8.203476 -1.177020 0.053011
v -8.262499 -1.189046 0.053108
v -8.325415 -1.193194 0.053266
v -8.365644 -1.191965 0.053391
v -8.405849 -1.188269 0.053532
v -8.445997 -1.182092 0.053687
v -8.486065 -1.173422 0.053858
v -8.526024 -1.162243 0.054045
v -8.565845 -1.148543 0.054246
v -8.605505 -1.132308 0.054463
v -8.644974 -1.113524 0.054696
v -8.684221 -1.092178 0.054943
v -8.723225 -1.068255 0.055206
v -8.761955 -1.041743 0.055485
v -8.800385 -1.012628 0.055778
v -8.809309 -1.042568 0.055618
v -8.820429 -1.069618 0.055482
v -8.833813 -1.093834 0.055370
v -8.849527 -1.115268 0.055282
v -8.867640 -1.133977 0.055218
v -8.888218 -1.150015 0.055178
v -8.911331 -1.163435 0.055162
v -8.937048 -1.174294 0.055170
v -8.965437 -1.182644 0.055201
v -8.996565 -1.188541 0.055255
v -9.030500 -1.192039 0.055332
v -9.067312 -1.193194 0.055432
v -9.093969 -1.192514 0.055514
v -9.119307 -1.190377 0.055602
v -9.143797 -1.186631 0.055696
v -9.167921 -1.181127 0.055801
v -9.192152 -1.173715 0.055918
v -9.216970 -1.164244 0.056050
v -9.242851 -1.152566 0.056198
v -9.270273 -1.138530 0.056366
v -9.299709 -1.121986 0.056555
v -9.331640 -1.102784 0.056768
v -9.366545 -1.080774 0.057007
v -9.404896 -1.055807 0.057274
v -8.804306 -0.800660 0.057111
v -8.780590 -0.822484 0.056906
v -8.756548 -0.842767 0.056709
v -8.732178 -0.861442 0.056522
v -8.707479 -0.878440 0.056344
v -8.682455 -0.893694 0.056176
v -8.657106 -0.907135 0.056018
v -8.631428 -0.918695 0.055871
v -8.605421 -0.928306 0.055735
v -8.579088 -0.935900 0.055611
v -8.552429 -0.941409 0.055499
v -8.525442 -0.944764 0.055399
v -8.498127 -0.945898 0.055312
v -8.462673 -0.943806 0.055222
v -8.429089 -0.937665 0.055162
v -8.397602 -0.927682 0.055132
v -8.368444 -0.914059 0.055132
v -8.341850 -0.897001 0.055161
v -8.318048 -0.876714 0.055218
v -8.297274 -0.853400 0.055302
v -8.279758 -0.827265 0.055414
v -8.265732 -0.798514 0.055552
v -8.255424 -0.767350 0.055716
v -8.249069 -0.733977 0.055906
v -8.246899 -0.698602 0.056120
v -8.252169 -0.648738 0.056446
v -8.267469 -0.602922 0.056777
v -8.292040 -0.560786 0.057111
v -8.325113 -0.521962 0.057450
v -8.365929 -0.486082 0.057792
v -8.413723 -0.452778 0.058140
v -8.467733 -0.421682 0.058491
v -8.527195 -0.392426 0.058847
v -8.591345 -0.364642 0.059208
v -8.659422 -0.337962 0.059573
v -8.730659 -0.312018 0.059942
v -8.804296 -0.286442 0.060317
v -6.417643 0.604608 0.058903
v -6.068281 0.604608 0.057883
v -6.068314 -1.157866 0.046897
v -6.417675 -1.157866 0.047917
v -6.417652 0.106091 0.055796
v -6.458012 0.149867 0.056186
v -6.496830 0.189050 0.056544
v -6.534369 0.223790 0.056870
v -6.570885 0.254236 0.057167
v -6.606636 0.280539 0.057435
v -6.641884 0.302848 0.057677
v -6.676889 0.321314 0.057894
v -6.711906 0.336087 0.058089
v -6.747196 0.347315 0.058262
v -6.783018 0.355150 0.058415
v -6.819630 0.359741 0.058550
v -6.857292 0.361238 0.058670
v -6.908617 0.357767 0.058798
v -6.956480 0.347535 0.058874
v -7.000692 0.330816 0.058899
v -7.041059 0.307882 0.058874
v -7.077391 0.279006 0.058800
v -7.109501 0.244459 0.058678
v -7.137192 0.204515 0.058510
v -7.160276 0.159447 0.058296
v -7.178564 0.109526 0.058039
v -7.191864 0.055025 0.057738
v -7.199986 -0.003782 0.057395
v -7.202734 -0.066623 0.057011
v -7.202753 -1.157866 0.050209
v -7.552113 -1.157866 0.051229
v -7.552094 -0.070549 0.058007
v -7.546646 0.044855 0.058710
v -7.530773 0.149724 0.059318
v -7.505167 0.244152 0.059831
v -7.470524 0.328236 0.060254
v -7.427540 0.402070 0.060589
v -7.376913 0.465750 0.060838
v -7.319330 0.519371 0.061005
v -7.255497 0.563029 0.061090
v -7.186098 0.596819 0.061098
v -7.111835 0.620837 0.061031
v -7.033403 0.635177 0.060892
v -6.951496 0.639936 0.060682
v -6.902466 0.637908 0.060526
v -6.853651 0.631886 0.060346
v -6.805273 0.621966 0.060143
v -6.757551 0.608243 0.059918
v -6.710701 0.590813 0.059673
v -6.664944 0.569771 0.059408
v -6.620491 0.545213 0.059125
v -6.577566 0.517233 0.058826
v -6.536386 0.485928 0.058510
v -6.497169 0.451393 0.058180
v -6.460133 0.413723 0.057837
v -6.425497 0.373014 0.057483
v -6.417646 0.373014 0.057460
v -5.766054 -0.843839 0.047972
v -5.746607 -0.858062 0.047826
v -5.727583 -0.871262 0.047688
v -5.709077 -0.883399 0.047559
v -5.691183 -0.894432 0.047438
v -5.673998 -0.904320 0.047326
v -5.657618 -0.913023 0.047224
v -5.642136 -0.920499 0.047132
v -5.627650 -0.926707 0.047051
v -5.614254 -0.931607 0.046981
v -5.602044 -0.935157 0.046924
v -5.591116 -0.937318 0.046878
v -5.581563 -0.938047 0.046846
v -5.571179 -0.937545 0.046819
v -5.561627 -0.935993 0.046800
v -5.552919 -0.933324 0.046792
v -5.545072 -0.929469 0.046793
v -5.538095 -0.924361 0.046804
v -5.532003 -0.917930 0.046826
v -5.526814 -0.910109 0.046860
v -5.522535 -0.900829 0.046905
v -5.519185 -0.890023 0.046963
v -5.516775 -0.877622 0.047033
v -5.515318 -0.863559 0.047117
v -5.514829 -0.847764 0.047214
v -5.514812 0.058987 0.052866
v -5.509043 0.154526 0.053445
v -5.492220 0.241043 0.053935
v -5.465066 0.318672 0.054340
v -5.428303 0.387552 0.054662
v -5.382652 0.447818 0.054904
v -5.328839 0.499606 0.055070
v -5.267585 0.543052 0.055162
v -5.199609 0.578294 0.055183
v -5.125637 0.605467 0.055137
v -5.046391 0.624707 0.055025
v -4.962592 0.636152 0.054852
v -4.874964 0.639936 0.054620
v -4.812481 0.638299 0.054427
v -4.752586 0.633376 0.054221
v -4.695255 0.625155 0.054003
v -4.640459 0.613622 0.053771
v -4.588170 0.598763 0.053526
v -4.538363 0.580566 0.053267
v -4.491009 0.559015 0.052994
v -4.446081 0.534098 0.052708
v -4.403552 0.505800 0.052407
v -4.363395 0.474109 0.052092
v -4.325583 0.439011 0.051763
v -4.290085 0.400491 0.051419
v -4.290092 0.019734 0.049046
v -4.332844 0.067503 0.049468
v -4.376631 0.110762 0.049866
v -4.421345 0.149577 0.050238
v -4.466877 0.184016 0.050586
v -4.513118 0.214149 0.050909
v -4.559958 0.240043 0.051207
v -4.607289 0.261766 0.051481
v -4.655003 0.279387 0.051730
v -4.702988 0.292974 0.051955
v -4.751137 0.302594 0.052155
v -4.799341 0.308316 0.052332
v -4.847492 0.310208 0.052484
v -4.898277 0.308305 0.052620
v -4.944646 0.302503 0.052719
v -4.986599 0.292667 0.052781
v -5.024137 0.278660 0.052803
v -5.057257 0.260347 0.052785
v -5.085960 0.237590 0.052727
v -5.110250 0.210253 0.052628
v -5.130123 0.178201 0.052486
v -5.145579 0.141297 0.052301
v -5.156621 0.099404 0.052072
v -5.163246 0.052386 0.051799
v -5.165455 0.000107 0.051479
v -5.165457 -0.094101 0.050892
v -4.855352 -0.204010 0.049301
v -4.784163 -0.229745 0.048933
v -4.712731 -0.256475 0.048558
v -4.642279 -0.285031 0.048174
v -4.574035 -0.316245 0.047780
v -4.509226 -0.350949 0.047375
v -4.449078 -0.389973 0.046956
v -4.394817 -0.434148 0.046522
v -4.347673 -0.484308 0.046072
v -4.308870 -0.541282 0.045603
v -4.279635 -0.605902 0.045115
v -4.261195 -0.679000 0.044606
v -4.254777 -0.761407 0.044073
v -4.258327 -0.817729 0.043732
v -4.268773 -0.872443 0.043422
v -4.285816 -0.924922 0.043145
v -4.309156 -0.974538 0.042903
v -4.338492 -1.020665 0.042701
v -4.373527 -1.062676 0.042542
v -4.413958 -1.099944 0.042428
v -4.459487 -1.131842 0.042362
v -4.509812 -1.157743 0.042347
v -4.564635 -1.177020 0.042387
v -4.623658 -1.189046 0.042484
v -4.686579 -1.193194 0.042642
v -4.726810 -1.191965 0.042767
v -4.767014 -1.188269 0.042908
v -4.807160 -1.182092 0.043063
v -4.847228 -1.173422 0.043235
v -4.887186 -1.162243 0.043421
v -4.927008 -1.148543 0.043623
v -4.966665 -1.132308 0.043840
v -5.006132 -1.113524 0.044072
v -5.045382 -1.092178 0.044320
v -5.084384 -1.068255 0.044583
v -5.123116 -1.041743 0.044861
v -5.161547 -1.012628 0.045155
v -5.170474 -1.042568 0.044994
v -5.181594 -1.069618 0.044858
v -5.194977 -1.093834 0.044746
v -5.210690 -1.115268 0.044658
v -5.228803 -1.133977 0.044594
v -5.249382 -1.150015 0.044555
v -5.272495 -1.163435 0.044538
v -5.298213 -1.174294 0.044546
v -5.326601 -1.182644 0.044577
v -5.357731 -1.188541 0.044631
v -5.391666 -1.192039 0.044708
v -5.428478 -1.193194 0.044808
v -5.455135 -1.192514 0.044890
v -5.480471 -1.190377 0.044978
v -5.504961 -1.186631 0.045072
v -5.529082 -1.181127 0.045177
v -5.553315 -1.173715 0.045294
v -5.578133 -1.164244 0.045426
v -5.604013 -1.152566 0.045574
v -5.631434 -1.138530 0.045742
v -5.660872 -1.121986 0.045931
v -5.692803 -1.102784 0.046144
v -5.727707 -1.080774 0.046383
v -5.766058 -1.055807 0.046650
v -5.165469 -0.800660 0.046487
v -5.141754 -0.822484 0.046282
v -5.117711 -0.842767 0.046085
v -5.093341 -0.861442 0.045898
v -5.068645 -0.878440 0.045720
v -5.043620 -0.893694 0.045552
v -5.018269 -0.907135 0.045394
v -4.992590 -0.918695 0.045247
v -4.966585 -0.928306 0.045111
v -4.940252 -0.935900 0.044987
v -4.913592 -0.941409 0.044875
v -4.886605 -0.944764 0.044775
v -4.859291 -0.945898 0.044688
v -4.823838 -0.943806 0.044598
v -4.790252 -0.937665 0.044538
v -4.758765 -0.927682 0.044508
v -4.729608 -0.914059 0.044508
v -4.703013 -0.897001 0.044537
v -4.679214 -0.876714 0.044594
v -4.658439 -0.853400 0.044678
v -4.640922 -0.827265 0.044790
v -4.626894 -0.798514 0.044928
v -4.616588 -0.767350 0.045093
v -4.610233 -0.733977 0.045282
v -4.608061 -0.698602 0.045496
v -4.613330 -0.648738 0.045822
v -4.628631 -0.602922 0.046153
v -4.653201 -0.560786 0.046487
v -4.686275 -0.521962 0.046826
v -4.727091 -0.486082 0.047168
v -4.774886 -0.452778 0.047516
v -4.828897 -0.421682 0.047867
v -4.888358 -0.392426 0.048223
v -4.952509 -0.364642 0.048584
v -5.020585 -0.337962 0.048949
v -5.091824 -0.312018 0.049318
v -5.165460 -0.286442 0.049693
v -3.897526 1.519210 0.057247
v -3.548165 1.519210 0.056227
v -3.548214 -1.157866 0.039539
v -3.897574 -1.157866 0.040559
v -1.903474 -1.114687 0.035006
v -1.936288 -1.127776 0.035020
v -1.968081 -1.139584 0.035040
v -1.998973 -1.150138 0.035064
v -2.029088 -1.159465 0.035094
v -2.058549 -1.167593 0.035129
v -2.087478 -1.174548 0.035170
v -2.115998 -1.180359 0.035217
v -2.144233 -1.185052 0.035270
v -2.172303 -1.188655 0.035330
v -2.200334 -1.191195 0.035396
v -2.228445 -1.192698 0.035469
v -2.256762 -1.193194 0.035548
v -2.384044 -1.185550 0.035967
v -2.504333 -1.163118 0.036458
v -2.616854 -1.126647 0.037014
v -2.720827 -1.076887 0.037628
v -2.815479 -1.014589 0.038293
v -2.900031 -0.940500 0.039001
v -2.973704 -0.855372 0.039747
v -3.035725 -0.759953 0.040523
v -3.085315 -0.654994 0.041322
v -3.121697 -0.541243 0.042138
v -3.144095 -0.419451 0.042962
v -3.151733 -0.290367 0.043789
v -3.144485 -0.150718 0.044638
v -3.122869 -0.022354 0.045376
v -3.087080 0.094560 0.046000
v -3.037307 0.199863 0.046511
v -2.973740 0.293389 0.046908
v -2.896571 0.374976 0.047192
v -2.805989 0.444460 0.047360
v -2.702188 0.501677 0.047414
v -2.585358 0.546464 0.047352
v -2.455688 0.578658 0.047174
v -2.313368 0.598093 0.046880
v -2.158593 0.604608 0.046469
v -1.554083 0.604608 0.044704
v -1.554132 -2.060692 0.028089
v -1.903491 -2.060692 0.029109
v -1.903448 0.290582 0.043766
v -2.221405 0.290582 0.044694
v -2.312668 0.286200 0.044934
v -2.396068 0.273190 0.045096
v -2.471588 0.251758 0.045183
v -2.539218 0.222107 0.045195
v -2.598942 0.184441 0.045135
v -2.650748 0.138966 0.045003
v -2.694621 0.085885 0.044800
v -2.730548 0.025404 0.044528
v -2.758516 -0.042274 0.044188
v -2.778509 -0.116944 0.043781
v -2.790517 -0.198401 0.043308
v -2.794523 -0.286442 0.042771
v -2.789702 -0.369844 0.042237
v -2.775572 -0.448925 0.041702
v -2.752637 -0.523127 0.041173
v -2.721401 -0.591891 0.040653
v -2.682368 -0.654658 0.040148
v -2.636044 -0.710868 0.039662
v -2.582931 -0.759965 0.039201
v -2.523535 -0.801387 0.038769
v -2.458360 -0.834578 0.038372
v -2.387909 -0.858977 0.038014
v -2.312689 -0.874026 0.037701
v -2.233204 -0.879167 0.037437
v -2.205651 -0.878597 0.037360
v -2.177976 -0.876895 0.037290
v -2.150219 -0.874076 0.037226
v -2.122421 -0.870153 0.037170
v -2.094623 -0.865140 0.037120
v -2.066865 -0.859050 0.037077
v -2.039189 -0.851896 0.037040
v -2.011637 -0.843694 0.037011
v -1.984248 -0.834455 0.036989
v -1.957064 -0.824194 0.036973
v -1.930123 -0.812925 0.036965
v -1.903468 -0.800660 0.036964
v -1.279305 0.604608 0.043901
v -0.831812 0.604608 0.042595
v -0.329372 0.000107 0.037360
v 0.192716 0.604608 0.039604
v 0.632360 0.604608 0.038320
v -0.109556 -0.262890 0.035078
v 0.632327 -1.157866 0.027333
v 0.192683 -1.157866 0.028617
v -0.329382 -0.525887 0.034081
v -0.882874 -1.157866 0.031757
v -1.330368 -1.157866 0.033064
v -0.553125 -0.262890 0.036374
v 0.781541 1.519210 0.043586
v 2.300667 1.519210 0.039151
v 2.300618 -1.157866 0.022463
v 0.746163 -1.157866 0.027001
v 0.746170 -0.812436 0.029154
v 1.915937 -0.812436 0.025739
v 1.915952 0.019734 0.030927
v 0.820767 0.019734 0.034124
v 0.820774 0.365163 0.036277
v 1.915958 0.365163 0.033080
v 1.915973 1.173781 0.038121
v 0.781534 1.173781 0.041433
v 3.026824 -0.722154 0.023059
v 3.058670 -0.724314 0.022952
v 3.089248 -0.730604 0.022824
v 3.118273 -0.740738 0.022676
v 3.145457 -0.754429 0.022511
v 3.170515 -0.771391 0.022332
v 3.193161 -0.791338 0.022142
v 3.213108 -0.813983 0.021942
v 3.230069 -0.839041 0.021737
v 3.243760 -0.866226 0.021527
v 3.253893 -0.895250 0.021317
v 3.260183 -0.925828 0.021108
v 3.262343 -0.957674 0.020903
v 3.260181 -0.989519 0.020711
v 3.253891 -1.020097 0.020538
v 3.243757 -1.049122 0.020387
v 3.230065 -1.076306 0.020257
v 3.213102 -1.101364 0.020151
v 3.193155 -1.124009 0.020068
v 3.170508 -1.143956 0.020010
v 3.145450 -1.160918 0.019977
v 3.118265 -1.174610 0.019971
v 3.089240 -1.184743 0.019993
v 3.058661 -1.191033 0.020043
v 3.026815 -1.193194 0.020122
v 2.994969 -1.191033 0.020229
v 2.964391 -1.184743 0.020357
v 2.935366 -1.174610 0.020505
v 2.908182 -1.160919 0.020670
v 2.883124 -1.143957 0.020849
v 2.860478 -1.124010 0.021039
v 2.840531 -1.101364 0.021239
v 2.823569 -1.076306 0.021444
v 2.809878 -1.049122 0.021654
v 2.799745 -1.020097 0.021864
v 2.793456 -0.989519 0.022073
v 2.791296 -0.957674 0.022278
v 2.793457 -0.925828 0.022470
v 2.799747 -0.895250 0.022643
v 2.809882 -0.866226 0.022794
v 2.823573 -0.839041 0.022923
v 2.840536 -0.813983 0.023030
v 2.860484 -0.791338 0.023113
v 2.883131 -0.771391 0.023171
v 2.908189 -0.754429 0.023204
v 2.935374 -0.740738 0.023210
v 2.964399 -0.730604 0.023188
v 2.994978 -0.724314 0.023138
v 3.026849 0.639936 0.031549
v 3.058695 0.637776 0.031443
v 3.089273 0.631486 0.031315
v 3.118298 0.621352 0.031167
v 3.145482 0.607661 0.031002
v 3.170540 0.590699 0.030823
v 3.193186 0.570752 0.030633
v 3.213132 0.548107 0.030433
v 3.230094 0.523048 0.030227
v 3.243785 0.495864 0.030018
v 3.253918 0.466840 0.029807
v 3.260208 0.436262 0.029598
v 3.262368 0.404416 0.029394
v 3.260206 0.372571 0.029201
v 3.253916 0.341993 0.029029
v 3.243782 0.312968 0.028878
v 3.230090 0.285784 0.028748
v 3.213127 0.260726 0.028642
v 3.193180 0.238080 0.028559
v 3.170533 0.218133 0.028501
v 3.145474 0.201171 0.028468
v 3.118289 0.187480 0.028462
v 3.089265 0.177347 0.028484
v 3.058686 0.171057 0.028534
v 3.026840 0.168897 0.028613
v 2.994994 0.171057 0.028720
v 2.964416 0.177347 0.028848
v 2.935391 0.187481 0.028996
v 2.908207 0.201172 0.029161
v 2.883149 0.218134 0.029340
v 2.860503 0.238081 0.029530
v 2.840556 0.260726 0.029729
v 2.823594 0.285784 0.029935
v 2.809903 0.312969 0.030145
v 2.799770 0.341993 0.030355
v 2.793480 0.372571 0.030564
v 2.791321 0.404416 0.030769
v 2.793482 0.436262 0.030961
v 2.799772 0.466840 0.031133
v 2.809906 0.495864 0.031285
v 2.823598 0.523049 0.031414
v 2.840561 0.548107 0.031521
v 2.860509 0.570752 0.031604
v 2.883156 0.590699 0.031662
v 2.908214 0.607661 0.031695
v 2.935399 0.621352 0.031701
v 2.964424 0.631486 0.031679
v 2.995003 0.637776 0.031629
v 3.658849 1.334720 0.034035
v 3.748364 1.371204 0.034001
v 3.834566 1.404158 0.033955
v 3.917742 1.433650 0.033896
v 3.998179 1.459749 0.033824
v 4.076163 1.482522 0.033738
v 4.151980 1.502037 0.033639
v 4.225915 1.518363 0.033525
v 4.298255 1.531568 0.033396
v 4.369287 1.541720 0.033252
v 4.439297 1.548887 0.033092
v 4.508570 1.553137 0.032916
v 4.577394 1.554538 0.032724
v 4.785220 1.542326 0.032041
v 4.981909 1.506562 0.031244
v 5.166140 1.448555 0.030344
v 5.336591 1.369612 0.029355
v 5.491940 1.271042 0.028287
v 5.630864 1.154155 0.027152
v 5.752042 1.020257 0.025964
v 5.854152 0.870658 0.024733
v 5.935871 0.706667 0.023472
v 5.995878 0.529591 0.022193
v 6.032850 0.340739 0.020908
v 6.045465 0.141419 0.019629
v 6.036231 -0.002757 0.018757
v 6.008241 -0.152345 0.017906
v 5.961061 -0.303922 0.017099
v 5.894254 -0.454068 0.016358
v 5.807383 -0.599362 0.015706
v 5.700014 -0.736383 0.015165
v 5.571710 -0.861710 0.014759
v 5.422034 -0.971921 0.014509
v 5.250551 -1.063596 0.014438
v 5.056824 -1.133314 0.014569
v 4.840418 -1.177654 0.014924
v 4.600897 -1.193194 0.015527
v 4.498610 -1.191183 0.015838
v 4.401502 -1.185288 0.016158
v 4.309192 -1.175714 0.016487
v 4.221298 -1.162663 0.016825
v 4.137438 -1.146342 0.017172
v 4.057232 -1.126953 0.017527
v 3.980297 -1.104703 0.017890
v 3.906251 -1.079795 0.018262
v 3.834713 -1.052434 0.018641
v 3.765301 -1.022823 0.019028
v 3.697634 -0.991168 0.019423
v 3.631330 -0.957674 0.019825
v 3.631338 -0.537663 0.022444
v 3.707441 -0.584840 0.021927
v 3.784499 -0.628200 0.021432
v 3.862320 -0.667690 0.020959
v 3.940713 -0.703254 0.020508
v 4.019488 -0.734838 0.020081
v 4.098454 -0.762388 0.019679
v 4.177421 -0.785849 0.019302
v 4.256196 -0.805167 0.018952
v 4.334590 -0.820287 0.018629
v 4.412412 -0.831154 0.018334
v 4.489470 -0.837715 0.018068
v 4.565575 -0.839914 0.017832
v 4.722127 -0.831379 0.017428
v 4.869357 -0.806312 0.017155
v 5.006447 -0.765516 0.017009
v 5.132578 -0.709796 0.016988
v 5.246933 -0.639956 0.017089
v 5.348695 -0.556799 0.017310
v 5.437046 -0.461131 0.017649
v 5.511167 -0.353754 0.018102
v 5.570240 -0.235474 0.018667
v 5.613449 -0.107094 0.019341
v 5.639975 0.030581 0.020122
v 5.649001 0.176747 0.021006
v 5.639689 0.320594 0.021930
v 5.612442 0.457081 0.022861
v 5.568293 0.585227 0.023788
v 5.508278 0.704050 0.024704
v 5.433434 0.812569 0.025599
v 5.344797 0.909803 0.026464
v 5.243402 0.994770 0.027290
v 5.130284 1.066489 0.028067
v 5.006481 1.123979 0.028787
v 4.873028 1.166258 0.029440
v 4.730960 1.192345 0.030018
v 4.581314 1.201258 0.030510
v 4.504316 1.199448 0.030724
v 4.428205 1.193971 0.030912
v 4.352720 1.184760 0.031075
v 4.277604 1.171746 0.031213
v 4.202597 1.154861 0.031327
v 4.127439 1.134037 0.031416
v 4.051873 1.109207 0.031482
v 3.975637 1.080301 0.031524
v 3.898477 1.047251 0.031544
v 3.820129 1.009990 0.031540
v 3.740337 0.968449 0.031514
v 3.658842 0.922560 0.031466
v 6.465505 1.366122 0.026037
v 6.512928 1.396217 0.026086
v 6.560950 1.423694 0.026117
v 6.609519 1.448555 0.026130
v 6.658577 1.470798 0.026126
v 6.708072 1.490425 0.026103
v 6.757948 1.507434 0.026064
v 6.808152 1.521827 0.026007
v 6.858628 1.533603 0.025933
v 6.909322 1.542763 0.025842
v 6.960180 1.549305 0.025734
v 7.011147 1.553230 0.025610
v 7.062167 1.554538 0.025469
v 7.181231 1.548803 0.025086
v 7.292729 1.531877 0.024655
v 7.396132 1.504184 0.024180
v 7.490906 1.466146 0.023667
v 7.576521 1.418185 0.023118
v 7.652445 1.360725 0.022538
v 7.718146 1.294188 0.021931
v 7.773093 1.218995 0.021302
v 7.816755 1.135571 0.020655
v 7.848599 1.044336 0.019993
v 7.868095 0.945715 0.019321
v 7.874710 0.840128 0.018644
v 7.851923 0.669930 0.017649
v 7.788927 0.523666 0.016921
v 7.693766 0.397302 0.016411
v 7.574480 0.286802 0.016071
v 7.439111 0.188132 0.015851
v 7.295701 0.097259 0.015703
v 7.152290 0.010147 0.015579
v 7.016922 -0.077237 0.015429
v 6.897636 -0.168928 0.015206
v 6.802476 -0.268960 0.014860
v 6.739481 -0.381368 0.014343
v 6.716695 -0.510186 0.013607
v 6.719571 -0.548163 0.013362
v 6.728252 -0.586984 0.013095
v 6.742822 -0.625861 0.012810
v 6.763361 -0.664001 0.012512
v 6.789952 -0.700614 0.012206
v 6.822677 -0.734911 0.011897
v 6.861616 -0.766100 0.011589
v 6.906854 -0.793391 0.011286
v 6.958469 -0.815994 0.010995
v 7.016545 -0.833117 0.010718
v 7.081164 -0.843971 0.010462
v 7.152408 -0.847764 0.010231
v 7.217811 -0.844916 0.010057
v 7.282436 -0.836424 0.009922
v 7.346163 -0.822372 0.009823
v 7.408867 -0.802841 0.009762
v 7.470427 -0.777913 0.009737
v 7.530719 -0.747668 0.009750
v 7.589622 -0.712191 0.009799
v 7.647010 -0.671561 0.009885
v 7.702764 -0.625860 0.010007
v 7.756759 -0.575172 0.010165
v 7.808874 -0.519577 0.010360
v 7.858985 -0.459157 0.010590
v 7.858976 -0.945898 0.007556
v 7.802768 -0.986221 0.007469
v 7.745919 -1.022823 0.007406
v 7.688281 -1.055746 0.007369
v 7.629702 -1.085029 0.007358
v 7.570032 -1.110714 0.007372
v 7.509122 -1.132842 0.007412
v 7.446822 -1.151453 0.007478
v 7.382982 -1.166588 0.007570
v 7.317451 -1.178290 0.007688
v 7.250082 -1.186597 0.007833
v 7.180721 -1.191551 0.008005
v 7.109221 -1.193194 0.008203
v 7.003764 -1.186926 0.008550
v 6.903757 -1.168569 0.008957
v 6.809912 -1.138791 0.009416
v 6.722936 -1.098259 0.009923
v 6.643538 -1.047640 0.010470
v 6.572428 -0.987604 0.011052
v 6.510314 -0.918818 0.011662
v 6.457904 -0.841949 0.012294
v 6.415907 -0.757666 0.012942
v 6.385033 -0.666636 0.013600
v 6.365989 -0.569527 0.014261
v 6.359486 -0.467007 0.014919
v 6.382274 -0.271168 0.016073
v 6.445270 -0.106349 0.016917
v 6.540431 0.032246 0.017503
v 6.659717 0.149415 0.017885
v 6.795085 0.249956 0.018117
v 6.938495 0.338667 0.018251
v 7.081905 0.420345 0.018341
v 7.217274 0.499787 0.018441
v 7.336559 0.581792 0.018604
v 7.431720 0.671157 0.018884
v 7.494714 0.772679 0.019333
v 7.517500 0.891157 0.020005
v 7.513883 0.936994 0.020301
v 7.503273 0.980132 0.020601
v 7.486038 1.020325 0.020902
v 7.462548 1.057330 0.021201
v 7.433170 1.090899 0.021496
v 7.398271 1.120790 0.021784
v 7.358220 1.146754 0.022063
v 7.313385 1.168548 0.022330
v 7.264134 1.185925 0.022582
v 7.210835 1.198642 0.022817
v 7.153855 1.206452 0.023032
v 7.093564 1.209109 0.023224
v 7.047623 1.207749 0.023350
v 7.000154 1.203458 0.023462
v 6.951268 1.195923 0.023558
v 6.901074 1.184830 0.023635
v 6.849680 1.169868 0.023692
v 6.797196 1.150720 0.023726
v 6.743730 1.127075 0.023734
v 6.689392 1.098619 0.023716
v 6.634291 1.065037 0.023667
v 6.578535 1.026018 0.023587
v 6.522234 0.981247 0.023472
v 6.465496 0.930411 0.023321
v 8.180902 1.519210 0.021983
v 9.700029 1.519210 0.017548
v 9.699981 -1.157866 0.000860
v 8.145526 -1.157866 0.005398
v 8.145532 -0.812436 0.007551
v 9.315298 -0.812436 0.004136
v 9.315313 0.019734 0.009323
v 8.220129 0.019734 0.012521
v 8.220136 0.365163 0.014674
v 9.315320 0.365163 0.011477
v 9.315334 1.173781 0.016517
v 8.180897 1.173781 0.019830
vn -0.0029 0.0062 -1.0000
vt 0.785714 0.000000
vt 0.750000 0.000000
vt 0.767857 0.000000
vt 0.803571 0.000000
vt 0.732143 0.000000
vt 0.821429 0.000000
vt 0.839286 0.000000
vt 0.714286 0.000000
vt 0.857143 0.000000
vt 0.035714 0.000000
vt 0.000000 0.000000
vt 0.017857 0.000000
vt 1.000000 0.000000
vt 0.696429 0.000000
vt 0.875000 0.000000
vt 0.892857 0.000000
vt 0.678571 0.000000
vt 0.910714 0.000000
vt 0.660714 0.000000
vt 0.928571 0.000000
vt 0.946429 0.000000
vt 0.642857 0.000000
vt 0.964286 0.000000
vt 0.982143 0.000000
vt 0.285714 0.000000
vt 0.625000 0.000000
vt 0.071429 0.000000
vt 0.089286 0.000000
vt 0.107143 0.000000
vt 0.125000 0.000000
vt 0.142857 0.000000
vt 0.160714 0.000000
vt 0.178571 0.000000
vt 0.196429 0.000000
vt 0.214286 0.000000
vt 0.232143 0.000000
vt 0.250000 0.000000
vt 0.267857 0.000000
vt 0.303571 0.000000
vt 0.321429 0.000000
vt 0.339286 0.000000
vt 0.357143 0.000000
vt 0.607143 0.000000
vt 0.375000 0.000000
vt 0.392857 0.000000
vt 0.410714 0.000000
vt 0.589286 0.000000
vt 0.428571 0.000000
vt 0.446429 0.000000
vt 0.571429 0.000000
vt 0.464286 0.000000
vt 0.053571 0.000000
vt 0.482143 0.000000
vt 0.553571 0.000000
vt 0.500000 0.000000
vt 0.517857 0.000000
vt 0.535714 0.000000
vt 0.010526 0.000000
vt 0.494737 0.000000
vt 0.484211 0.000000
vt 0.021053 0.000000
vt 0.473684 0.000000
vt 0.031579 0.000000
vt 0.463158 0.000000
vt 0.042105 0.000000
vt 0.452632 0.000000
vt 0.052632 0.000000
vt 0.442105 0.000000
vt 0.063158 0.000000
vt 0.431579 0.000000
vt 0.073684 0.000000
vt 0.505263 0.000000
vt 0.515789 0.000000
vt 0.989474 0.000000
vt 0.526316 0.000000
vt 0.978947 0.000000
vt 0.536842 0.000000
vt 0.421053 0.000000
vt 0.084211 0.000000
vt 0.968421 0.000000
vt 0.547368 0.000000
vt 0.957895 0.000000
vt 0.557895 0.000000
vt 0.947368 0.000000
vt 0.568421 0.000000
vt 0.410526 0.000000
vt 0.094737 0.000000
vt 0.936842 0.000000
vt 0.578947 0.000000
vt 0.926316 0.000000
vt 0.589474 0.000000
vt 0.400000 0.000000
vt 0.105263 0.000000
vt 0.915789 0.000000
vt 0.600000 0.000000
vt 0.389474 0.000000
vt 0.115789 0.000000
vt 0.905263 0.000000
vt 0.610526 0.000000
vt 0.894737 0.000000
vt 0.621053 0.000000
vt 0.378947 0.000000
vt 0.126316 0.000000
vt 0.884211 0.000000
vt 0.631579 0.000000
vt 0.136842 0.000000
vt 0.873684 0.000000
vt 0.368421 0.000000
vt 0.642105 0.000000
vt 0.863158 0.000000
vt 0.652632 0.000000
vt 0.147368 0.000000
vt 0.357895 0.000000
vt 0.852632 0.000000
vt 0.663158 0.000000
vt 0.842105 0.000000
vt 0.157895 0.000000
vt 0.673684 0.000000
vt 0.347368 0.000000
vt 0.831579 0.000000
vt 0.684211 0.000000
vt 0.168421 0.000000
vt 0.336842 0.000000
vt 0.821053 0.000000
vt 0.694737 0.000000
vt 0.810526 0.000000
vt 0.705263 0.000000
vt 0.178947 0.000000
vt 0.326316 0.000000
vt 0.800000 0.000000
vt 0.715789 0.000000
vt 0.789474 0.000000
vt 0.726316 0.000000
vt 0.778947 0.000000
vt 0.736842 0.000000
vt 0.189474 0.000000
vt 0.315789 0.000000
vt 0.768421 0.000000
vt 0.747368 0.000000
vt 0.757895 0.000000
vt 0.200000 0.000000
vt 0.305263 0.000000
vt 0.210526 0.000000
vt 0.294737 0.000000
vt 0.221053 0.000000
vt 0.284211 0.000000
vt 0.231579 0.000000
vt 0.273684 0.000000
vt 0.242105 0.000000
vt 0.263158 0.000000
vt 0.252632 0.000000
vt 0.980392 0.000000
vt 0.941176 0.000000
vt 0.960784 0.000000
vt 0.254902 0.000000
vt 0.215686 0.000000
vt 0.235294 0.000000
vt 0.196078 0.000000
vt 0.274510 0.000000
vt 0.176471 0.000000
vt 0.294118 0.000000
vt 0.156863 0.000000
vt 0.313726 0.000000
vt 0.137255 0.000000
vt 0.333333 0.000000
vt 0.117647 0.000000
vt 0.352941 0.000000
vt 0.098039 0.000000
vt 0.372549 0.000000
vt 0.078431 0.000000
vt 0.392157 0.000000
vt 0.058824 0.000000
vt 0.411765 0.000000
vt 0.039216 0.000000
vt 0.431373 0.000000
vt 0.019608 0.000000
vt 0.450980 0.000000
vt 0.470588 0.000000
vt 0.490196 0.000000
vt 0.921569 0.000000
vt 0.901961 0.000000
vt 0.509804 0.000000
vt 0.882353 0.000000
vt 0.529412 0.000000
vt 0.862745 0.000000
vt 0.549020 0.000000
vt 0.843137 0.000000
vt 0.568627 0.000000
vt 0.823529 0.000000
vt 0.588235 0.000000
vt 0.803922 0.000000
vt 0.607843 0.000000
vt 0.784314 0.000000
vt 0.627451 0.000000
vt 0.764706 0.000000
vt 0.647059 0.000000
vt 0.745098 0.000000
vt 0.666667 0.000000
vt 0.725490 0.000000
vt 0.686275 0.000000
vt 0.705882 0.000000
vt 0.017544 0.000000
vt 0.982456 0.000000
vt 0.964912 0.000000
vt 0.035088 0.000000
vt 0.070175 0.000000
vt 0.929825 0.000000
vt 0.912281 0.000000
vt 0.087719 0.000000
vt 0.877193 0.000000
vt 0.859649 0.000000
vt 0.491228 0.000000
vt 0.508772 0.000000
vt 0.543860 0.000000
vt 0.561404 0.000000
vt 0.122807 0.000000
vt 0.824561 0.000000
vt 0.596491 0.000000
vt 0.807018 0.000000
vt 0.614035 0.000000
vt 0.771930 0.000000
vt 0.649123 0.000000
vt 0.140351 0.000000
vt 0.754386 0.000000
vt 0.701754 0.000000
vt 0.719298 0.000000
vt 0.175439 0.000000
vt 0.192982 0.000000
vt 0.456140 0.000000
vt 0.438596 0.000000
vt 0.228070 0.000000
vt 0.403509 0.000000
vt 0.385965 0.000000
vt 0.245614 0.000000
vt 0.350877 0.000000
vt 0.280702 0.000000
vt 0.298246 0.000000
vt 0.219653 0.000000
vt 0.208092 0.000000
vt 0.213873 0.000000
vt 0.225434 0.000000
vt 0.202312 0.000000
vt 0.231214 0.000000
vt 0.236994 0.000000
vt 0.196532 0.000000
vt 0.242775 0.000000
vt 0.190751 0.000000
vt 0.248555 0.000000
vt 0.254335 0.000000
vt 0.184971 0.000000
vt 0.260116 0.000000
vt 0.179191 0.000000
vt 0.265896 0.000000
vt 0.271676 0.000000
vt 0.173410 0.000000
vt 0.277457 0.000000
vt 0.167630 0.000000
vt 0.283237 0.000000
vt 0.289017 0.000000
vt 0.294798 0.000000
vt 0.300578 0.000000
vt 0.306358 0.000000
vt 0.312139 0.000000
vt 0.317919 0.000000
vt 0.323699 0.000000
vt 0.329480 0.000000
vt 0.335260 0.000000
vt 0.341040 0.000000
vt 0.346821 0.000000
vt 0.352601 0.000000
vt 0.358382 0.000000
vt 0.161850 0.000000
vt 0.364162 0.000000
vt 0.156069 0.000000
vt 0.369942 0.000000
vt 0.375723 0.000000
vt 0.381503 0.000000
vt 0.387283 0.000000
vt 0.393064 0.000000
vt 0.150289 0.000000
vt 0.398844 0.000000
vt 0.404624 0.000000
vt 0.410405 0.000000
vt 0.144509 0.000000
vt 0.416185 0.000000
vt 0.421965 0.000000
vt 0.138728 0.000000
vt 0.427746 0.000000
vt 0.433526 0.000000
vt 0.439306 0.000000
vt 0.445087 0.000000
vt 0.450867 0.000000
vt 0.456647 0.000000
vt 0.462428 0.000000
vt 0.994220 0.000000
vt 0.791907 0.000000
vt 0.988439 0.000000
vt 0.468208 0.000000
vt 0.982659 0.000000
vt 0.473988 0.000000
vt 0.976879 0.000000
vt 0.479769 0.000000
vt 0.971098 0.000000
vt 0.965318 0.000000
vt 0.485549 0.000000
vt 0.959538 0.000000
vt 0.491329 0.000000
vt 0.953757 0.000000
vt 0.947977 0.000000
vt 0.497110 0.000000
vt 0.942197 0.000000
vt 0.936416 0.000000
vt 0.502890 0.000000
vt 0.930636 0.000000
vt 0.508671 0.000000
vt 0.924855 0.000000
vt 0.919075 0.000000
vt 0.514451 0.000000
vt 0.913295 0.000000
vt 0.907514 0.000000
vt 0.797688 0.000000
vt 0.520231 0.000000
vt 0.803468 0.000000
vt 0.901734 0.000000
vt 0.809249 0.000000
vt 0.005780 0.000000
vt 0.786127 0.000000
vt 0.132948 0.000000
vt 0.895954 0.000000
vt 0.011561 0.000000
vt 0.815029 0.000000
vt 0.127168 0.000000
vt 0.017341 0.000000
vt 0.526012 0.000000
vt 0.890173 0.000000
vt 0.121387 0.000000
vt 0.820809 0.000000
vt 0.023121 0.000000
vt 0.115607 0.000000
vt 0.826590 0.000000
vt 0.028902 0.000000
vt 0.884393 0.000000
vt 0.109827 0.000000
vt 0.034682 0.000000
vt 0.832370 0.000000
vt 0.104046 0.000000
vt 0.040462 0.000000
vt 0.878613 0.000000
vt 0.098266 0.000000
vt 0.838150 0.000000
vt 0.046243 0.000000
vt 0.092486 0.000000
vt 0.531792 0.000000
vt 0.052023 0.000000
vt 0.872832 0.000000
vt 0.843931 0.000000
vt 0.086705 0.000000
vt 0.057803 0.000000
vt 0.080925 0.000000
vt 0.063584 0.000000
vt 0.849711 0.000000
vt 0.075145 0.000000
vt 0.069364 0.000000
vt 0.867052 0.000000
vt 0.855491 0.000000
vt 0.861272 0.000000
vt 0.647399 0.000000
vt 0.537572 0.000000
vt 0.641618 0.000000
vt 0.653179 0.000000
vt 0.543353 0.000000
vt 0.635838 0.000000
vt 0.658960 0.000000
vt 0.780347 0.000000
vt 0.549133 0.000000
vt 0.630058 0.000000
vt 0.664740 0.000000
vt 0.774566 0.000000
vt 0.624277 0.000000
vt 0.670520 0.000000
vt 0.554913 0.000000
vt 0.768786 0.000000
vt 0.618497 0.000000
vt 0.676301 0.000000
vt 0.763006 0.000000
vt 0.560694 0.000000
vt 0.612717 0.000000
vt 0.682081 0.000000
vt 0.757225 0.000000
vt 0.606936 0.000000
vt 0.687861 0.000000
vt 0.751445 0.000000
vt 0.566474 0.000000
vt 0.601156 0.000000
vt 0.693642 0.000000
vt 0.745665 0.000000
vt 0.595376 0.000000
vt 0.739884 0.000000
vt 0.699422 0.000000
vt 0.572254 0.000000
vt 0.734104 0.000000
vt 0.589595 0.000000
vt 0.705202 0.000000
vt 0.728324 0.000000
vt 0.583815 0.000000
vt 0.710983 0.000000
vt 0.578035 0.000000
vt 0.722543 0.000000
vt 0.716763 0.000000
vt 0.493506 0.000000
vt 0.519481 0.000000
vt 0.480519 0.000000
vt 0.467532 0.000000
vt 0.454545 0.000000
vt 0.441558 0.000000
vt 0.415584 0.000000
vt 0.402597 0.000000
vt 0.389610 0.000000
vt 0.376623 0.000000
vt 0.532468 0.000000
vt 0.545455 0.000000
vt 0.363636 0.000000
vt 0.558442 0.000000
vt 0.584416 0.000000
vt 0.597403 0.000000
vt 0.350649 0.000000
vt 0.610390 0.000000
vt 0.623377 0.000000
vt 0.337662 0.000000
vt 0.636364 0.000000
vt 0.649351 0.000000
vt 0.324675 0.000000
vt 0.662338 0.000000
vt 0.675325 0.000000
vt 0.311688 0.000000
vt 0.688312 0.000000
vt 0.701299 0.000000
vt 0.298701 0.000000
vt 0.727273 0.000000
vt 0.740260 0.000000
vt 0.272727 0.000000
vt 0.753247 0.000000
vt 0.766234 0.000000
vt 0.259740 0.000000
vt 0.779221 0.000000
vt 0.246753 0.000000
vt 0.792208 0.000000
vt 0.987013 0.000000
vt 0.805195 0.000000
vt 0.974026 0.000000
vt 0.961039 0.000000
vt 0.948052 0.000000
vt 0.818182 0.000000
vt 0.935065 0.000000
vt 0.922078 0.000000
vt 0.233766 0.000000
vt 0.831169 0.000000
vt 0.909091 0.000000
vt 0.896104 0.000000
vt 0.883117 0.000000
vt 0.844156 0.000000
vt 0.870130 0.000000
vt 0.220779 0.000000
vt 0.207792 0.000000
vt 0.194805 0.000000
vt 0.506494 0.000000
vt 0.012987 0.000000
vt 0.181818 0.000000
vt 0.025974 0.000000
vt 0.038961 0.000000
vt 0.051948 0.000000
vt 0.064935 0.000000
vt 0.168831 0.000000
vt 0.077922 0.000000
vt 0.090909 0.000000
vt 0.103896 0.000000
vt 0.116883 0.000000
vt 0.155844 0.000000
vt 0.129870 0.000000
vt 0.134021 0.000000
vt 0.113402 0.000000
vt 0.123711 0.000000
vt 0.103093 0.000000
vt 0.092784 0.000000
vt 0.144330 0.000000
vt 0.082474 0.000000
vt 0.072165 0.000000
vt 0.061856 0.000000
vt 0.154639 0.000000
vt 0.051546 0.000000
vt 0.041237 0.000000
vt 0.030928 0.000000
vt 0.164948 0.000000
vt 0.020619 0.000000
vt 0.010309 0.000000
vt 0.175258 0.000000
vt 0.896907 0.000000
vt 0.907216 0.000000
vt 0.917526 0.000000
vt 0.927835 0.000000
vt 0.938144 0.000000
vt 0.948454 0.000000
vt 0.958763 0.000000
vt 0.969072 0.000000
vt 0.979381 0.000000
vt 0.989691 0.000000
vt 0.185567 0.000000
vt 0.876289 0.000000
vt 0.886598 0.000000
vt 0.865979 0.000000
vt 0.855670 0.000000
vt 0.845361 0.000000
vt 0.195876 0.000000
vt 0.835052 0.000000
vt 0.824742 0.000000
vt 0.206186 0.000000
vt 0.814433 0.000000
vt 0.804124 0.000000
vt 0.216495 0.000000
vt 0.793814 0.000000
vt 0.226804 0.000000
vt 0.783505 0.000000
vt 0.773196 0.000000
vt 0.237113 0.000000
vt 0.762887 0.000000
vt 0.247423 0.000000
vt 0.752577 0.000000
vt 0.742268 0.000000
vt 0.257732 0.000000
vt 0.731959 0.000000
vt 0.268041 0.000000
vt 0.721649 0.000000
vt 0.278351 0.000000
vt 0.711340 0.000000
vt 0.288660 0.000000
vt 0.701031 0.000000
vt 0.298969 0.000000
vt 0.690722 0.000000
vt 0.515464 0.000000
vt 0.494845 0.000000
vt 0.505155 0.000000
vt 0.680412 0.000000
vt 0.525773 0.000000
vt 0.309278 0.000000
vt 0.536082 0.000000
vt 0.670103 0.000000
vt 0.546392 0.000000
vt 0.556701 0.000000
vt 0.659794 0.000000
vt 0.567010 0.000000
vt 0.319588 0.000000
vt 0.577320 0.000000
vt 0.649485 0.000000
vt 0.587629 0.000000
vt 0.597938 0.000000
vt 0.639175 0.000000
vt 0.608247 0.000000
vt 0.618557 0.000000
vt 0.628866 0.000000
vt 0.329897 0.000000
vt 0.484536 0.000000
vt 0.340206 0.000000
vt 0.474227 0.000000
vt 0.463918 0.000000
vt 0.453608 0.000000
vt 0.350515 0.000000
vt 0.443299 0.000000
vt 0.432990 0.000000
vt 0.422680 0.000000
vt 0.360825 0.000000
vt 0.412371 0.000000
vt 0.402062 0.000000
vt 0.391753 0.000000
vt 0.371134 0.000000
vt 0.381443 0.000000
vt 0.107438 0.000000
vt 0.099174 0.000000
vt 0.082645 0.000000
vt 0.074380 0.000000
vt 0.115702 0.000000
vt 0.066116 0.000000
vt 0.057851 0.000000
vt 0.123967 0.000000
vt 0.049587 0.000000
vt 0.041322 0.000000
vt 0.132231 0.000000
vt 0.033058 0.000000
vt 0.024793 0.000000
vt 0.140496 0.000000
vt 0.016529 0.000000
vt 0.008264 0.000000
vt 0.148760 0.000000
vt 0.933884 0.000000
vt 0.942149 0.000000
vt 0.950413 0.000000
vt 0.958678 0.000000
vt 0.966942 0.000000
vt 0.975207 0.000000
vt 0.983471 0.000000
vt 0.991736 0.000000
vt 0.157025 0.000000
vt 0.917355 0.000000
vt 0.925620 0.000000
vt 0.165289 0.000000
vt 0.900826 0.000000
vt 0.173554 0.000000
vt 0.892562 0.000000
vt 0.884298 0.000000
vt 0.876033 0.000000
vt 0.867769 0.000000
vt 0.859504 0.000000
vt 0.851240 0.000000
vt 0.842975 0.000000
vt 0.834711 0.000000
vt 0.826446 0.000000
vt 0.190083 0.000000
vt 0.809917 0.000000
vt 0.198347 0.000000
vt 0.801653 0.000000
vt 0.793388 0.000000
vt 0.206612 0.000000
vt 0.785124 0.000000
vt 0.776860 0.000000
vt 0.214876 0.000000
vt 0.768595 0.000000
vt 0.223140 0.000000
vt 0.760331 0.000000
vt 0.752066 0.000000
vt 0.231405 0.000000
vt 0.743802 0.000000
vt 0.239669 0.000000
vt 0.735537 0.000000
vt 0.247934 0.000000
vt 0.256198 0.000000
vt 0.719008 0.000000
vt 0.264463 0.000000
vt 0.710744 0.000000
vt 0.280992 0.000000
vt 0.289256 0.000000
vt 0.702479 0.000000
vt 0.297521 0.000000
vt 0.504132 0.000000
vt 0.487603 0.000000
vt 0.495868 0.000000
vt 0.694215 0.000000
vt 0.305785 0.000000
vt 0.479339 0.000000
vt 0.314050 0.000000
vt 0.685950 0.000000
vt 0.471074 0.000000
vt 0.322314 0.000000
vt 0.462810 0.000000
vt 0.330579 0.000000
vt 0.338843 0.000000
vt 0.677686 0.000000
vt 0.347107 0.000000
vt 0.446281 0.000000
vt 0.355372 0.000000
vt 0.438017 0.000000
vt 0.669421 0.000000
vt 0.429752 0.000000
vt 0.371901 0.000000
vt 0.421488 0.000000
vt 0.380165 0.000000
vt 0.413223 0.000000
vt 0.388430 0.000000
vt 0.404959 0.000000
vt 0.661157 0.000000
vt 0.396694 0.000000
vt 0.652893 0.000000
vt 0.512397 0.000000
vt 0.520661 0.000000
vt 0.644628 0.000000
vt 0.528926 0.000000
vt 0.537190 0.000000
vt 0.628099 0.000000
vt 0.553719 0.000000
vt 0.561983 0.000000
vt 0.619835 0.000000
vt 0.570248 0.000000
vt 0.578512 0.000000
vt 0.611570 0.000000
vt 0.586777 0.000000
vt 0.595041 0.000000
vt 0.603306 0.000000
s 0
usemtl マテリアル.004
f 45/1/1 43/2/1 44/3/1
f 46/4/1 43/2/1 45/1/1
f 46/4/1 42/5/1 43/2/1
f 47/6/1 42/5/1 46/4/1
f 48/7/1 42/5/1 47/6/1
f 48/7/1 41/8/1 42/5/1
f 49/9/1 41/8/1 48/7/1
f 3/10/1 1/11/1 2/12/1
f 3/10/1 57/13/1 1/11/1
f 49/9/1 40/14/1 41/8/1
f 50/15/1 40/14/1 49/9/1
f 51/16/1 40/14/1 50/15/1
f 51/16/1 39/17/1 40/14/1
f 52/18/1 39/17/1 51/16/1
f 52/18/1 38/19/1 39/17/1
f 53/20/1 38/19/1 52/18/1
f 54/21/1 38/19/1 53/20/1
f 54/21/1 37/22/1 38/19/1
f 55/23/1 37/22/1 54/21/1
f 56/24/1 37/22/1 55/23/1
f 56/24/1 17/25/1 37/22/1
f 17/25/1 36/26/1 37/22/1
f 3/10/1 56/24/1 57/13/1
f 3/10/1 5/27/1 56/24/1
f 5/27/1 6/28/1 56/24/1
f 6/28/1 7/29/1 56/24/1
f 7/29/1 8/30/1 56/24/1
f 8/30/1 9/31/1 56/24/1
f 9/31/1 10/32/1 56/24/1
f 10/32/1 11/33/1 56/24/1
f 11/33/1 12/34/1 56/24/1
f 12/34/1 13/35/1 56/24/1
f 13/35/1 14/36/1 56/24/1
f 14/36/1 15/37/1 56/24/1
f 15/37/1 16/38/1 56/24/1
f 16/38/1 17/25/1 56/24/1
f 18/39/1 36/26/1 17/25/1
f 19/40/1 36/26/1 18/39/1
f 20/41/1 36/26/1 19/40/1
f 21/42/1 36/26/1 20/41/1
f 21/42/1 35/43/1 36/26/1
f 22/44/1 35/43/1 21/42/1
f 23/45/1 35/43/1 22/44/1
f 24/46/1 35/43/1 23/45/1
f 24/46/1 34/47/1 35/43/1
f 25/48/1 34/47/1 24/46/1
f 26/49/1 34/47/1 25/48/1
f 26/49/1 33/50/1 34/47/1
f 27/51/1 33/50/1 26/49/1
f 3/10/1 4/52/1 5/27/1
f 28/53/1 33/50/1 27/51/1
f 28/53/1 32/54/1 33/50/1
f 29/55/1 32/54/1 28/53/1
f 30/56/1 32/54/1 29/55/1
f 30/56/1 31/57/1 32/54/1
f 59/58/1 105/59/1 58/11/1
f 59/58/1 104/60/1 105/59/1
f 60/61/1 104/60/1 59/58/1
f 60/61/1 103/62/1 104/60/1
f 61/63/1 103/62/1 60/61/1
f 61/63/1 102/64/1 103/62/1
f 62/65/1 102/64/1 61/63/1
f 62/65/1 101/66/1 102/64/1
f 63/67/1 101/66/1 62/65/1
f 63/67/1 100/68/1 101/66/1
f 64/69/1 100/68/1 63/67/1
f 64/69/1 99/70/1 100/68/1
f 65/71/1 106/72/1 64/69/1
f 106/72/1 99/70/1 64/69/1
f 65/71/1 153/13/1 106/72/1
f 107/73/1 99/70/1 106/72/1
f 65/71/1 152/74/1 153/13/1
f 108/75/1 99/70/1 107/73/1
f 65/71/1 151/76/1 152/74/1
f 109/77/1 99/70/1 108/75/1
f 109/77/1 98/78/1 99/70/1
f 66/79/1 151/76/1 65/71/1
f 66/79/1 150/80/1 151/76/1
f 110/81/1 98/78/1 109/77/1
f 66/79/1 149/82/1 150/80/1
f 111/83/1 98/78/1 110/81/1
f 66/79/1 148/84/1 149/82/1
f 112/85/1 98/78/1 111/83/1
f 112/85/1 97/86/1 98/78/1
f 67/87/1 148/84/1 66/79/1
f 67/87/1 147/88/1 148/84/1
f 113/89/1 97/86/1 112/85/1
f 67/87/1 146/90/1 147/88/1
f 114/91/1 97/86/1 113/89/1
f 114/91/1 96/92/1 97/86/1
f 68/93/1 146/90/1 67/87/1
f 68/93/1 145/94/1 146/90/1
f 115/95/1 96/92/1 114/91/1
f 115/95/1 95/96/1 96/92/1
f 69/97/1 145/94/1 68/93/1
f 69/97/1 144/98/1 145/94/1
f 116/99/1 95/96/1 115/95/1
f 69/97/1 143/100/1 144/98/1
f 117/101/1 95/96/1 116/99/1
f 117/101/1 94/102/1 95/96/1
f 70/103/1 143/100/1 69/97/1
f 70/103/1 142/104/1 143/100/1
f 118/105/1 94/102/1 117/101/1
f 71/106/1 142/104/1 70/103/1
f 71/106/1 141/107/1 142/104/1
f 118/105/1 93/108/1 94/102/1
f 119/109/1 93/108/1 118/105/1
f 71/106/1 140/110/1 141/107/1
f 120/111/1 93/108/1 119/109/1
f 72/112/1 140/110/1 71/106/1
f 120/111/1 92/113/1 93/108/1
f 72/112/1 139/114/1 140/110/1
f 121/115/1 92/113/1 120/111/1
f 72/112/1 138/116/1 139/114/1
f 73/117/1 138/116/1 72/112/1
f 122/118/1 92/113/1 121/115/1
f 122/118/1 91/119/1 92/113/1
f 73/117/1 137/120/1 138/116/1
f 123/121/1 91/119/1 122/118/1
f 74/122/1 137/120/1 73/117/1
f 123/121/1 90/123/1 91/119/1
f 74/122/1 136/124/1 137/120/1
f 124/125/1 90/123/1 123/121/1
f 74/122/1 135/126/1 136/124/1
f 125/127/1 90/123/1 124/125/1
f 75/128/1 135/126/1 74/122/1
f 125/127/1 89/129/1 90/123/1
f 75/128/1 134/130/1 135/126/1
f 126/131/1 89/129/1 125/127/1
f 75/128/1 133/132/1 134/130/1
f 127/133/1 89/129/1 126/131/1
f 75/128/1 132/134/1 133/132/1
f 128/135/1 89/129/1 127/133/1
f 76/136/1 132/134/1 75/128/1
f 128/135/1 88/137/1 89/129/1
f 76/136/1 131/138/1 132/134/1
f 129/139/1 88/137/1 128/135/1
f 76/136/1 130/140/1 131/138/1
f 130/140/1 88/137/1 129/139/1
f 76/136/1 88/137/1 130/140/1
f 77/141/1 88/137/1 76/136/1
f 77/141/1 87/142/1 88/137/1
f 78/143/1 87/142/1 77/141/1
f 78/143/1 86/144/1 87/142/1
f 79/145/1 86/144/1 78/143/1
f 79/145/1 85/146/1 86/144/1
f 80/147/1 85/146/1 79/145/1
f 80/147/1 84/148/1 85/146/1
f 81/149/1 84/148/1 80/147/1
f 81/149/1 83/150/1 84/148/1
f 82/151/1 83/150/1 81/149/1
f 204/152/1 202/153/1 203/154/1
f 204/152/1 205/13/1 202/153/1
f 167/155/1 165/156/1 166/157/1
f 167/155/1 164/158/1 165/156/1
f 168/159/1 164/158/1 167/155/1
f 168/159/1 163/160/1 164/158/1
f 169/161/1 163/160/1 168/159/1
f 169/161/1 162/162/1 163/160/1
f 170/163/1 162/162/1 169/161/1
f 170/163/1 161/164/1 162/162/1
f 171/165/1 161/164/1 170/163/1
f 171/165/1 160/166/1 161/164/1
f 172/167/1 160/166/1 171/165/1
f 172/167/1 159/168/1 160/166/1
f 173/169/1 159/168/1 172/167/1
f 173/169/1 158/170/1 159/168/1
f 174/171/1 158/170/1 173/169/1
f 174/171/1 157/172/1 158/170/1
f 175/173/1 157/172/1 174/171/1
f 175/173/1 156/174/1 157/172/1
f 176/175/1 156/174/1 175/173/1
f 176/175/1 155/176/1 156/174/1
f 177/177/1 155/176/1 176/175/1
f 177/177/1 154/11/1 155/176/1
f 178/178/1 154/11/1 177/177/1
f 179/179/1 154/11/1 178/178/1
f 179/179/1 201/180/1 154/11/1
f 179/179/1 200/181/1 201/180/1
f 180/182/1 200/181/1 179/179/1
f 180/182/1 199/183/1 200/181/1
f 181/184/1 199/183/1 180/182/1
f 181/184/1 198/185/1 199/183/1
f 182/186/1 198/185/1 181/184/1
f 182/186/1 197/187/1 198/185/1
f 183/188/1 197/187/1 182/186/1
f 183/188/1 196/189/1 197/187/1
f 184/190/1 196/189/1 183/188/1
f 184/190/1 195/191/1 196/189/1
f 185/192/1 195/191/1 184/190/1
f 185/192/1 194/193/1 195/191/1
f 186/194/1 194/193/1 185/192/1
f 186/194/1 193/195/1 194/193/1
f 187/196/1 193/195/1 186/194/1
f 187/196/1 192/197/1 193/195/1
f 188/198/1 192/197/1 187/196/1
f 188/198/1 191/199/1 192/197/1
f 189/200/1 191/199/1 188/198/1
f 189/200/1 190/201/1 191/199/1
f 207/202/1 263/13/1 206/11/1
f 207/202/1 262/203/1 263/13/1
f 207/202/1 261/204/1 262/203/1
f 208/205/1 261/204/1 207/202/1
f 209/67/1 261/204/1 208/205/1
f 210/206/1 260/84/1 209/67/1
f 260/84/1 261/204/1 209/67/1
f 210/206/1 259/207/1 260/84/1
f 210/206/1 258/208/1 259/207/1
f 211/209/1 258/208/1 210/206/1
f 211/209/1 257/100/1 258/208/1
f 211/209/1 256/210/1 257/100/1
f 212/93/1 256/210/1 211/209/1
f 212/93/1 255/211/1 256/210/1
f 236/75/1 234/212/1 235/213/1
f 237/214/1 234/212/1 236/75/1
f 212/93/1 254/116/1 255/211/1
f 238/215/1 234/212/1 237/214/1
f 213/216/1 254/116/1 212/93/1
f 213/216/1 253/217/1 254/116/1
f 239/89/1 234/212/1 238/215/1
f 240/218/1 234/212/1 239/89/1
f 213/216/1 252/219/1 253/217/1
f 241/220/1 234/212/1 240/218/1
f 213/216/1 251/132/1 252/219/1
f 242/105/1 234/212/1 241/220/1
f 213/216/1 250/221/1 251/132/1
f 243/222/1 234/212/1 242/105/1
f 214/223/1 250/221/1 213/216/1
f 244/198/1 234/212/1 243/222/1
f 214/223/1 249/224/1 250/221/1
f 245/121/1 234/212/1 244/198/1
f 214/223/1 248/135/1 249/224/1
f 246/225/1 234/212/1 245/121/1
f 214/223/1 247/226/1 248/135/1
f 247/226/1 234/212/1 246/225/1
f 214/223/1 234/212/1 247/226/1
f 215/117/1 234/212/1 214/223/1
f 216/227/1 234/212/1 215/117/1
f 217/228/1 234/212/1 216/227/1
f 217/228/1 233/62/1 234/212/1
f 218/143/1 233/62/1 217/228/1
f 218/143/1 232/229/1 233/62/1
f 218/143/1 231/230/1 232/229/1
f 219/231/1 231/230/1 218/143/1
f 219/231/1 230/78/1 231/230/1
f 219/231/1 229/232/1 230/78/1
f 219/231/1 228/233/1 229/232/1
f 220/234/1 228/233/1 219/231/1
f 220/234/1 227/108/1 228/233/1
f 220/234/1 226/235/1 227/108/1
f 221/150/1 226/235/1 220/234/1
f 221/150/1 225/165/1 226/235/1
f 221/150/1 224/137/1 225/165/1
f 222/236/1 224/137/1 221/150/1
f 222/236/1 223/237/1 224/137/1
f 302/238/1 300/239/1 301/240/1
f 303/241/1 300/239/1 302/238/1
f 303/241/1 299/242/1 300/239/1
f 304/243/1 299/242/1 303/241/1
f 305/244/1 299/242/1 304/243/1
f 305/244/1 298/245/1 299/242/1
f 306/246/1 298/245/1 305/244/1
f 306/246/1 297/247/1 298/245/1
f 307/248/1 297/247/1 306/246/1
f 308/249/1 297/247/1 307/248/1
f 308/249/1 296/250/1 297/247/1
f 309/251/1 296/250/1 308/249/1
f 309/251/1 295/252/1 296/250/1
f 310/253/1 295/252/1 309/251/1
f 311/254/1 295/252/1 310/253/1
f 311/254/1 294/255/1 295/252/1
f 312/256/1 294/255/1 311/254/1
f 312/256/1 293/257/1 294/255/1
f 313/258/1 293/257/1 312/256/1
f 314/259/1 315/260/1 313/258/1
f 315/260/1 316/261/1 313/258/1
f 316/261/1 317/262/1 313/258/1
f 317/262/1 318/263/1 313/258/1
f 318/263/1 319/264/1 313/258/1
f 319/264/1 320/265/1 313/258/1
f 320/265/1 321/266/1 313/258/1
f 321/266/1 322/267/1 313/258/1
f 322/267/1 323/268/1 313/258/1
f 323/268/1 324/269/1 313/258/1
f 324/269/1 293/257/1 313/258/1
f 324/269/1 325/270/1 293/257/1
f 325/270/1 326/271/1 293/257/1
f 326/271/1 292/272/1 293/257/1
f 326/271/1 327/273/1 292/272/1
f 327/273/1 291/274/1 292/272/1
f 328/275/1 291/274/1 327/273/1
f 329/276/1 291/274/1 328/275/1
f 330/277/1 291/274/1 329/276/1
f 331/278/1 291/274/1 330/277/1
f 332/279/1 291/274/1 331/278/1
f 332/279/1 290/280/1 291/274/1
f 333/281/1 290/280/1 332/279/1
f 334/282/1 290/280/1 333/281/1
f 335/283/1 290/280/1 334/282/1
f 335/283/1 289/284/1 290/280/1
f 336/285/1 289/284/1 335/283/1
f 337/286/1 289/284/1 336/285/1
f 337/286/1 288/287/1 289/284/1
f 338/288/1 288/287/1 337/286/1
f 339/289/1 288/287/1 338/288/1
f 340/290/1 437/13/1 339/289/1
f 437/13/1 288/287/1 339/289/1
f 341/291/1 437/13/1 340/290/1
f 342/292/1 437/13/1 341/291/1
f 343/293/1 437/13/1 342/292/1
f 344/294/1 437/13/1 343/293/1
f 344/294/1 436/295/1 437/13/1
f 401/296/1 288/287/1 437/13/1
f 344/294/1 435/297/1 436/295/1
f 345/298/1 435/297/1 344/294/1
f 345/298/1 434/299/1 435/297/1
f 346/300/1 434/299/1 345/298/1
f 346/300/1 433/301/1 434/299/1
f 347/302/1 433/301/1 346/300/1
f 347/302/1 432/303/1 433/301/1
f 347/302/1 431/304/1 432/303/1
f 348/305/1 431/304/1 347/302/1
f 348/305/1 430/306/1 431/304/1
f 349/307/1 430/306/1 348/305/1
f 349/307/1 429/308/1 430/306/1
f 349/307/1 428/309/1 429/308/1
f 350/310/1 428/309/1 349/307/1
f 350/310/1 427/311/1 428/309/1
f 350/310/1 426/312/1 427/311/1
f 351/313/1 426/312/1 350/310/1
f 351/313/1 425/314/1 426/312/1
f 352/315/1 425/314/1 351/313/1
f 352/315/1 424/316/1 425/314/1
f 352/315/1 423/317/1 424/316/1
f 353/318/1 423/317/1 352/315/1
f 353/318/1 422/319/1 423/317/1
f 353/318/1 421/320/1 422/319/1
f 402/321/1 288/287/1 401/296/1
f 354/322/1 421/320/1 353/318/1
f 403/323/1 288/287/1 402/321/1
f 354/322/1 420/324/1 421/320/1
f 404/325/1 288/287/1 403/323/1
f 265/326/1 400/327/1 264/11/1
f 404/325/1 287/328/1 288/287/1
f 354/322/1 419/329/1 420/324/1
f 266/330/1 400/327/1 265/326/1
f 405/331/1 287/328/1 404/325/1
f 405/331/1 286/332/1 287/328/1
f 267/333/1 400/327/1 266/330/1
f 355/334/1 419/329/1 354/322/1
f 355/334/1 418/335/1 419/329/1
f 405/331/1 285/336/1 286/332/1
f 406/337/1 285/336/1 405/331/1
f 268/338/1 400/327/1 267/333/1
f 406/337/1 284/339/1 285/336/1
f 407/340/1 284/339/1 406/337/1
f 269/341/1 400/327/1 268/338/1
f 355/334/1 417/342/1 418/335/1
f 407/340/1 283/343/1 284/339/1
f 270/344/1 400/327/1 269/341/1
f 408/345/1 283/343/1 407/340/1
f 408/345/1 282/346/1 283/343/1
f 271/347/1 400/327/1 270/344/1
f 355/334/1 416/348/1 417/342/1
f 408/345/1 281/349/1 282/346/1
f 409/350/1 281/349/1 408/345/1
f 272/351/1 400/327/1 271/347/1
f 409/350/1 280/352/1 281/349/1
f 356/353/1 416/348/1 355/334/1
f 273/354/1 400/327/1 272/351/1
f 356/353/1 415/355/1 416/348/1
f 410/356/1 280/352/1 409/350/1
f 410/356/1 279/357/1 280/352/1
f 274/358/1 400/327/1 273/354/1
f 410/356/1 278/359/1 279/357/1
f 275/360/1 400/327/1 274/358/1
f 411/361/1 278/359/1 410/356/1
f 411/361/1 277/362/1 278/359/1
f 276/363/1 400/327/1 275/360/1
f 411/361/1 276/363/1 277/362/1
f 356/353/1 414/364/1 415/355/1
f 411/361/1 400/327/1 276/363/1
f 412/365/1 400/327/1 411/361/1
f 356/353/1 413/366/1 414/364/1
f 413/366/1 400/327/1 412/365/1
f 356/353/1 376/367/1 413/366/1
f 376/367/1 400/327/1 413/366/1
f 357/368/1 376/367/1 356/353/1
f 357/368/1 375/369/1 376/367/1
f 377/370/1 400/327/1 376/367/1
f 358/371/1 375/369/1 357/368/1
f 358/371/1 374/372/1 375/369/1
f 378/373/1 400/327/1 377/370/1
f 378/373/1 399/374/1 400/327/1
f 359/375/1 374/372/1 358/371/1
f 359/375/1 373/376/1 374/372/1
f 379/377/1 399/374/1 378/373/1
f 379/377/1 398/378/1 399/374/1
f 359/375/1 372/379/1 373/376/1
f 380/380/1 398/378/1 379/377/1
f 360/381/1 372/379/1 359/375/1
f 380/380/1 397/382/1 398/378/1
f 360/381/1 371/383/1 372/379/1
f 381/384/1 397/382/1 380/380/1
f 381/384/1 396/385/1 397/382/1
f 361/386/1 371/383/1 360/381/1
f 361/386/1 370/387/1 371/383/1
f 382/388/1 396/385/1 381/384/1
f 382/388/1 395/389/1 396/385/1
f 361/386/1 369/390/1 370/387/1
f 383/391/1 395/389/1 382/388/1
f 383/391/1 394/392/1 395/389/1
f 362/393/1 369/390/1 361/386/1
f 362/393/1 368/394/1 369/390/1
f 384/395/1 394/392/1 383/391/1
f 384/395/1 393/396/1 394/392/1
f 362/393/1 367/397/1 368/394/1
f 384/395/1 392/398/1 393/396/1
f 385/399/1 392/398/1 384/395/1
f 363/400/1 367/397/1 362/393/1
f 385/399/1 391/401/1 392/398/1
f 363/400/1 366/402/1 367/397/1
f 386/403/1 391/401/1 385/399/1
f 386/403/1 390/404/1 391/401/1
f 363/400/1 365/405/1 366/402/1
f 387/406/1 390/404/1 386/403/1
f 364/407/1 365/405/1 363/400/1
f 387/406/1 389/408/1 390/404/1
f 388/409/1 389/408/1 387/406/1
f 482/1/1 480/2/1 481/3/1
f 483/4/1 480/2/1 482/1/1
f 483/4/1 479/5/1 480/2/1
f 484/6/1 479/5/1 483/4/1
f 485/7/1 479/5/1 484/6/1
f 485/7/1 478/8/1 479/5/1
f 486/9/1 478/8/1 485/7/1
f 440/10/1 438/11/1 439/12/1
f 440/10/1 494/13/1 438/11/1
f 486/9/1 477/14/1 478/8/1
f 487/15/1 477/14/1 486/9/1
f 488/16/1 477/14/1 487/15/1
f 488/16/1 476/17/1 477/14/1
f 489/18/1 476/17/1 488/16/1
f 489/18/1 475/19/1 476/17/1
f 490/20/1 475/19/1 489/18/1
f 491/21/1 475/19/1 490/20/1
f 491/21/1 474/22/1 475/19/1
f 492/23/1 474/22/1 491/21/1
f 493/24/1 474/22/1 492/23/1
f 493/24/1 454/25/1 474/22/1
f 454/25/1 473/26/1 474/22/1
f 440/10/1 493/24/1 494/13/1
f 440/10/1 442/27/1 493/24/1
f 442/27/1 443/28/1 493/24/1
f 443/28/1 444/29/1 493/24/1
f 444/29/1 445/30/1 493/24/1
f 445/30/1 446/31/1 493/24/1
f 446/31/1 447/32/1 493/24/1
f 447/32/1 448/33/1 493/24/1
f 448/33/1 449/34/1 493/24/1
f 449/34/1 450/35/1 493/24/1
f 450/35/1 451/36/1 493/24/1
f 451/36/1 452/37/1 493/24/1
f 452/37/1 453/38/1 493/24/1
f 453/38/1 454/25/1 493/24/1
f 455/39/1 473/26/1 454/25/1
f 456/40/1 473/26/1 455/39/1
f 457/41/1 473/26/1 456/40/1
f 458/42/1 473/26/1 457/41/1
f 458/42/1 472/43/1 473/26/1
f 459/44/1 472/43/1 458/42/1
f 460/45/1 472/43/1 459/44/1
f 461/46/1 472/43/1 460/45/1
f 461/46/1 471/47/1 472/43/1
f 462/48/1 471/47/1 461/46/1
f 463/49/1 471/47/1 462/48/1
f 463/49/1 470/50/1 471/47/1
f 464/51/1 470/50/1 463/49/1
f 440/10/1 441/52/1 442/27/1
f 465/53/1 470/50/1 464/51/1
f 465/53/1 469/54/1 470/50/1
f 466/55/1 469/54/1 465/53/1
f 467/56/1 469/54/1 466/55/1
f 467/56/1 468/57/1 469/54/1
f 533/238/1 531/239/1 532/240/1
f 534/241/1 531/239/1 533/238/1
f 534/241/1 530/242/1 531/239/1
f 535/243/1 530/242/1 534/241/1
f 536/244/1 530/242/1 535/243/1
f 536/244/1 529/245/1 530/242/1
f 537/246/1 529/245/1 536/244/1
f 537/246/1 528/247/1 529/245/1
f 538/248/1 528/247/1 537/246/1
f 539/249/1 528/247/1 538/248/1
f 539/249/1 527/250/1 528/247/1
f 540/251/1 527/250/1 539/249/1
f 540/251/1 526/252/1 527/250/1
f 541/253/1 526/252/1 540/251/1
f 542/254/1 526/252/1 541/253/1
f 542/254/1 525/255/1 526/252/1
f 543/256/1 525/255/1 542/254/1
f 543/256/1 524/257/1 525/255/1
f 544/258/1 524/257/1 543/256/1
f 545/259/1 546/260/1 544/258/1
f 546/260/1 547/261/1 544/258/1
f 547/261/1 548/262/1 544/258/1
f 548/262/1 549/263/1 544/258/1
f 549/263/1 550/264/1 544/258/1
f 550/264/1 551/265/1 544/258/1
f 551/265/1 552/266/1 544/258/1
f 552/266/1 553/267/1 544/258/1
f 553/267/1 554/268/1 544/258/1
f 554/268/1 555/269/1 544/258/1
f 555/269/1 524/257/1 544/258/1
f 555/269/1 556/270/1 524/257/1
f 556/270/1 557/271/1 524/257/1
f 557/271/1 523/272/1 524/257/1
f 557/271/1 558/273/1 523/272/1
f 558/273/1 522/274/1 523/272/1
f 559/275/1 522/274/1 558/273/1
f 560/276/1 522/274/1 559/275/1
f 561/277/1 522/274/1 560/276/1
f 562/278/1 522/274/1 561/277/1
f 563/279/1 522/274/1 562/278/1
f 563/279/1 521/280/1 522/274/1
f 564/281/1 521/280/1 563/279/1
f 565/282/1 521/280/1 564/281/1
f 566/283/1 521/280/1 565/282/1
f 566/283/1 520/284/1 521/280/1
f 567/285/1 520/284/1 566/283/1
f 568/286/1 520/284/1 567/285/1
f 568/286/1 519/287/1 520/284/1
f 569/288/1 519/287/1 568/286/1
f 570/289/1 519/287/1 569/288/1
f 571/290/1 668/13/1 570/289/1
f 668/13/1 519/287/1 570/289/1
f 572/291/1 668/13/1 571/290/1
f 573/292/1 668/13/1 572/291/1
f 574/293/1 668/13/1 573/292/1
f 575/294/1 668/13/1 574/293/1
f 575/294/1 667/295/1 668/13/1
f 632/296/1 519/287/1 668/13/1
f 575/294/1 666/297/1 667/295/1
f 576/298/1 666/297/1 575/294/1
f 576/298/1 665/299/1 666/297/1
f 577/300/1 665/299/1 576/298/1
f 577/300/1 664/301/1 665/299/1
f 578/302/1 664/301/1 577/300/1
f 578/302/1 663/303/1 664/301/1
f 578/302/1 662/304/1 663/303/1
f 579/305/1 662/304/1 578/302/1
f 579/305/1 661/306/1 662/304/1
f 580/307/1 661/306/1 579/305/1
f 580/307/1 660/308/1 661/306/1
f 580/307/1 659/309/1 660/308/1
f 581/310/1 659/309/1 580/307/1
f 581/310/1 658/311/1 659/309/1
f 581/310/1 657/312/1 658/311/1
f 582/313/1 657/312/1 581/310/1
f 582/313/1 656/314/1 657/312/1
f 583/315/1 656/314/1 582/313/1
f 583/315/1 655/316/1 656/314/1
f 583/315/1 654/317/1 655/316/1
f 584/318/1 654/317/1 583/315/1
f 584/318/1 653/319/1 654/317/1
f 584/318/1 652/320/1 653/319/1
f 633/321/1 519/287/1 632/296/1
f 585/322/1 652/320/1 584/318/1
f 634/323/1 519/287/1 633/321/1
f 585/322/1 651/324/1 652/320/1
f 635/325/1 519/287/1 634/323/1
f 496/326/1 631/327/1 495/11/1
f 635/325/1 518/328/1 519/287/1
f 585/322/1 650/329/1 651/324/1
f 497/330/1 631/327/1 496/326/1
f 636/331/1 518/328/1 635/325/1
f 636/331/1 517/332/1 518/328/1
f 498/333/1 631/327/1 497/330/1
f 586/334/1 650/329/1 585/322/1
f 586/334/1 649/335/1 650/329/1
f 636/331/1 516/336/1 517/332/1
f 637/337/1 516/336/1 636/331/1
f 499/338/1 631/327/1 498/333/1
f 637/337/1 515/339/1 516/336/1
f 638/340/1 515/339/1 637/337/1
f 500/341/1 631/327/1 499/338/1
f 586/334/1 648/342/1 649/335/1
f 638/340/1 514/343/1 515/339/1
f 501/344/1 631/327/1 500/341/1
f 639/345/1 514/343/1 638/340/1
f 639/345/1 513/346/1 514/343/1
f 502/347/1 631/327/1 501/344/1
f 586/334/1 647/348/1 648/342/1
f 639/345/1 512/349/1 513/346/1
f 640/350/1 512/349/1 639/345/1
f 503/351/1 631/327/1 502/347/1
f 640/350/1 511/352/1 512/349/1
f 587/353/1 647/348/1 586/334/1
f 504/354/1 631/327/1 503/351/1
f 587/353/1 646/355/1 647/348/1
f 641/356/1 511/352/1 640/350/1
f 641/356/1 510/357/1 511/352/1
f 505/358/1 631/327/1 504/354/1
f 641/356/1 509/359/1 510/357/1
f 506/360/1 631/327/1 505/358/1
f 642/361/1 509/359/1 641/356/1
f 642/361/1 508/362/1 509/359/1
f 507/363/1 631/327/1 506/360/1
f 642/361/1 507/363/1 508/362/1
f 587/353/1 645/364/1 646/355/1
f 642/361/1 631/327/1 507/363/1
f 643/365/1 631/327/1 642/361/1
f 587/353/1 644/366/1 645/364/1
f 644/366/1 631/327/1 643/365/1
f 587/353/1 607/367/1 644/366/1
f 607/367/1 631/327/1 644/366/1
f 588/368/1 607/367/1 587/353/1
f 588/368/1 606/369/1 607/367/1
f 608/370/1 631/327/1 607/367/1
f 589/371/1 606/369/1 588/368/1
f 589/371/1 605/372/1 606/369/1
f 609/373/1 631/327/1 608/370/1
f 609/373/1 630/374/1 631/327/1
f 590/375/1 605/372/1 589/371/1
f 590/375/1 604/376/1 605/372/1
f 610/377/1 630/374/1 609/373/1
f 610/377/1 629/378/1 630/374/1
f 590/375/1 603/379/1 604/376/1
f 611/380/1 629/378/1 610/377/1
f 591/381/1 603/379/1 590/375/1
f 611/380/1 628/382/1 629/378/1
f 591/381/1 602/383/1 603/379/1
f 612/384/1 628/382/1 611/380/1
f 612/384/1 627/385/1 628/382/1
f 592/386/1 602/383/1 591/381/1
f 592/386/1 601/387/1 602/383/1
f 613/388/1 627/385/1 612/384/1
f 613/388/1 626/389/1 627/385/1
f 592/386/1 600/390/1 601/387/1
f 614/391/1 626/389/1 613/388/1
f 614/391/1 625/392/1 626/389/1
f 593/393/1 600/390/1 592/386/1
f 593/393/1 599/394/1 600/390/1
f 615/395/1 625/392/1 614/391/1
f 615/395/1 624/396/1 625/392/1
f 593/393/1 598/397/1 599/394/1
f 615/395/1 623/398/1 624/396/1
f 616/399/1 623/398/1 615/395/1
f 594/400/1 598/397/1 593/393/1
f 616/399/1 622/401/1 623/398/1
f 594/400/1 597/402/1 598/397/1
f 617/403/1 622/401/1 616/399/1
f 617/403/1 621/404/1 622/401/1
f 594/400/1 596/405/1 597/402/1
f 618/406/1 621/404/1 617/403/1
f 595/407/1 596/405/1 594/400/1
f 618/406/1 620/408/1 621/404/1
f 619/409/1 620/408/1 618/406/1
f 671/198/1 669/11/1 670/165/1
f 671/198/1 672/13/1 669/11/1
f 711/410/1 713/411/1 710/412/1
f 713/411/1 709/413/1 710/412/1
f 713/411/1 708/414/1 709/413/1
f 713/411/1 707/415/1 708/414/1
f 713/411/1 706/48/1 707/415/1
f 713/411/1 705/416/1 706/48/1
f 713/411/1 704/417/1 705/416/1
f 713/411/1 703/418/1 704/417/1
f 713/411/1 702/419/1 703/418/1
f 713/411/1 714/420/1 702/419/1
f 714/420/1 715/421/1 702/419/1
f 715/421/1 701/422/1 702/419/1
f 711/410/1 750/13/1 713/411/1
f 716/423/1 701/422/1 715/421/1
f 717/50/1 701/422/1 716/423/1
f 718/424/1 701/422/1 717/50/1
f 719/425/1 701/422/1 718/424/1
f 719/425/1 700/426/1 701/422/1
f 720/427/1 700/426/1 719/425/1
f 721/428/1 700/426/1 720/427/1
f 721/428/1 699/429/1 700/426/1
f 722/430/1 699/429/1 721/428/1
f 723/431/1 699/429/1 722/430/1
f 723/431/1 698/432/1 699/429/1
f 724/433/1 698/432/1 723/431/1
f 725/434/1 698/432/1 724/433/1
f 725/434/1 697/435/1 698/432/1
f 726/436/1 697/435/1 725/434/1
f 727/437/1 697/435/1 726/436/1
f 727/437/1 696/438/1 697/435/1
f 728/8/1 696/438/1 727/437/1
f 728/8/1 695/25/1 696/438/1
f 729/439/1 695/25/1 728/8/1
f 730/440/1 695/25/1 729/439/1
f 730/440/1 694/441/1 695/25/1
f 731/442/1 694/441/1 730/440/1
f 732/443/1 694/441/1 731/442/1
f 732/443/1 693/444/1 694/441/1
f 733/445/1 693/444/1 732/443/1
f 733/445/1 692/446/1 693/444/1
f 734/447/1 692/446/1 733/445/1
f 711/410/1 749/448/1 750/13/1
f 735/449/1 692/446/1 734/447/1
f 711/410/1 748/450/1 749/448/1
f 711/410/1 747/451/1 748/450/1
f 711/410/1 673/11/1 747/451/1
f 673/11/1 746/452/1 747/451/1
f 736/453/1 692/446/1 735/449/1
f 673/11/1 745/454/1 746/452/1
f 673/11/1 744/455/1 745/454/1
f 736/453/1 691/456/1 692/446/1
f 737/457/1 691/456/1 736/453/1
f 673/11/1 743/458/1 744/455/1
f 673/11/1 742/459/1 743/458/1
f 673/11/1 741/460/1 742/459/1
f 738/461/1 691/456/1 737/457/1
f 673/11/1 740/462/1 741/460/1
f 673/11/1 739/9/1 740/462/1
f 673/11/1 738/461/1 739/9/1
f 673/11/1 691/456/1 738/461/1
f 673/11/1 690/463/1 691/456/1
f 673/11/1 689/464/1 690/463/1
f 673/11/1 688/465/1 689/464/1
f 711/410/1 712/466/1 673/11/1
f 674/467/1 688/465/1 673/11/1
f 674/467/1 687/468/1 688/465/1
f 675/469/1 687/468/1 674/467/1
f 676/470/1 687/468/1 675/469/1
f 677/471/1 687/468/1 676/470/1
f 678/472/1 687/468/1 677/471/1
f 678/472/1 686/473/1 687/468/1
f 679/474/1 686/473/1 678/472/1
f 680/475/1 686/473/1 679/474/1
f 681/476/1 686/473/1 680/475/1
f 682/477/1 686/473/1 681/476/1
f 682/477/1 685/478/1 686/473/1
f 683/479/1 685/478/1 682/477/1
f 684/31/1 685/478/1 683/479/1
f 756/414/1 754/441/1 755/422/1
f 756/414/1 753/468/1 754/441/1
f 753/468/1 751/11/1 752/475/1
f 753/468/1 762/13/1 751/11/1
f 756/414/1 762/13/1 753/468/1
f 757/421/1 762/13/1 756/414/1
f 757/421/1 759/439/1 762/13/1
f 759/439/1 761/458/1 762/13/1
f 757/421/1 758/430/1 759/439/1
f 760/453/1 761/458/1 759/439/1
f 765/468/1 773/458/1 764/475/1
f 773/458/1 763/11/1 764/475/1
f 773/458/1 774/13/1 763/11/1
f 765/468/1 772/453/1 773/458/1
f 765/468/1 769/421/1 772/453/1
f 769/421/1 771/439/1 772/453/1
f 769/421/1 770/430/1 771/439/1
f 765/468/1 768/414/1 769/421/1
f 765/468/1 767/422/1 768/414/1
f 765/468/1 766/441/1 767/422/1
f 824/73/1 870/13/1 823/72/1
f 824/73/1 869/74/1 870/13/1
f 825/75/1 869/74/1 824/73/1
f 825/75/1 868/76/1 869/74/1
f 826/77/1 868/76/1 825/75/1
f 826/77/1 867/80/1 868/76/1
f 827/81/1 867/80/1 826/77/1
f 827/81/1 866/82/1 867/80/1
f 828/83/1 866/82/1 827/81/1
f 828/83/1 865/84/1 866/82/1
f 829/85/1 865/84/1 828/83/1
f 829/85/1 864/88/1 865/84/1
f 830/89/1 864/88/1 829/85/1
f 830/89/1 863/90/1 864/88/1
f 831/91/1 863/90/1 830/89/1
f 831/91/1 862/94/1 863/90/1
f 832/95/1 862/94/1 831/91/1
f 832/95/1 861/98/1 862/94/1
f 833/99/1 861/98/1 832/95/1
f 833/99/1 860/100/1 861/98/1
f 834/101/1 860/100/1 833/99/1
f 834/101/1 859/104/1 860/100/1
f 835/105/1 859/104/1 834/101/1
f 836/109/1 859/104/1 835/105/1
f 836/109/1 858/107/1 859/104/1
f 836/109/1 857/110/1 858/107/1
f 837/111/1 857/110/1 836/109/1
f 837/111/1 856/114/1 857/110/1
f 838/115/1 856/114/1 837/111/1
f 838/115/1 855/116/1 856/114/1
f 839/118/1 855/116/1 838/115/1
f 839/118/1 854/120/1 855/116/1
f 840/121/1 854/120/1 839/118/1
f 840/121/1 853/124/1 854/120/1
f 841/125/1 853/124/1 840/121/1
f 841/125/1 852/126/1 853/124/1
f 842/127/1 852/126/1 841/125/1
f 842/127/1 851/130/1 852/126/1
f 843/131/1 851/130/1 842/127/1
f 843/131/1 850/132/1 851/130/1
f 844/133/1 850/132/1 843/131/1
f 844/133/1 849/134/1 850/132/1
f 845/135/1 849/134/1 844/133/1
f 845/135/1 848/138/1 849/134/1
f 846/139/1 848/138/1 845/135/1
f 846/139/1 847/140/1 848/138/1
f 776/58/1 822/59/1 775/11/1
f 777/61/1 822/59/1 776/58/1
f 777/61/1 821/60/1 822/59/1
f 778/63/1 821/60/1 777/61/1
f 778/63/1 820/62/1 821/60/1
f 779/65/1 820/62/1 778/63/1
f 779/65/1 819/64/1 820/62/1
f 780/67/1 819/64/1 779/65/1
f 780/67/1 818/66/1 819/64/1
f 781/69/1 818/66/1 780/67/1
f 781/69/1 817/68/1 818/66/1
f 782/71/1 817/68/1 781/69/1
f 782/71/1 816/70/1 817/68/1
f 783/79/1 816/70/1 782/71/1
f 783/79/1 815/78/1 816/70/1
f 784/87/1 815/78/1 783/79/1
f 784/87/1 814/86/1 815/78/1
f 785/93/1 814/86/1 784/87/1
f 785/93/1 813/92/1 814/86/1
f 786/97/1 813/92/1 785/93/1
f 786/97/1 812/96/1 813/92/1
f 786/97/1 811/102/1 812/96/1
f 787/103/1 811/102/1 786/97/1
f 788/106/1 811/102/1 787/103/1
f 788/106/1 810/108/1 811/102/1
f 789/112/1 810/108/1 788/106/1
f 789/112/1 809/113/1 810/108/1
f 790/117/1 809/113/1 789/112/1
f 790/117/1 808/119/1 809/113/1
f 791/122/1 808/119/1 790/117/1
f 791/122/1 807/123/1 808/119/1
f 792/128/1 807/123/1 791/122/1
f 792/128/1 806/129/1 807/123/1
f 793/136/1 806/129/1 792/128/1
f 793/136/1 805/137/1 806/129/1
f 794/141/1 805/137/1 793/136/1
f 794/141/1 804/142/1 805/137/1
f 795/143/1 804/142/1 794/141/1
f 795/143/1 803/144/1 804/142/1
f 796/145/1 803/144/1 795/143/1
f 796/145/1 802/146/1 803/144/1
f 797/147/1 802/146/1 796/145/1
f 797/147/1 801/148/1 802/146/1
f 798/149/1 801/148/1 797/147/1
f 798/149/1 800/150/1 801/148/1
f 799/151/1 800/150/1 798/149/1
f 884/480/1 882/481/1 883/482/1
f 884/480/1 881/483/1 882/481/1
f 884/480/1 880/484/1 881/483/1
f 885/485/1 880/484/1 884/480/1
f 885/485/1 879/486/1 880/484/1
f 885/485/1 878/487/1 879/486/1
f 885/485/1 877/488/1 878/487/1
f 886/489/1 877/488/1 885/485/1
f 886/489/1 876/490/1 877/488/1
f 886/489/1 875/491/1 876/490/1
f 886/489/1 874/492/1 875/491/1
f 887/493/1 874/492/1 886/489/1
f 887/493/1 873/494/1 874/492/1
f 887/493/1 872/495/1 873/494/1
f 887/493/1 871/11/1 872/495/1
f 888/496/1 871/11/1 887/493/1
f 888/496/1 958/497/1 871/11/1
f 958/497/1 959/498/1 871/11/1
f 959/498/1 960/499/1 871/11/1
f 960/499/1 961/500/1 871/11/1
f 961/500/1 962/501/1 871/11/1
f 962/501/1 963/502/1 871/11/1
f 963/502/1 964/503/1 871/11/1
f 964/503/1 965/504/1 871/11/1
f 965/504/1 966/505/1 871/11/1
f 966/505/1 967/506/1 871/11/1
f 967/506/1 968/13/1 871/11/1
f 889/507/1 956/508/1 888/496/1
f 956/508/1 957/509/1 888/496/1
f 957/509/1 958/497/1 888/496/1
f 889/507/1 955/510/1 956/508/1
f 889/507/1 954/511/1 955/510/1
f 889/507/1 953/512/1 954/511/1
f 890/513/1 953/512/1 889/507/1
f 890/513/1 952/514/1 953/512/1
f 890/513/1 951/515/1 952/514/1
f 891/516/1 951/515/1 890/513/1
f 891/516/1 950/517/1 951/515/1
f 891/516/1 949/518/1 950/517/1
f 892/519/1 949/518/1 891/516/1
f 892/519/1 948/520/1 949/518/1
f 893/521/1 948/520/1 892/519/1
f 893/521/1 947/522/1 948/520/1
f 893/521/1 946/523/1 947/522/1
f 894/524/1 946/523/1 893/521/1
f 894/524/1 945/525/1 946/523/1
f 895/526/1 945/525/1 894/524/1
f 895/526/1 944/527/1 945/525/1
f 895/526/1 943/528/1 944/527/1
f 896/529/1 943/528/1 895/526/1
f 896/529/1 942/530/1 943/528/1
f 897/531/1 942/530/1 896/529/1
f 897/531/1 941/532/1 942/530/1
f 898/533/1 941/532/1 897/531/1
f 898/533/1 940/534/1 941/532/1
f 899/535/1 940/534/1 898/533/1
f 899/535/1 939/536/1 940/534/1
f 900/537/1 939/536/1 899/535/1
f 900/537/1 938/538/1 939/536/1
f 921/539/1 919/540/1 920/541/1
f 900/537/1 937/542/1 938/538/1
f 922/543/1 919/540/1 921/539/1
f 901/544/1 937/542/1 900/537/1
f 923/545/1 919/540/1 922/543/1
f 901/544/1 936/546/1 937/542/1
f 924/547/1 919/540/1 923/545/1
f 925/548/1 919/540/1 924/547/1
f 901/544/1 935/549/1 936/546/1
f 926/550/1 919/540/1 925/548/1
f 902/551/1 935/549/1 901/544/1
f 927/552/1 919/540/1 926/550/1
f 902/551/1 934/553/1 935/549/1
f 928/554/1 919/540/1 927/552/1
f 929/555/1 919/540/1 928/554/1
f 902/551/1 933/556/1 934/553/1
f 930/557/1 919/540/1 929/555/1
f 931/558/1 919/540/1 930/557/1
f 902/551/1 932/559/1 933/556/1
f 932/559/1 919/540/1 931/558/1
f 902/551/1 919/540/1 932/559/1
f 903/560/1 919/540/1 902/551/1
f 903/560/1 918/561/1 919/540/1
f 904/562/1 918/561/1 903/560/1
f 904/562/1 917/563/1 918/561/1
f 904/562/1 916/564/1 917/563/1
f 904/562/1 915/565/1 916/564/1
f 905/566/1 915/565/1 904/562/1
f 905/566/1 914/567/1 915/565/1
f 905/566/1 913/568/1 914/567/1
f 905/566/1 912/569/1 913/568/1
f 906/570/1 912/569/1 905/566/1
f 906/570/1 911/571/1 912/569/1
f 906/570/1 910/572/1 911/571/1
f 906/570/1 909/573/1 910/572/1
f 907/574/1 909/573/1 906/570/1
f 907/574/1 908/575/1 909/573/1
f 982/576/1 980/475/1 981/577/1
f 982/576/1 979/578/1 980/475/1
f 982/576/1 978/579/1 979/578/1
f 983/580/1 978/579/1 982/576/1
f 983/580/1 977/581/1 978/579/1
f 983/580/1 976/582/1 977/581/1
f 984/583/1 976/582/1 983/580/1
f 984/583/1 975/584/1 976/582/1
f 984/583/1 974/585/1 975/584/1
f 985/586/1 974/585/1 984/583/1
f 985/586/1 973/587/1 974/585/1
f 985/586/1 972/588/1 973/587/1
f 986/589/1 972/588/1 985/586/1
f 986/589/1 971/590/1 972/588/1
f 986/589/1 970/591/1 971/590/1
f 987/592/1 970/591/1 986/589/1
f 987/592/1 969/11/1 970/591/1
f 987/592/1 1082/593/1 969/11/1
f 1082/593/1 1083/594/1 969/11/1
f 1083/594/1 1084/595/1 969/11/1
f 1084/595/1 1085/596/1 969/11/1
f 1085/596/1 1086/597/1 969/11/1
f 1086/597/1 1087/598/1 969/11/1
f 1087/598/1 1088/599/1 969/11/1
f 1088/599/1 1089/600/1 969/11/1
f 1089/600/1 1090/13/1 969/11/1
f 988/601/1 1080/602/1 987/592/1
f 1080/602/1 1081/603/1 987/592/1
f 1081/603/1 1082/593/1 987/592/1
f 989/604/1 1078/605/1 988/601/1
f 1078/605/1 1079/458/1 988/601/1
f 1079/458/1 1080/602/1 988/601/1
f 990/606/1 1077/607/1 989/604/1
f 1077/607/1 1078/605/1 989/604/1
f 990/606/1 1076/608/1 1077/607/1
f 990/606/1 1075/609/1 1076/608/1
f 990/606/1 1074/610/1 1075/609/1
f 990/606/1 1073/611/1 1074/610/1
f 990/606/1 1072/612/1 1073/611/1
f 991/468/1 1072/612/1 990/606/1
f 991/468/1 1071/613/1 1072/612/1
f 991/468/1 1070/614/1 1071/613/1
f 991/468/1 1069/615/1 1070/614/1
f 992/616/1 1069/615/1 991/468/1
f 992/616/1 1068/453/1 1069/615/1
f 992/616/1 1067/617/1 1068/453/1
f 993/618/1 1067/617/1 992/616/1
f 993/618/1 1066/619/1 1067/617/1
f 993/618/1 1065/620/1 1066/619/1
f 994/621/1 1065/620/1 993/618/1
f 994/621/1 1064/622/1 1065/620/1
f 994/621/1 1063/623/1 1064/622/1
f 995/624/1 1063/623/1 994/621/1
f 995/624/1 1062/625/1 1063/623/1
f 996/626/1 1062/625/1 995/624/1
f 996/626/1 1061/627/1 1062/625/1
f 996/626/1 1060/628/1 1061/627/1
f 997/629/1 1060/628/1 996/626/1
f 997/629/1 1059/630/1 1060/628/1
f 998/631/1 1059/630/1 997/629/1
f 998/631/1 1058/632/1 1059/630/1
f 999/633/1 1058/632/1 998/631/1
f 999/633/1 1057/439/1 1058/632/1
f 1000/634/1 1057/439/1 999/633/1
f 1000/634/1 1056/635/1 1057/439/1
f 1001/636/1 1056/635/1 1000/634/1
f 1002/441/1 1056/635/1 1001/636/1
f 1002/441/1 1055/637/1 1056/635/1
f 1003/638/1 1055/637/1 1002/441/1
f 1004/639/1 1055/637/1 1003/638/1
f 1004/639/1 1054/640/1 1055/637/1
f 1005/641/1 1054/640/1 1004/639/1
f 1030/642/1 1028/643/1 1029/644/1
f 1005/641/1 1053/645/1 1054/640/1
f 1006/646/1 1053/645/1 1005/641/1
f 1030/642/1 1027/647/1 1028/643/1
f 1007/648/1 1053/645/1 1006/646/1
f 1007/648/1 1052/649/1 1053/645/1
f 1030/642/1 1026/650/1 1027/647/1
f 1008/651/1 1052/649/1 1007/648/1
f 1030/642/1 1025/652/1 1026/650/1
f 1009/653/1 1052/649/1 1008/651/1
f 1010/654/1 1052/649/1 1009/653/1
f 1010/654/1 1051/655/1 1052/649/1
f 1030/642/1 1024/414/1 1025/652/1
f 1011/656/1 1051/655/1 1010/654/1
f 1030/642/1 1023/657/1 1024/414/1
f 1012/658/1 1051/655/1 1011/656/1
f 1030/642/1 1022/659/1 1023/657/1
f 1012/658/1 1050/660/1 1051/655/1
f 1013/422/1 1050/660/1 1012/658/1
f 1030/642/1 1021/661/1 1022/659/1
f 1014/662/1 1050/660/1 1013/422/1
f 1030/642/1 1020/663/1 1021/661/1
f 1015/664/1 1050/660/1 1014/662/1
f 1030/642/1 1019/665/1 1020/663/1
f 1016/666/1 1050/660/1 1015/664/1
f 1030/642/1 1018/667/1 1019/665/1
f 1016/666/1 1049/668/1 1050/660/1
f 1017/669/1 1049/668/1 1016/666/1
f 1030/642/1 1017/669/1 1018/667/1
f 1030/642/1 1049/668/1 1017/669/1
f 1030/642/1 1048/670/1 1049/668/1
f 1031/671/1 1048/670/1 1030/642/1
f 1032/672/1 1048/670/1 1031/671/1
f 1032/672/1 1047/673/1 1048/670/1
f 1033/674/1 1047/673/1 1032/672/1
f 1033/674/1 1046/430/1 1047/673/1
f 1034/675/1 1046/430/1 1033/674/1
f 1035/421/1 1046/430/1 1034/675/1
f 1035/421/1 1045/676/1 1046/430/1
f 1036/677/1 1045/676/1 1035/421/1
f 1037/678/1 1045/676/1 1036/677/1
f 1037/678/1 1044/679/1 1045/676/1
f 1038/680/1 1044/679/1 1037/678/1
f 1039/681/1 1044/679/1 1038/680/1
f 1039/681/1 1043/682/1 1044/679/1
f 1040/683/1 1043/682/1 1039/681/1
f 1041/684/1 1043/682/1 1040/683/1
f 1041/684/1 1042/685/1 1043/682/1
f 1093/468/1 1101/458/1 1092/475/1
f 1101/458/1 1091/11/1 1092/475/1
f 1101/458/1 1102/13/1 1091/11/1
f 1093/468/1 1100/453/1 1101/458/1
f 1093/468/1 1097/421/1 1100/453/1
f 1097/421/1 1099/439/1 1100/453/1
f 1097/421/1 1098/430/1 1099/439/1
f 1093/468/1 1096/414/1 1097/421/1
f 1093/468/1 1095/422/1 1096/414/1
f 1093/468/1 1094/441/1 1095/422/1
