# Blender 4.4.3
# www.blender.org
mtllib block.mtl
o Block_Crate
v 0.488848 0.000000 0.000000
v 0.488848 -0.124370 0.000000
v 0.488848 0.000000 0.124371
v 0.488848 0.124370 -0.000000
v 0.488848 -0.000000 -0.124370
v 0.422235 0.124370 -0.000000
v 0.422235 0.000000 0.124371
v 0.422235 -0.124370 0.000000
v 0.422235 -0.000000 -0.124370
v 0.488848 0.424579 0.424579
v 0.422234 0.424579 0.300208
v 0.488848 0.424578 -0.300208
v 0.488848 0.424578 -0.424578
v 0.488848 0.424579 0.300208
v 0.422235 0.424578 -0.300208
v 0.422234 -0.304056 0.428427
v 0.422234 0.304056 0.428427
v 0.488848 -0.304056 0.428427
v 0.488848 0.424579 0.428427
v 0.488848 -0.428427 0.428427
v 0.488848 0.304056 0.428427
v 0.488848 0.304056 -0.428426
v 0.422235 -0.304056 -0.428427
v 0.488848 0.424578 -0.428427
v 0.422235 0.304056 -0.428426
v 0.488848 -0.428427 -0.428427
v 0.488848 -0.304056 -0.428427
v 0.488848 -0.442537 0.318166
v 0.422235 -0.442537 -0.318166
v 0.488848 -0.442537 -0.428427
v 0.488848 -0.442537 0.428427
v 0.422234 -0.442537 0.318166
v 0.488848 -0.442537 -0.318166
v -0.488848 0.000000 0.000000
v -0.488848 -0.124370 0.000000
v -0.488848 -0.000000 -0.124371
v -0.488848 0.124370 -0.000000
v -0.488848 0.000000 0.124370
v -0.422235 0.124370 -0.000000
v -0.422235 -0.000000 -0.124371
v -0.422235 -0.124370 0.000000
v -0.422235 0.000000 0.124370
v -0.488848 0.424579 -0.424579
v -0.422234 0.424579 -0.300208
v -0.488848 0.424578 0.300208
v -0.488848 0.424578 0.424578
v -0.488848 0.424579 -0.300208
v -0.422235 0.424578 0.300208
v -0.422234 -0.304056 -0.428427
v -0.422234 0.304056 -0.428427
v -0.488848 -0.304056 -0.428427
v -0.488848 0.424579 -0.428427
v -0.488848 -0.428427 -0.428427
v -0.488848 0.304056 -0.428427
v -0.488848 0.304056 0.428426
v -0.422235 -0.304056 0.428427
v -0.488848 0.424578 0.428427
v -0.422235 0.304056 0.428426
v -0.488848 -0.428427 0.428427
v -0.488848 -0.304056 0.428427
v -0.488848 -0.442537 -0.318166
v -0.422235 -0.442537 0.318166
v -0.488848 -0.442537 0.428427
v -0.488848 -0.442537 -0.428427
v -0.422234 -0.442537 -0.318166
v -0.488848 -0.442537 0.318166
v 0.000000 -0.000000 -0.488848
v 0.000000 -0.124370 -0.488848
v 0.124370 -0.000000 -0.488848
v 0.000000 0.124370 -0.488848
v -0.124370 -0.000000 -0.488848
v 0.000000 0.124370 -0.422235
v 0.124370 -0.000000 -0.422235
v 0.000000 -0.124370 -0.422235
v -0.124370 -0.000000 -0.422235
v 0.424578 0.424579 -0.488848
v 0.300208 0.424579 -0.422235
v -0.300208 0.424578 -0.488848
v -0.424578 0.424578 -0.488848
v 0.300208 0.424579 -0.488848
v -0.300208 0.424578 -0.422235
v 0.428427 -0.304056 -0.422235
v 0.428427 0.304056 -0.422235
v 0.428427 -0.304056 -0.488848
v 0.428427 0.424579 -0.488848
v 0.428427 -0.428427 -0.488848
v 0.428427 0.304056 -0.488848
v -0.428427 0.304056 -0.488848
v -0.428427 -0.304056 -0.422235
v -0.428427 0.424578 -0.488848
v -0.428427 0.304056 -0.422235
v -0.428427 -0.428427 -0.488848
v -0.428427 -0.304056 -0.488848
v 0.318166 -0.442537 -0.488848
v -0.318166 -0.442537 -0.422235
v -0.428427 -0.442537 -0.488848
v 0.428427 -0.442537 -0.488848
v 0.318166 -0.442537 -0.422235
v -0.318166 -0.442537 -0.488848
v 0.000000 0.000000 0.488848
v 0.000000 -0.124370 0.488848
v -0.124370 0.000000 0.488848
v 0.000000 0.124370 0.488848
v 0.124370 0.000000 0.488848
v 0.000000 0.124370 0.422235
v -0.124370 0.000000 0.422235
v 0.000000 -0.124370 0.422235
v 0.124370 0.000000 0.422235
v -0.424578 0.424579 0.488848
v -0.300208 0.424579 0.422235
v 0.300208 0.424578 0.488848
v 0.424578 0.424578 0.488848
v -0.300208 0.424579 0.488848
v 0.300208 0.424578 0.422235
v -0.428427 -0.304056 0.422235
v -0.428427 0.304056 0.422235
v -0.428427 -0.304056 0.488848
v -0.428427 0.424579 0.488848
v -0.428427 -0.428427 0.488848
v -0.428427 0.304056 0.488848
v 0.428427 0.304056 0.488848
v 0.428427 -0.304056 0.422235
v 0.428427 0.424578 0.488848
v 0.428427 0.304056 0.422235
v 0.428427 -0.428427 0.488848
v 0.428427 -0.304056 0.488848
v -0.318166 -0.442537 0.488848
v 0.318166 -0.442537 0.422235
v 0.428427 -0.442537 0.488848
v -0.428427 -0.442537 0.488848
v -0.318166 -0.442537 0.422235
v 0.318166 -0.442537 0.488848
v 0.000000 0.488848 -0.000000
v 0.124370 0.488848 -0.000000
v 0.000000 0.488848 0.124370
v -0.124371 0.488848 -0.000000
v 0.000000 0.488848 -0.124370
v -0.124371 0.422235 -0.000000
v 0.000000 0.422235 0.124370
v 0.124370 0.422235 -0.000000
v 0.000000 0.422235 -0.124370
v -0.424578 0.488848 0.424578
v -0.424579 0.422235 0.300208
v -0.424579 0.488848 -0.300208
v -0.424579 0.488848 -0.424578
v -0.424579 0.488848 0.300208
v -0.424578 0.422235 -0.300208
v 0.304056 0.422235 0.428427
v -0.304056 0.422235 0.428427
v 0.304056 0.488848 0.428427
v -0.424578 0.488848 0.428427
v 0.428427 0.488848 0.428427
v -0.304056 0.488848 0.428427
v -0.304056 0.488848 -0.428427
v 0.304056 0.422235 -0.428427
v -0.424579 0.488848 -0.428427
v -0.304056 0.422235 -0.428427
v 0.428427 0.488848 -0.428427
v 0.304056 0.488848 -0.428427
v 0.442537 0.488848 0.318166
v 0.442536 0.422235 -0.318166
v 0.442536 0.488848 -0.428427
v 0.442537 0.488848 0.428427
v 0.442537 0.422235 0.318166
v 0.442536 0.488848 -0.318166
v 0.000000 -0.488848 0.000000
v 0.124371 -0.488848 0.000000
v 0.000000 -0.488848 -0.124370
v -0.124370 -0.488848 0.000000
v 0.000000 -0.488848 0.124370
v -0.124370 -0.422235 0.000000
v 0.000000 -0.422235 -0.124370
v 0.124371 -0.422235 0.000000
v 0.000000 -0.422235 0.124370
v -0.424578 -0.488848 -0.424578
v -0.424579 -0.422235 -0.300208
v -0.424578 -0.488848 0.300208
v -0.424578 -0.488848 0.424578
v -0.424579 -0.488848 -0.300208
v -0.424578 -0.422235 0.300208
v 0.304056 -0.422235 -0.428427
v -0.304056 -0.422235 -0.428427
v 0.304056 -0.488848 -0.428427
v -0.424578 -0.488848 -0.428427
v 0.428427 -0.488848 -0.428427
v -0.304056 -0.488848 -0.428427
v -0.304056 -0.488848 0.428427
v 0.304056 -0.422235 0.428427
v -0.424578 -0.488848 0.428427
v -0.304056 -0.422235 0.428427
v 0.428427 -0.488848 0.428427
v 0.304056 -0.488848 0.428427
v 0.442537 -0.488848 -0.318166
v 0.442537 -0.422235 0.318166
v 0.442537 -0.488848 0.428427
v 0.442537 -0.488848 -0.428427
v 0.442537 -0.422235 -0.318166
v 0.442537 -0.488848 0.318166
v 0.443613 -0.443613 -0.443613
v 0.443613 0.443613 -0.443613
v 0.443613 -0.443613 0.443613
v 0.443613 0.443613 0.443613
v -0.443613 -0.443613 -0.443613
v -0.443613 0.443613 -0.443613
v -0.443613 -0.443613 0.443613
v -0.443613 0.443613 0.443613
v 0.500000 -0.500000 0.500000
v 0.500000 0.500000 0.500000
v -0.500000 -0.500000 0.500000
v -0.500000 0.500000 0.500000
v 0.500000 -0.500000 -0.500000
v 0.500000 0.500000 -0.500000
v -0.500000 -0.500000 -0.500000
v -0.500000 0.500000 -0.500000
v -0.360000 -0.360000 0.500000
v 0.360000 -0.360000 -0.500000
v -0.450000 -0.360000 -0.360000
v -0.360000 -0.500000 0.360000
v 0.360000 0.500000 0.360000
v 0.500000 -0.360000 0.360000
v -0.500000 -0.360000 -0.360000
v -0.500000 -0.360000 0.360000
v -0.500000 0.360000 0.360000
v -0.500000 0.360000 -0.360000
v -0.360000 0.500000 0.360000
v -0.360000 0.500000 -0.360000
v 0.360000 0.500000 -0.360000
v -0.360000 -0.360000 -0.500000
v -0.360000 0.360000 -0.500000
v 0.360000 0.360000 -0.500000
v 0.360000 -0.500000 0.360000
v -0.360000 -0.500000 -0.360000
v 0.360000 -0.500000 -0.360000
v 0.360000 -0.360000 0.500000
v 0.360000 0.360000 0.500000
v -0.360000 0.360000 0.500000
v 0.500000 -0.360000 -0.360000
v 0.500000 0.360000 -0.360000
v 0.500000 0.360000 0.360000
v -0.450000 -0.360000 0.360000
v -0.450000 0.360000 0.360000
v -0.450000 0.360000 -0.360000
v 0.450000 -0.360000 0.360000
v 0.450000 -0.360000 -0.360000
v 0.450000 0.360000 -0.360000
v 0.450000 0.360000 0.360000
v 0.360000 0.450000 0.360000
v -0.360000 0.450000 0.360000
v -0.360000 0.450000 -0.360000
v 0.360000 0.450000 -0.360000
v -0.360000 -0.450000 0.360000
v 0.360000 -0.450000 0.360000
v -0.360000 -0.450000 -0.360000
v 0.360000 -0.450000 -0.360000
v 0.360000 -0.360000 -0.450000
v -0.360000 -0.360000 -0.450000
v -0.360000 0.360000 -0.450000
v 0.360000 0.360000 -0.450000
v -0.360000 -0.360000 0.450000
v 0.360000 -0.360000 0.450000
v 0.360000 0.360000 0.450000
v -0.360000 0.360000 0.450000
vn 1.0000 -0.0000 -0.0000
vn -0.0000 0.7071 0.7071
vn -0.0000 0.7071 -0.7071
vn -0.0000 -0.7071 -0.7071
vn -0.0000 -0.7071 0.7071
vn -1.0000 -0.0000 -0.0000
vn -0.0000 -0.0000 -1.0000
vn 0.7071 0.7071 -0.0000
vn -0.7071 0.7071 -0.0000
vn -0.7071 -0.7071 -0.0000
vn 0.7071 -0.7071 -0.0000
vn -0.0000 -0.0000 1.0000
vn -0.0000 1.0000 -0.0000
vn -0.7071 -0.0000 0.7071
vn -0.7071 -0.0000 -0.7071
vn 0.7071 -0.0000 -0.7071
vn 0.7071 -0.0000 0.7071
vn -0.0000 -1.0000 -0.0000
vt 0.167619 0.856791
vt 0.204531 0.859867
s 1
usemtl Atlas
f 5/1/1 24/1/1 13/1/1
f 4/1/1 10/1/1 1/1/1
f 1/1/1 18/1/1 20/1/1
f 2/1/1 30/1/1 26/1/1
f 7/1/2 18/1/2 3/1/2
f 6/1/3 14/1/3 4/1/3
f 5/1/4 25/1/4 22/1/4
f 8/1/5 33/1/5 2/1/5
f 13/1/1 4/1/1 1/1/1
f 19/1/1 3/1/1 1/1/1
f 15/1/2 4/1/2 12/1/2
f 31/1/1 2/1/1 1/1/1
f 17/1/5 3/1/5 21/1/5
f 23/1/3 5/1/3 27/1/3
f 27/1/1 1/1/1 26/1/1
f 32/1/4 2/1/4 28/1/4
f 38/1/6 57/1/6 46/1/6
f 37/1/6 43/1/6 34/1/6
f 34/1/6 51/1/6 53/1/6
f 35/1/6 63/1/6 59/1/6
f 40/1/3 51/1/3 36/1/3
f 39/1/2 47/1/2 37/1/2
f 38/1/5 58/1/5 55/1/5
f 41/1/4 66/1/4 35/1/4
f 46/1/6 37/1/6 34/1/6
f 52/1/6 36/1/6 34/1/6
f 48/1/3 37/1/3 45/1/3
f 64/1/6 35/1/6 34/1/6
f 54/1/4 40/1/4 36/1/4
f 56/1/2 38/1/2 60/1/2
f 60/1/6 34/1/6 59/1/6
f 65/1/5 35/1/5 61/1/5
f 71/1/7 90/1/7 79/1/7
f 70/1/7 76/1/7 67/1/7
f 67/1/7 84/1/7 86/1/7
f 68/1/7 96/1/7 92/1/7
f 73/1/8 84/1/8 69/1/8
f 72/1/9 80/1/9 70/1/9
f 75/1/10 88/1/10 71/1/10
f 74/1/11 99/1/11 68/1/11
f 78/1/7 67/1/7 79/1/7
f 85/1/7 69/1/7 67/1/7
f 81/1/8 70/1/8 78/1/8
f 97/1/7 68/1/7 67/1/7
f 83/1/11 69/1/11 87/1/11
f 89/1/9 71/1/9 93/1/9
f 92/1/7 71/1/7 67/1/7
f 98/1/10 68/1/10 94/1/10
f 104/1/12 123/1/12 112/1/12
f 103/1/12 109/1/12 100/1/12
f 100/1/12 117/1/12 119/1/12
f 101/1/12 129/1/12 125/1/12
f 106/1/9 117/1/9 102/1/9
f 105/1/8 113/1/8 103/1/8
f 108/1/11 121/1/11 104/1/11
f 107/1/10 132/1/10 101/1/10
f 111/1/12 100/1/12 112/1/12
f 118/1/12 102/1/12 100/1/12
f 114/1/9 103/1/9 111/1/9
f 130/1/12 101/1/12 100/1/12
f 116/1/10 102/1/10 120/1/10
f 122/1/8 104/1/8 126/1/8
f 126/1/12 100/1/12 125/1/12
f 127/1/11 107/1/11 101/1/11
f 137/1/13 156/1/13 145/1/13
f 136/1/13 142/1/13 133/1/13
f 133/1/13 150/1/13 152/1/13
f 134/1/13 162/1/13 158/1/13
f 135/1/14 148/1/14 150/1/14
f 138/1/15 146/1/15 136/1/15
f 141/1/16 154/1/16 137/1/16
f 140/1/17 165/1/17 134/1/17
f 144/1/13 133/1/13 145/1/13
f 151/1/13 135/1/13 133/1/13
f 147/1/14 136/1/14 144/1/14
f 163/1/13 134/1/13 133/1/13
f 149/1/17 135/1/17 153/1/17
f 155/1/15 137/1/15 159/1/15
f 159/1/13 133/1/13 158/1/13
f 164/1/16 134/1/16 160/1/16
f 170/1/18 189/1/18 178/1/18
f 169/1/18 175/1/18 166/1/18
f 168/1/18 185/1/18 166/1/18
f 167/1/18 195/1/18 191/1/18
f 172/1/15 183/1/15 168/1/15
f 171/1/14 179/1/14 169/1/14
f 170/1/17 190/1/17 187/1/17
f 167/1/16 194/1/16 198/1/16
f 178/1/18 169/1/18 166/1/18
f 184/1/18 168/1/18 166/1/18
f 180/1/15 169/1/15 177/1/15
f 196/1/18 167/1/18 166/1/18
f 186/1/16 172/1/16 168/1/16
f 188/1/14 170/1/14 192/1/14
f 192/1/18 166/1/18 191/1/18
f 193/1/17 173/1/17 167/1/17
f 200/2/1 201/2/1 199/2/1
f 202/2/12 205/2/12 201/2/12
f 206/2/6 203/2/6 205/2/6
f 204/2/7 199/2/7 203/2/7
f 205/2/18 199/2/18 201/2/18
f 202/2/13 204/2/13 206/2/13
f 211/1/18 232/1/18 213/1/18
f 207/1/18 233/1/18 211/1/18
f 209/1/18 231/1/18 207/1/18
f 213/1/18 218/1/18 209/1/18
f 210/1/13 219/1/13 225/1/13
f 210/1/13 226/1/13 214/1/13
f 212/1/13 226/1/13 227/1/13
f 212/1/13 219/1/13 208/1/13
f 211/1/1 220/1/1 207/1/1
f 207/1/1 239/1/1 208/1/1
f 208/1/1 238/1/1 212/1/1
f 212/1/1 237/1/1 211/1/1
f 213/1/7 216/1/7 211/1/7
f 214/1/7 228/1/7 213/1/7
f 212/1/7 229/1/7 214/1/7
f 211/1/7 230/1/7 212/1/7
f 213/1/6 224/1/6 214/1/6
f 214/1/6 223/1/6 210/1/6
f 210/1/6 222/1/6 209/1/6
f 209/1/6 221/1/6 213/1/6
f 208/1/12 234/1/12 207/1/12
f 210/1/12 235/1/12 208/1/12
f 209/1/12 236/1/12 210/1/12
f 207/1/12 215/1/12 209/1/12
f 224/1/18 241/1/18 223/1/18
f 221/1/12 242/1/12 224/1/12
f 237/1/13 243/1/13 220/1/13
f 220/1/7 246/1/7 239/1/7
f 232/1/1 251/1/1 218/1/1
f 231/1/6 254/1/6 233/1/6
f 225/1/1 249/1/1 226/1/1
f 227/1/6 247/1/6 219/1/6
f 235/1/6 260/1/6 234/1/6
f 228/1/13 255/1/13 216/1/13
f 229/1/1 256/1/1 228/1/1
f 236/1/18 261/1/18 235/1/18
f 218/1/7 252/1/7 231/1/7
f 233/1/12 253/1/12 232/1/12
f 219/1/7 248/1/7 225/1/7
f 226/1/12 250/1/12 227/1/12
f 215/1/1 262/1/1 236/1/1
f 230/1/18 257/1/18 229/1/18
f 216/1/6 258/1/6 230/1/6
f 234/1/13 259/1/13 215/1/13
f 222/1/13 217/1/13 221/1/13
f 223/1/7 240/1/7 222/1/7
f 239/1/18 245/1/18 238/1/18
f 238/1/12 244/1/12 237/1/12
f 13/1/1 1/1/1 5/1/1
f 5/1/1 22/1/1 24/1/1
f 4/1/1 14/1/1 10/1/1
f 1/1/1 3/1/1 18/1/1
f 26/1/1 1/1/1 2/1/1
f 2/1/1 33/1/1 30/1/1
f 7/1/2 16/1/2 18/1/2
f 6/1/3 11/1/3 14/1/3
f 5/1/4 9/1/4 25/1/4
f 8/1/5 29/1/5 33/1/5
f 13/1/1 12/1/1 4/1/1
f 1/1/1 10/1/1 19/1/1
f 19/1/1 21/1/1 3/1/1
f 15/1/2 6/1/2 4/1/2
f 1/1/1 20/1/1 31/1/1
f 31/1/1 28/1/1 2/1/1
f 17/1/5 7/1/5 3/1/5
f 23/1/3 9/1/3 5/1/3
f 27/1/1 5/1/1 1/1/1
f 32/1/4 8/1/4 2/1/4
f 46/1/6 34/1/6 38/1/6
f 38/1/6 55/1/6 57/1/6
f 37/1/6 47/1/6 43/1/6
f 34/1/6 36/1/6 51/1/6
f 59/1/6 34/1/6 35/1/6
f 35/1/6 66/1/6 63/1/6
f 40/1/3 49/1/3 51/1/3
f 39/1/2 44/1/2 47/1/2
f 38/1/5 42/1/5 58/1/5
f 41/1/4 62/1/4 66/1/4
f 46/1/6 45/1/6 37/1/6
f 34/1/6 43/1/6 52/1/6
f 52/1/6 54/1/6 36/1/6
f 48/1/3 39/1/3 37/1/3
f 34/1/6 53/1/6 64/1/6
f 64/1/6 61/1/6 35/1/6
f 54/1/4 50/1/4 40/1/4
f 56/1/2 42/1/2 38/1/2
f 60/1/6 38/1/6 34/1/6
f 65/1/5 41/1/5 35/1/5
f 79/1/7 67/1/7 71/1/7
f 71/1/7 88/1/7 90/1/7
f 70/1/7 80/1/7 76/1/7
f 67/1/7 69/1/7 84/1/7
f 92/1/7 67/1/7 68/1/7
f 68/1/7 99/1/7 96/1/7
f 73/1/8 82/1/8 84/1/8
f 72/1/9 77/1/9 80/1/9
f 75/1/10 91/1/10 88/1/10
f 74/1/11 95/1/11 99/1/11
f 78/1/7 70/1/7 67/1/7
f 67/1/7 76/1/7 85/1/7
f 85/1/7 87/1/7 69/1/7
f 81/1/8 72/1/8 70/1/8
f 67/1/7 86/1/7 97/1/7
f 97/1/7 94/1/7 68/1/7
f 83/1/11 73/1/11 69/1/11
f 89/1/9 75/1/9 71/1/9
f 92/1/7 93/1/7 71/1/7
f 98/1/10 74/1/10 68/1/10
f 112/1/12 100/1/12 104/1/12
f 104/1/12 121/1/12 123/1/12
f 103/1/12 113/1/12 109/1/12
f 100/1/12 102/1/12 117/1/12
f 125/1/12 100/1/12 101/1/12
f 101/1/12 132/1/12 129/1/12
f 106/1/9 115/1/9 117/1/9
f 105/1/8 110/1/8 113/1/8
f 108/1/11 124/1/11 121/1/11
f 107/1/10 128/1/10 132/1/10
f 111/1/12 103/1/12 100/1/12
f 100/1/12 109/1/12 118/1/12
f 118/1/12 120/1/12 102/1/12
f 114/1/9 105/1/9 103/1/9
f 100/1/12 119/1/12 130/1/12
f 130/1/12 127/1/12 101/1/12
f 116/1/10 106/1/10 102/1/10
f 122/1/8 108/1/8 104/1/8
f 126/1/12 104/1/12 100/1/12
f 127/1/11 131/1/11 107/1/11
f 145/1/13 133/1/13 137/1/13
f 137/1/13 154/1/13 156/1/13
f 136/1/13 146/1/13 142/1/13
f 133/1/13 135/1/13 150/1/13
f 158/1/13 133/1/13 134/1/13
f 134/1/13 165/1/13 162/1/13
f 135/1/14 139/1/14 148/1/14
f 138/1/15 143/1/15 146/1/15
f 141/1/16 157/1/16 154/1/16
f 140/1/17 161/1/17 165/1/17
f 144/1/13 136/1/13 133/1/13
f 133/1/13 142/1/13 151/1/13
f 151/1/13 153/1/13 135/1/13
f 147/1/14 138/1/14 136/1/14
f 133/1/13 152/1/13 163/1/13
f 163/1/13 160/1/13 134/1/13
f 149/1/17 139/1/17 135/1/17
f 155/1/15 141/1/15 137/1/15
f 159/1/13 137/1/13 133/1/13
f 164/1/16 140/1/16 134/1/16
f 178/1/18 166/1/18 170/1/18
f 170/1/18 187/1/18 189/1/18
f 169/1/18 179/1/18 175/1/18
f 168/1/18 183/1/18 185/1/18
f 191/1/18 166/1/18 167/1/18
f 167/1/18 198/1/18 195/1/18
f 172/1/15 181/1/15 183/1/15
f 171/1/14 176/1/14 179/1/14
f 170/1/17 174/1/17 190/1/17
f 167/1/16 173/1/16 194/1/16
f 178/1/18 177/1/18 169/1/18
f 166/1/18 175/1/18 184/1/18
f 184/1/18 186/1/18 168/1/18
f 180/1/15 171/1/15 169/1/15
f 166/1/18 185/1/18 196/1/18
f 196/1/18 193/1/18 167/1/18
f 186/1/16 182/1/16 172/1/16
f 188/1/14 174/1/14 170/1/14
f 192/1/18 170/1/18 166/1/18
f 193/1/17 197/1/17 173/1/17
f 200/2/1 202/2/1 201/2/1
f 202/2/12 206/2/12 205/2/12
f 206/2/6 204/2/6 203/2/6
f 204/2/7 200/2/7 199/2/7
f 205/2/18 203/2/18 199/2/18
f 202/2/13 200/2/13 204/2/13
f 211/1/18 233/1/18 232/1/18
f 207/1/18 231/1/18 233/1/18
f 209/1/18 218/1/18 231/1/18
f 213/1/18 232/1/18 218/1/18
f 210/1/13 208/1/13 219/1/13
f 210/1/13 225/1/13 226/1/13
f 212/1/13 214/1/13 226/1/13
f 212/1/13 227/1/13 219/1/13
f 211/1/1 237/1/1 220/1/1
f 207/1/1 220/1/1 239/1/1
f 208/1/1 239/1/1 238/1/1
f 212/1/1 238/1/1 237/1/1
f 213/1/7 228/1/7 216/1/7
f 214/1/7 229/1/7 228/1/7
f 212/1/7 230/1/7 229/1/7
f 211/1/7 216/1/7 230/1/7
f 213/1/6 221/1/6 224/1/6
f 214/1/6 224/1/6 223/1/6
f 210/1/6 223/1/6 222/1/6
f 209/1/6 222/1/6 221/1/6
f 208/1/12 235/1/12 234/1/12
f 210/1/12 236/1/12 235/1/12
f 209/1/12 215/1/12 236/1/12
f 207/1/12 234/1/12 215/1/12
f 224/1/18 242/1/18 241/1/18
f 221/1/12 217/1/12 242/1/12
f 237/1/13 244/1/13 243/1/13
f 220/1/7 243/1/7 246/1/7
f 232/1/1 253/1/1 251/1/1
f 231/1/6 252/1/6 254/1/6
f 225/1/1 248/1/1 249/1/1
f 227/1/6 250/1/6 247/1/6
f 235/1/6 261/1/6 260/1/6
f 228/1/13 256/1/13 255/1/13
f 229/1/1 257/1/1 256/1/1
f 236/1/18 262/1/18 261/1/18
f 218/1/7 251/1/7 252/1/7
f 233/1/12 254/1/12 253/1/12
f 219/1/7 247/1/7 248/1/7
f 226/1/12 249/1/12 250/1/12
f 215/1/1 259/1/1 262/1/1
f 230/1/18 258/1/18 257/1/18
f 216/1/6 255/1/6 258/1/6
f 234/1/13 260/1/13 259/1/13
f 222/1/13 240/1/13 217/1/13
f 223/1/7 241/1/7 240/1/7
f 239/1/18 246/1/18 245/1/18
f 238/1/12 245/1/12 244/1/12
