# Blender 4.4.1
# www.blender.org
mtllib building.mtl
o 立方体
v 0.800000 -0.300000 0.800000
v 0.800000 -0.300000 -0.200000
v -1.000000 -0.500000 1.000000
v 0.800000 0.300000 -0.200000
v 0.800000 0.300000 0.800000
v 0.800000 -0.300000 -0.800000
v -0.800000 -0.300000 0.700000
v 0.800000 0.300000 -0.800000
v 0.800000 -0.300000 0.200000
v 1.000000 -0.300000 -0.200000
v 1.000000 0.300000 -0.200000
v -1.000000 0.000000 0.700000
v -0.800000 0.300000 0.700000
v 1.000000 -0.300000 -0.800000
v 0.800000 0.300000 0.200000
v 1.000000 0.300000 -0.800000
v -1.000000 0.500000 1.000000
v 1.000000 -0.300000 0.800000
v 1.000000 0.300000 0.800000
v -0.800000 -0.300000 -0.700000
v -1.000000 0.300000 0.700000
v 1.000000 -0.300000 0.200000
v -0.800000 0.300000 -0.700000
v 1.000000 0.300000 0.200000
v -1.000000 -0.500000 -1.000000
v -0.600000 -0.300000 0.700000
v -1.000000 0.000000 -0.700000
v -0.600000 0.300000 0.700000
v -1.000000 0.500000 -1.000000
v -0.600000 -0.300000 -0.700000
v -1.000000 0.300000 -0.700000
v -0.600000 0.300000 -0.700000
v 1.000000 -0.500000 1.000000
v -0.600000 0.000000 0.700000
v 1.000000 0.500000 1.000000
v -0.600000 0.300000 0.700000
v 1.000000 -0.500000 -1.000000
v -0.600000 0.000000 -0.700000
v 1.000000 0.500000 -1.000000
v -0.600000 0.300000 -0.700000
v -0.800000 0.000000 0.700000
v -0.700000 0.000000 0.700000
v -0.700000 0.000000 -0.700000
v -0.800000 0.000000 -0.700000
v -0.800000 0.150000 0.700000
v -0.733333 0.100000 0.700000
v -0.680000 0.060000 -0.700000
v -0.800000 0.150000 -0.700000
v -0.690000 0.030000 -0.700000
v -0.640000 0.030000 -0.700000
v -0.600000 0.150000 -0.700000
v -0.700000 0.300000 -0.700000
v -0.750000 0.000000 -0.700000
v 0.950000 -0.135000 0.800000
v 0.965000 -0.300000 0.760000
v 0.965000 -0.300000 0.260000
v 0.965000 -0.300000 0.360000
v 0.965000 -0.300000 0.460000
v 0.965000 -0.300000 0.560000
v 0.965000 -0.300000 0.660000
v 0.950000 -0.115000 0.800000
v 0.950000 -0.135000 0.200000
v 0.965000 -0.300000 0.740000
v 0.965000 -0.300000 0.540000
v 0.965000 -0.300000 0.340000
v 0.965000 -0.300000 0.240000
v 0.965000 -0.300000 0.440000
v 0.965000 -0.300000 0.640000
v 0.950000 -0.115000 0.200000
v 1.000000 -0.135000 0.800000
v 0.985000 -0.300000 0.560000
v 0.985000 -0.300000 0.760000
v 0.985000 -0.300000 0.660000
v 0.985000 -0.300000 0.460000
v 0.985000 -0.300000 0.360000
v 0.985000 -0.300000 0.260000
v 1.000000 -0.115000 0.800000
v 1.000000 -0.135000 0.200000
v 0.985000 -0.300000 0.540000
v 0.985000 -0.300000 0.640000
v 0.985000 -0.300000 0.740000
v 0.985000 -0.300000 0.240000
v 0.985000 -0.300000 0.340000
v 0.985000 -0.300000 0.440000
v 1.000000 -0.115000 0.200000
v 0.965000 -0.135000 0.360000
v 0.965000 -0.135000 0.340000
v 0.965000 -0.135000 0.260000
v 0.965000 -0.135000 0.240000
v 0.980000 -0.135000 0.560000
v 0.970000 -0.135000 0.440000
v 0.966667 -0.135000 0.360000
v 0.985000 -0.135000 0.240000
v 0.985000 -0.135000 0.360000
v 0.985000 -0.135000 0.340000
v 0.985000 -0.135000 0.260000
v 0.985000 -0.135000 0.560000
v 0.985000 -0.135000 0.540000
v 0.985000 -0.135000 0.460000
v 0.985000 -0.135000 0.440000
v 0.965000 -0.135000 0.760000
v 0.965000 -0.135000 0.740000
v 0.965000 -0.135000 0.660000
v 0.965000 -0.135000 0.640000
v 0.965000 -0.135000 0.560000
v 0.965000 -0.135000 0.540000
v 0.965000 -0.135000 0.460000
v 0.965000 -0.135000 0.440000
v 0.985000 -0.135000 0.660000
v 0.985000 -0.135000 0.640000
v 0.985000 -0.135000 0.760000
v 0.985000 -0.135000 0.740000
v 0.983333 -0.135000 0.640000
v 0.950000 -0.135000 -0.200000
v 0.965000 -0.300000 -0.240000
v 0.965000 -0.300000 -0.740000
v 0.965000 -0.300000 -0.640000
v 0.965000 -0.300000 -0.540000
v 0.965000 -0.300000 -0.440000
v 0.965000 -0.300000 -0.340000
v 0.950000 -0.115000 -0.200000
v 0.950000 -0.135000 -0.800000
v 0.965000 -0.300000 -0.260000
v 0.965000 -0.300000 -0.460000
v 0.965000 -0.300000 -0.660000
v 0.965000 -0.300000 -0.760000
v 0.965000 -0.300000 -0.560000
v 0.965000 -0.300000 -0.360000
v 0.950000 -0.115000 -0.800000
v 1.000000 -0.135000 -0.200000
v 0.985000 -0.300000 -0.440000
v 0.985000 -0.300000 -0.240000
v 0.985000 -0.300000 -0.340000
v 0.985000 -0.300000 -0.540000
v 0.985000 -0.300000 -0.640000
v 0.985000 -0.300000 -0.740000
v 1.000000 -0.115000 -0.200000
v 1.000000 -0.135000 -0.800000
v 0.985000 -0.300000 -0.460000
v 0.985000 -0.300000 -0.360000
v 0.985000 -0.300000 -0.260000
v 0.985000 -0.300000 -0.760000
v 0.985000 -0.300000 -0.660000
v 0.985000 -0.300000 -0.560000
v 1.000000 -0.115000 -0.800000
v 0.965000 -0.135000 -0.640000
v 0.965000 -0.135000 -0.660000
v 0.965000 -0.135000 -0.740000
v 0.965000 -0.135000 -0.760000
v 0.980000 -0.135000 -0.440000
v 0.970000 -0.135000 -0.560000
v 0.966667 -0.135000 -0.640000
v 0.985000 -0.135000 -0.760000
v 0.985000 -0.135000 -0.640000
v 0.985000 -0.135000 -0.660000
v 0.985000 -0.135000 -0.740000
v 0.985000 -0.135000 -0.440000
v 0.985000 -0.135000 -0.460000
v 0.985000 -0.135000 -0.540000
v 0.985000 -0.135000 -0.560000
v 0.965000 -0.135000 -0.240000
v 0.965000 -0.135000 -0.260000
v 0.965000 -0.135000 -0.340000
v 0.965000 -0.135000 -0.360000
v 0.965000 -0.135000 -0.440000
v 0.965000 -0.135000 -0.460000
v 0.965000 -0.135000 -0.540000
v 0.965000 -0.135000 -0.560000
v 0.985000 -0.135000 -0.340000
v 0.985000 -0.135000 -0.360000
v 0.985000 -0.135000 -0.240000
v 0.985000 -0.135000 -0.260000
v 0.983333 -0.135000 -0.360000
vn -1.0000 -0.0000 -0.0000
vn -0.0000 -0.0000 -1.0000
vn 1.0000 -0.0000 -0.0000
vn -0.0000 -0.0000 1.0000
vn -0.0000 -1.0000 -0.0000
vn -0.0000 1.0000 -0.0000
vt 0.549154 0.708333
vt 0.549154 0.291667
vt 0.590820 0.354167
vt 0.590820 0.645833
vt 0.520833 0.062500
vt 0.458333 0.062500
vt 0.416667 -0.000000
vt 0.625000 0.000000
vt 0.625000 0.416667
vt 0.416667 0.416667
vt 0.458333 0.354167
vt 0.520833 0.354167
vt 0.833333 0.416667
vt 0.625000 0.416667
vt 0.625000 -0.000000
vt 0.833333 0.000000
vt 0.635091 0.875000
vt 0.635091 0.750000
vt 0.676758 0.708333
vt 0.676758 0.916667
vt 0.250000 0.833333
vt 0.333333 0.833333
vt 0.333333 0.958333
vt 0.250000 0.958333
vt 0.583333 0.666667
vt 0.583333 0.583333
vt 0.583333 0.458333
vt 0.625000 0.416667
vt 0.625000 0.833333
vt 0.416667 0.833333
vt 0.416667 0.416667
vt 0.458333 0.458333
vt 0.458333 0.583333
vt 0.458333 0.666667
vt 0.458333 0.791667
vt 0.583333 0.791667
vt 0.833333 0.833333
vt 0.625000 0.833333
vt 0.625000 0.416667
vt 0.833333 0.416667
vt 0.416667 0.000000
vt 0.416667 0.416667
vt 0.000000 0.416667
vt 0.000000 0.000000
vt 0.416667 0.416667
vt 0.416667 0.833333
vt 0.000000 0.833333
vt 0.000000 0.416667
vt 0.750000 0.833333
vt 0.791667 0.833333
vt 0.791667 0.895833
vt 0.750000 0.895833
vt 0.750000 0.864583
vt 0.462819 0.885417
vt 0.462819 0.864583
vt 0.469069 0.872917
vt 0.475319 0.881250
vt 0.469069 0.883333
vt 0.333724 0.883333
vt 0.325391 0.889583
vt 0.317057 0.895833
vt 0.317057 0.864583
vt 0.317057 0.833333
vt 0.337891 0.833333
vt 0.358724 0.833333
vt 0.358724 0.864583
vt 0.358724 0.895833
vt 0.348307 0.895833
vt 0.337891 0.895833
vt 0.335807 0.889583
vt 0.277344 0.906250
vt 0.277344 0.937500
vt 0.235677 0.937500
vt 0.235677 0.875000
vt 0.277344 0.875000
vt 0.705295 0.937500
vt 0.691406 0.927083
vt 0.691406 0.895833
vt 0.733073 0.895833
vt 0.733073 0.958333
vt 0.712240 0.958333
vt 0.513265 0.833333
vt 0.527154 0.843750
vt 0.534098 0.864583
vt 0.513265 0.864583
vt 0.937500 0.583333
vt 0.937500 0.291667
vt 0.979167 0.291667
vt 0.979167 0.583333
vt 0.937500 0.583333
vt 0.979167 0.583333
vt 0.979167 0.875000
vt 0.937500 0.875000
vt 1.000000 0.291667
vt 0.979167 0.291667
vt 0.958333 0.291667
vt 0.958333 0.000000
vt 1.000000 0.000000
vt 0.833333 0.291667
vt 0.895833 0.291667
vt 0.895833 0.583333
vt 0.833333 0.583333
vt 0.375000 0.895833
vt 0.375000 0.958333
vt 0.333333 0.958333
vt 0.333333 0.833333
vt 0.333333 0.864583
vt 0.333333 0.895833
vt 0.354167 0.895833
vt 0.364583 0.895833
vt 0.139974 0.291667
vt 0.139974 0.000000
vt 0.264974 0.000000
vt 0.264974 0.291667
vt 0.416667 0.833333
vt 0.416667 0.958333
vt 0.375000 0.958333
vt 0.375000 0.895833
vt 0.395833 0.895833
vt 0.416667 0.895833
vt 0.833333 0.875000
vt 0.875000 0.583333
vt 0.875000 0.875000
vt 0.625000 0.708333
vt 0.625000 0.416667
vt 0.125000 0.833333
vt 0.125000 0.958333
vt -0.000000 0.958333
vt -0.000000 0.833333
vt 0.458333 0.833333
vt 0.458333 0.958333
vt 0.416667 0.958333
vt 0.416667 0.833333
vt 0.458333 0.833333
vt 0.500000 0.833333
vt 0.500000 0.958333
vt 0.458333 0.958333
vt 0.541667 0.833333
vt 0.541667 0.958333
vt 0.583333 0.833333
vt 0.583333 0.958333
vt 0.250000 0.833333
vt 0.250000 0.958333
vt 0.125000 0.958333
vt 0.125000 0.833333
vt 0.625000 0.833333
vt 0.625000 0.958333
vt 0.666667 0.833333
vt 0.666667 0.958333
vt 0.625000 0.958333
vt 0.666667 0.958333
vt 0.666667 0.833333
vt 0.708333 0.833333
vt 0.708333 0.958333
vt 0.750000 0.958333
vt 0.983333 0.666667
vt 0.979167 0.666667
vt 0.979167 0.541667
vt 0.983333 0.541667
vt 0.873611 0.947917
vt 0.869445 0.947917
vt 0.869445 0.937500
vt 0.873611 0.937500
vt 0.983333 0.416667
vt 0.979167 0.416667
vt 0.979167 0.291667
vt 0.983333 0.291667
vt 0.825000 0.951042
vt 0.820833 0.951042
vt 0.820833 0.940625
vt 0.825000 0.940625
vt 0.891667 0.933333
vt 0.895833 0.933333
vt 0.895833 0.950000
vt 0.891667 0.950000
vt 0.833333 0.954167
vt 0.833333 0.937500
vt 0.837500 0.937500
vt 0.837500 0.954167
vt 0.833333 0.930208
vt 0.833333 0.940625
vt 0.825000 0.937500
vt 0.825000 0.933333
vt 0.860764 0.937500
vt 0.861458 0.954167
vt 0.857639 0.954167
vt 0.857639 0.937500
vt 0.837500 0.954167
vt 0.837500 0.937500
vt 0.841667 0.937500
vt 0.841667 0.954167
vt 0.878472 0.616667
vt 0.879167 0.633333
vt 0.878125 0.633333
vt 0.878125 0.637500
vt 0.878125 0.654167
vt 0.878125 0.658333
vt 0.878125 0.675000
vt 0.878125 0.679167
vt 0.878125 0.695833
vt 0.878125 0.700000
vt 0.875000 0.708333
vt 0.875000 0.583333
vt 0.885417 0.583333
vt 0.885417 0.708333
vt 0.882292 0.700000
vt 0.882292 0.695833
vt 0.882292 0.679167
vt 0.882292 0.675000
vt 0.881945 0.675000
vt 0.881250 0.658333
vt 0.882292 0.658333
vt 0.882292 0.654167
vt 0.882292 0.637500
vt 0.882292 0.633333
vt 0.882292 0.616667
vt 0.882292 0.612500
vt 0.882292 0.595833
vt 0.882292 0.591667
vt 0.878125 0.591667
vt 0.878125 0.595833
vt 0.878125 0.612500
vt 0.878125 0.616667
vt 0.850695 0.954167
vt 0.850000 0.937500
vt 0.853820 0.937500
vt 0.853820 0.954167
vt 0.885417 0.833333
vt 0.875000 0.833333
vt 0.875000 0.708333
vt 0.885417 0.708333
vt 0.945834 0.943750
vt 0.941667 0.943750
vt 0.941667 0.909375
vt 0.945834 0.909375
vt 0.950000 0.909375
vt 0.945834 0.909375
vt 0.945834 0.875000
vt 0.950000 0.875000
vt 0.950000 0.909375
vt 0.950000 0.943750
vt 0.900000 0.916667
vt 0.900000 0.951042
vt 0.895833 0.951042
vt 0.895833 0.916667
vt 0.896875 0.916667
vt 0.873611 0.947917
vt 0.873611 0.952083
vt 0.869445 0.952083
vt 0.869445 0.947917
vt 0.904167 0.951042
vt 0.900000 0.951042
vt 0.900000 0.916667
vt 0.904167 0.916667
vt 0.908333 0.951042
vt 0.904167 0.951042
vt 0.904167 0.916667
vt 0.908333 0.916667
vt 0.912500 0.916667
vt 0.912500 0.951042
vt 0.908333 0.951042
vt 0.908333 0.916667
vt 0.891667 0.898958
vt 0.891667 0.933333
vt 0.887500 0.933333
vt 0.887500 0.898958
vt 0.950000 0.947917
vt 0.950000 0.952083
vt 0.945834 0.952083
vt 0.945834 0.947917
vt 0.891667 0.898958
vt 0.887500 0.898958
vt 0.887500 0.864583
vt 0.891667 0.864583
vt 0.916667 0.951042
vt 0.912500 0.951042
vt 0.912500 0.916667
vt 0.916319 0.916667
vt 0.916667 0.916667
vt 0.895833 0.864583
vt 0.895833 0.898958
vt 0.891667 0.898958
vt 0.891667 0.864583
vt 0.920833 0.916667
vt 0.920833 0.951042
vt 0.916667 0.951042
vt 0.916667 0.916667
vt 0.829167 0.944792
vt 0.825000 0.944792
vt 0.825000 0.940625
vt 0.829167 0.940625
vt 0.808333 0.930208
vt 0.804167 0.930208
vt 0.804167 0.895833
vt 0.808333 0.895833
vt 0.925000 0.951042
vt 0.920833 0.951042
vt 0.920833 0.916667
vt 0.921875 0.916667
vt 0.925000 0.916667
vt 0.812500 0.895833
vt 0.812500 0.930208
vt 0.808333 0.930208
vt 0.808333 0.895833
vt 0.929167 0.916667
vt 0.929167 0.951042
vt 0.925000 0.951042
vt 0.925000 0.916667
vt 0.833333 0.948958
vt 0.829167 0.948958
vt 0.829167 0.944792
vt 0.833333 0.944792
vt 0.879167 0.919792
vt 0.875000 0.919792
vt 0.875000 0.885417
vt 0.879167 0.885417
vt 0.933333 0.951042
vt 0.929167 0.951042
vt 0.929167 0.916667
vt 0.933333 0.916667
vt 0.887500 0.885417
vt 0.887500 0.919792
vt 0.883334 0.919792
vt 0.883334 0.885417
vt 0.937500 0.916667
vt 0.937500 0.951042
vt 0.933333 0.951042
vt 0.933333 0.916667
vt 0.937153 0.916667
vt 0.829167 0.940625
vt 0.833333 0.940625
vt 0.816667 0.930208
vt 0.816667 0.895833
vt 0.879167 0.954167
vt 0.875000 0.954167
vt 0.875000 0.919792
vt 0.879167 0.919792
vt 0.820833 0.895833
vt 0.820833 0.930208
vt 0.816667 0.930208
vt 0.816667 0.895833
vt 0.887500 0.919792
vt 0.887500 0.954167
vt 0.883334 0.954167
vt 0.829167 0.948958
vt 0.825000 0.948958
vt 0.825000 0.944792
vt 0.983333 0.541667
vt 0.979167 0.541667
vt 0.979167 0.416667
vt 0.983333 0.416667
vt 0.820833 0.951042
vt 0.816667 0.951042
vt 0.816667 0.940625
vt 0.820833 0.940625
vt 0.983333 0.791667
vt 0.979167 0.791667
vt 0.869445 0.947917
vt 0.865278 0.947917
vt 0.865278 0.937500
vt 0.869445 0.937500
vt 0.891667 0.950000
vt 0.887500 0.950000
vt 0.841667 0.954167
vt 0.841667 0.937500
vt 0.845833 0.937500
vt 0.845833 0.954167
vt 0.825000 0.930208
vt 0.825000 0.940625
vt 0.816667 0.937500
vt 0.816667 0.933333
vt 0.856945 0.937500
vt 0.853820 0.954167
vt 0.853820 0.937500
vt 0.845833 0.954167
vt 0.845833 0.937500
vt 0.850000 0.954167
vt 0.888889 0.616667
vt 0.889584 0.633333
vt 0.888542 0.633333
vt 0.888542 0.637500
vt 0.888542 0.654167
vt 0.888542 0.658333
vt 0.888542 0.675000
vt 0.888542 0.679167
vt 0.888542 0.695833
vt 0.888542 0.700000
vt 0.885417 0.708333
vt 0.885417 0.583333
vt 0.895833 0.583333
vt 0.895833 0.708333
vt 0.892708 0.700000
vt 0.892708 0.695833
vt 0.892708 0.679167
vt 0.892708 0.675000
vt 0.892361 0.675000
vt 0.891667 0.658333
vt 0.892708 0.658333
vt 0.892708 0.654167
vt 0.892708 0.637500
vt 0.892708 0.633333
vt 0.892708 0.616667
vt 0.892708 0.612500
vt 0.892708 0.595833
vt 0.892708 0.591667
vt 0.888542 0.591667
vt 0.888542 0.595833
vt 0.888542 0.612500
vt 0.888542 0.616667
vt 0.862153 0.954167
vt 0.861458 0.937500
vt 0.865278 0.937500
vt 0.865278 0.954167
vt 0.970052 0.833333
vt 0.959636 0.833333
vt 0.959636 0.708333
vt 0.970052 0.708333
vt 0.833333 0.930208
vt 0.829167 0.930208
vt 0.829167 0.895833
vt 0.833333 0.895833
vt 0.883333 0.954167
vt 0.879167 0.954167
vt 0.879167 0.919792
vt 0.883333 0.919792
vt 0.829167 0.895833
vt 0.829167 0.930208
vt 0.825000 0.930208
vt 0.825000 0.895833
vt 0.941667 0.875000
vt 0.937500 0.909375
vt 0.937500 0.875000
vt 0.938542 0.875000
vt 0.950000 0.947917
vt 0.945834 0.947917
vt 0.945834 0.943750
vt 0.950000 0.943750
vt 0.954167 0.909375
vt 0.950000 0.875000
vt 0.954167 0.875000
vt 0.954167 0.909375
vt 0.954167 0.943750
vt 0.950000 0.943750
vt 0.950000 0.909375
vt 0.869444 0.952083
vt 0.865278 0.952083
vt 0.865278 0.947917
vt 0.869444 0.947917
vt 0.883334 0.919792
vt 0.883334 0.885417
vt 0.958334 0.909375
vt 0.954167 0.909375
vt 0.954167 0.875000
vt 0.957986 0.875000
vt 0.958334 0.875000
vt 0.795833 0.895833
vt 0.795833 0.930208
vt 0.791667 0.930208
vt 0.791667 0.895833
vt 0.958333 0.909375
vt 0.958333 0.943750
vt 0.954167 0.943750
vt 0.941667 0.947917
vt 0.937500 0.947917
vt 0.937500 0.943750
vt 0.941667 0.943750
vt 0.962500 0.909375
vt 0.958333 0.909375
vt 0.958333 0.875000
vt 0.962500 0.875000
vt 0.962500 0.943750
vt 0.959375 0.909375
vt 0.962500 0.909375
vt 0.804167 0.930208
vt 0.804167 0.964583
vt 0.800000 0.964583
vt 0.800000 0.930208
vt 0.937500 0.943750
vt 0.945833 0.947917
vt 0.945833 0.952083
vt 0.941667 0.952083
vt 0.941667 0.947917
vt 0.800000 0.930208
vt 0.800000 0.895833
vt 0.808333 0.964583
vt 0.804167 0.895833
vt 0.800000 0.895833
vt 0.945833 0.875000
vt 0.945833 0.909375
vt 0.941667 0.909375
vt 0.941667 0.875000
vt 0.945486 0.875000
vt 0.945833 0.947917
vt 0.941667 0.947917
vt 0.941667 0.943750
vt 0.945833 0.943750
vt 0.800000 0.964583
vt 0.795833 0.964583
vt 0.795833 0.964583
vt 0.791667 0.964583
vt 0.791667 0.930208
vt 0.795833 0.930208
vt 0.812500 0.964583
vt 0.816667 0.930208
vt 0.816667 0.964583
vt 0.812500 0.964583
vt 0.812500 0.930208
vt 0.941667 0.947917
vt 0.941667 0.952083
vt 0.937500 0.952083
vt 0.937500 0.947917
s 0
usemtl マテリアル
f 17/1/1 29/2/1 31/3/1 21/4/1
f 27/5/1 31/6/1 29/7/1 25/8/1 3/9/1 17/10/1 21/11/1 12/12/1
f 25/13/2 29/14/2 39/15/2 37/16/2
f 18/17/3 19/18/3 35/19/3 33/20/3
f 11/21/3 24/22/3 22/23/3 10/24/3
f 10/25/3 22/26/3 18/27/3 33/28/3 37/29/3 39/30/3 35/31/3 19/32/3 24/33/3 11/34/3 16/35/3 14/36/3
f 33/37/4 35/38/4 17/39/4 3/40/4
f 25/41/5 37/42/5 33/43/5 3/44/5
f 39/45/6 29/46/6 17/47/6 35/48/6
f 23/49/4 31/50/4 27/51/4 44/52/4 48/53/4
f 43/54/4 38/55/4 50/56/4 47/57/4 49/58/4
f 47/59/4 50/60/4 38/61/4 51/62/4 40/63/4 52/64/4 23/65/4 48/66/4 44/67/4 53/68/4 43/69/4 49/70/4
f 45/71/2 41/72/2 12/73/2 21/74/2 13/75/2
f 46/76/2 45/77/2 13/78/2 36/79/2 34/80/2 42/81/2
f 45/82/2 46/83/2 42/84/2 41/85/2
f 27/86/6 12/87/6 41/88/6 44/89/6
f 13/90/5 21/91/5 31/92/5 23/93/5
f 23/94/5 52/95/5 40/96/5 36/97/5 13/98/5
f 41/99/3 7/100/3 20/101/3 44/102/3
f 44/103/4 20/104/4 30/105/4 32/106/4 40/22/4 51/107/4 38/108/4 43/109/4 53/110/4
f 28/111/1 32/112/1 30/113/1 26/114/1
f 36/115/2 28/115/2 26/116/2 7/117/2 41/118/2 42/119/2 34/120/2
f 20/121/6 7/102/6 26/122/6 30/123/6
f 32/124/5 28/125/5 36/125/5 40/124/5
f 1/126/3 9/127/3 15/128/3 5/129/3
f 15/130/4 9/131/4 22/132/4 24/133/4
f 5/134/2 19/135/2 18/136/2 1/137/2
f 9/136/6 1/135/6 18/138/6 22/139/6
f 5/140/5 15/141/5 24/139/5 19/138/5
f 2/142/3 6/143/3 8/144/3 4/145/3
f 8/146/4 6/147/4 14/141/4 16/140/4
f 4/38/2 11/148/2 10/149/2 2/150/2
f 6/151/6 2/152/6 10/153/6 14/154/6
f 4/49/5 8/155/5 16/154/5 11/153/5
f 54/156/1 61/157/1 69/158/1 62/159/1
f 62/160/2 69/161/2 85/162/2 78/163/2
f 78/164/3 85/165/3 77/166/3 70/167/3
f 70/168/4 77/169/4 61/170/4 54/171/4
f 98/172/5 106/173/5 107/174/5 99/175/5
f 96/176/5 95/177/5 87/178/5 88/179/5
f 62/180/5 78/181/5 93/182/5 89/183/5
f 91/184/5 92/185/5 94/186/5 100/187/5
f 109/188/5 112/189/5 102/190/5 103/191/5
f 113/192/5 90/193/5 97/194/5 98/195/5 99/196/5 100/197/5 94/198/5 95/199/5 96/200/5 93/201/5 78/202/5 70/203/5 54/204/5 62/205/5 89/206/5 88/207/5 87/208/5 86/209/5 92/210/5 91/211/5 108/212/5 107/213/5 106/214/5 105/215/5 104/216/5 103/217/5 102/218/5 101/219/5 111/220/5 112/221/5 109/222/5 110/223/5
f 90/224/5 113/225/5 104/226/5 105/227/5
f 85/228/6 69/229/6 61/230/6 77/231/6
f 64/232/1 59/233/1 105/234/1 106/235/1
f 79/236/2 64/237/2 106/238/2 98/239/2
f 97/240/3 71/241/3 79/232/3 98/235/3
f 105/242/4 59/243/4 71/244/4 97/245/4 90/246/4
f 64/247/5 79/248/5 71/249/5 59/250/5
f 63/251/1 55/252/1 101/253/1 102/254/1
f 81/255/2 63/256/2 102/257/2 112/258/2
f 111/259/3 72/260/3 81/261/3 112/262/3
f 101/263/4 55/264/4 72/265/4 111/266/4
f 63/267/5 81/268/5 72/269/5 55/270/5
f 68/271/1 60/272/1 103/273/1 104/274/1
f 80/275/2 68/276/2 104/277/2 113/278/2 110/279/2
f 109/280/3 73/281/3 80/282/3 110/283/3
f 103/284/4 60/285/4 73/286/4 109/287/4
f 68/288/5 80/289/5 73/290/5 60/291/5
f 67/292/1 58/293/1 107/294/1 108/295/1
f 84/296/2 67/297/2 108/298/2 91/299/2 100/300/2
f 99/301/3 74/302/3 84/303/3 100/304/3
f 107/305/4 58/306/4 74/307/4 99/308/4
f 67/309/5 84/310/5 74/311/5 58/312/5
f 65/313/1 57/314/1 86/315/1 87/316/1
f 83/317/2 65/318/2 87/319/2 95/320/2
f 94/321/3 75/322/3 83/323/3 95/324/3
f 86/325/4 57/326/4 75/327/4 94/328/4 92/329/4
f 65/312/5 83/311/5 75/330/5 57/331/5
f 66/332/1 56/302/1 88/301/1 89/333/1
f 82/334/2 66/335/2 89/336/2 93/337/2
f 96/338/3 76/339/3 82/340/3 93/341/3
f 88/342/4 56/343/4 76/344/4 96/323/4
f 66/345/5 82/346/5 76/347/5 56/311/5
f 114/348/1 121/349/1 129/350/1 122/351/1
f 122/352/2 129/353/2 145/354/2 138/355/2
f 138/356/3 145/357/3 137/157/3 130/156/3
f 130/358/4 137/359/4 121/360/4 114/361/4
f 158/265/5 166/264/5 167/362/5 159/363/5
f 156/364/5 155/365/5 147/366/5 148/367/5
f 122/368/5 138/369/5 153/370/5 149/371/5
f 151/372/5 152/186/5 154/373/5 160/374/5
f 169/375/5 172/376/5 162/225/5 163/377/5
f 173/378/5 150/379/5 157/380/5 158/381/5 159/382/5 160/383/5 154/384/5 155/385/5 156/386/5 153/387/5 138/388/5 130/389/5 114/390/5 122/391/5 149/392/5 148/393/5 147/394/5 146/395/5 152/396/5 151/397/5 168/398/5 167/399/5 166/400/5 165/401/5 164/402/5 163/403/5 162/404/5 161/405/5 171/406/5 172/407/5 169/408/5 170/409/5
f 150/410/5 173/411/5 164/412/5 165/413/5
f 145/414/6 129/415/6 121/416/6 137/417/6
f 124/418/1 119/419/1 165/420/1 166/421/1
f 139/422/2 124/423/2 166/424/2 158/425/2
f 157/426/3 131/427/3 139/428/3 158/429/3
f 165/430/4 119/234/4 131/431/4 157/432/4 150/433/4
f 124/434/5 139/435/5 131/436/5 119/437/5
f 123/428/1 115/339/1 161/338/1 162/429/1
f 141/438/2 123/240/2 162/439/2 172/440/2
f 171/281/3 132/173/3 141/172/3 172/282/3
f 161/441/4 115/442/4 132/443/4 171/444/4
f 123/445/5 141/446/5 132/447/5 115/448/5
f 128/449/1 120/313/1 163/316/1 164/450/1
f 140/451/2 128/452/2 164/453/2 173/454/2 170/455/2
f 169/456/3 133/457/3 140/458/3 170/459/3
f 163/460/4 120/461/4 133/462/4 169/438/4
f 128/463/5 140/464/5 133/465/5 120/466/5
f 127/467/1 118/468/1 167/469/1 168/470/1
f 144/471/2 127/461/2 168/460/2 151/472/2 160/473/2
f 159/474/3 134/475/3 144/476/3 160/477/3
f 167/234/4 118/233/4 134/478/4 159/431/4
f 127/479/5 144/480/5 134/481/5 118/482/5
f 125/483/1 117/457/1 146/456/1 147/484/1
f 143/485/2 125/475/2 147/474/2 155/303/2
f 154/486/3 135/474/3 143/477/3 155/487/3
f 146/488/4 117/489/4 135/490/4 154/491/4 152/492/4
f 125/493/5 143/494/5 135/495/5 117/496/5
f 126/497/1 116/498/1 148/457/1 149/483/1
f 142/499/2 126/500/2 149/501/2 153/502/2
f 156/302/3 136/503/3 142/485/3 153/303/3
f 148/504/4 116/505/4 136/506/4 156/507/4
f 126/508/5 142/509/5 136/510/5 116/511/5
