# Blender 4.4.1
# www.blender.org
mtllib 2.mtl
o digit_2
v -1.500000 1.500000 -0.100000
v -0.500000 1.500000 -0.100000
v -0.500000 2.500000 -0.100000
v -1.500000 2.500000 -0.100000
v -1.500000 1.500000 0.100000
v -0.500000 1.500000 0.100000
v -0.500000 2.500000 0.100000
v -1.500000 2.500000 0.100000
v -0.500000 1.500000 -0.100000
v 0.500000 1.500000 -0.100000
v 0.500000 2.500000 -0.100000
v -0.500000 2.500000 -0.100000
v -0.500000 1.500000 0.100000
v 0.500000 1.500000 0.100000
v 0.500000 2.500000 0.100000
v -0.500000 2.500000 0.100000
v 0.500000 1.500000 -0.100000
v 1.500000 1.500000 -0.100000
v 1.500000 2.500000 -0.100000
v 0.500000 2.500000 -0.100000
v 0.500000 1.500000 0.100000
v 1.500000 1.500000 0.100000
v 1.500000 2.500000 0.100000
v 0.500000 2.500000 0.100000
v 0.500000 0.500000 -0.100000
v 1.500000 0.500000 -0.100000
v 1.500000 1.500000 -0.100000
v 0.500000 1.500000 -0.100000
v 0.500000 0.500000 0.100000
v 1.500000 0.500000 0.100000
v 1.500000 1.500000 0.100000
v 0.500000 1.500000 0.100000
v -1.500000 -0.500000 -0.100000
v -0.500000 -0.500000 -0.100000
v -0.500000 0.500000 -0.100000
v -1.500000 0.500000 -0.100000
v -1.500000 -0.500000 0.100000
v -0.500000 -0.500000 0.100000
v -0.500000 0.500000 0.100000
v -1.500000 0.500000 0.100000
v -0.500000 -0.500000 -0.100000
v 0.500000 -0.500000 -0.100000
v 0.500000 0.500000 -0.100000
v -0.500000 0.500000 -0.100000
v -0.500000 -0.500000 0.100000
v 0.500000 -0.500000 0.100000
v 0.500000 0.500000 0.100000
v -0.500000 0.500000 0.100000
v 0.500000 -0.500000 -0.100000
v 1.500000 -0.500000 -0.100000
v 1.500000 0.500000 -0.100000
v 0.500000 0.500000 -0.100000
v 0.500000 -0.500000 0.100000
v 1.500000 -0.500000 0.100000
v 1.500000 0.500000 0.100000
v 0.500000 0.500000 0.100000
v -1.500000 -1.500000 -0.100000
v -0.500000 -1.500000 -0.100000
v -0.500000 -0.500000 -0.100000
v -1.500000 -0.500000 -0.100000
v -1.500000 -1.500000 0.100000
v -0.500000 -1.500000 0.100000
v -0.500000 -0.500000 0.100000
v -1.500000 -0.500000 0.100000
v -1.500000 -2.500000 -0.100000
v -0.500000 -2.500000 -0.100000
v -0.500000 -1.500000 -0.100000
v -1.500000 -1.500000 -0.100000
v -1.500000 -2.500000 0.100000
v -0.500000 -2.500000 0.100000
v -0.500000 -1.500000 0.100000
v -1.500000 -1.500000 0.100000
v -0.500000 -2.500000 -0.100000
v 0.500000 -2.500000 -0.100000
v 0.500000 -1.500000 -0.100000
v -0.500000 -1.500000 -0.100000
v -0.500000 -2.500000 0.100000
v 0.500000 -2.500000 0.100000
v 0.500000 -1.500000 0.100000
v -0.500000 -1.500000 0.100000
v 0.500000 -2.500000 -0.100000
v 1.500000 -2.500000 -0.100000
v 1.500000 -1.500000 -0.100000
v 0.500000 -1.500000 -0.100000
v 0.500000 -2.500000 0.100000
v 1.500000 -2.500000 0.100000
v 1.500000 -1.500000 0.100000
v 0.500000 -1.500000 0.100000
vn -0.0000 -0.0000 1.0000
vn -0.0000 -0.0000 -1.0000
vn 1.0000 -0.0000 -0.0000
vn -1.0000 -0.0000 -0.0000
vn -0.0000 1.0000 -0.0000
vn -0.0000 -1.0000 -0.0000
s 0
usemtl マテリアル.002
f 1//1 2//1 3//1
f 1//1 3//1 4//1
f 5//2 7//2 6//2
f 5//2 8//2 7//2
f 1//3 4//3 8//3
f 1//3 8//3 5//3
f 2//4 6//4 7//4
f 2//4 7//4 3//4
f 1//5 5//5 6//5
f 1//5 6//5 2//5
f 4//6 3//6 7//6
f 4//6 7//6 8//6
f 9//1 10//1 11//1
f 9//1 11//1 12//1
f 13//2 15//2 14//2
f 13//2 16//2 15//2
f 9//3 12//3 16//3
f 9//3 16//3 13//3
f 10//4 14//4 15//4
f 10//4 15//4 11//4
f 9//5 13//5 14//5
f 9//5 14//5 10//5
f 12//6 11//6 15//6
f 12//6 15//6 16//6
f 17//1 18//1 19//1
f 17//1 19//1 20//1
f 21//2 23//2 22//2
f 21//2 24//2 23//2
f 17//3 20//3 24//3
f 17//3 24//3 21//3
f 18//4 22//4 23//4
f 18//4 23//4 19//4
f 17//5 21//5 22//5
f 17//5 22//5 18//5
f 20//6 19//6 23//6
f 20//6 23//6 24//6
f 25//1 26//1 27//1
f 25//1 27//1 28//1
f 29//2 31//2 30//2
f 29//2 32//2 31//2
f 25//3 28//3 32//3
f 25//3 32//3 29//3
f 26//4 30//4 31//4
f 26//4 31//4 27//4
f 25//5 29//5 30//5
f 25//5 30//5 26//5
f 28//6 27//6 31//6
f 28//6 31//6 32//6
f 33//1 34//1 35//1
f 33//1 35//1 36//1
f 37//2 39//2 38//2
f 37//2 40//2 39//2
f 33//3 36//3 40//3
f 33//3 40//3 37//3
f 34//4 38//4 39//4
f 34//4 39//4 35//4
f 33//5 37//5 38//5
f 33//5 38//5 34//5
f 36//6 35//6 39//6
f 36//6 39//6 40//6
f 41//1 42//1 43//1
f 41//1 43//1 44//1
f 45//2 47//2 46//2
f 45//2 48//2 47//2
f 41//3 44//3 48//3
f 41//3 48//3 45//3
f 42//4 46//4 47//4
f 42//4 47//4 43//4
f 41//5 45//5 46//5
f 41//5 46//5 42//5
f 44//6 43//6 47//6
f 44//6 47//6 48//6
f 49//1 50//1 51//1
f 49//1 51//1 52//1
f 53//2 55//2 54//2
f 53//2 56//2 55//2
f 49//3 52//3 56//3
f 49//3 56//3 53//3
f 50//4 54//4 55//4
f 50//4 55//4 51//4
f 49//5 53//5 54//5
f 49//5 54//5 50//5
f 52//6 51//6 55//6
f 52//6 55//6 56//6
f 57//1 58//1 59//1
f 57//1 59//1 60//1
f 61//2 63//2 62//2
f 61//2 64//2 63//2
f 57//3 60//3 64//3
f 57//3 64//3 61//3
f 58//4 62//4 63//4
f 58//4 63//4 59//4
f 57//5 61//5 62//5
f 57//5 62//5 58//5
f 60//6 59//6 63//6
f 60//6 63//6 64//6
f 65//1 66//1 67//1
f 65//1 67//1 68//1
f 69//2 71//2 70//2
f 69//2 72//2 71//2
f 65//3 68//3 72//3
f 65//3 72//3 69//3
f 66//4 70//4 71//4
f 66//4 71//4 67//4
f 65//5 69//5 70//5
f 65//5 70//5 66//5
f 68//6 67//6 71//6
f 68//6 71//6 72//6
f 73//1 74//1 75//1
f 73//1 75//1 76//1
f 77//2 79//2 78//2
f 77//2 80//2 79//2
f 73//3 76//3 80//3
f 73//3 80//3 77//3
f 74//4 78//4 79//4
f 74//4 79//4 75//4
f 73//5 77//5 78//5
f 73//5 78//5 74//5
f 76//6 75//6 79//6
f 76//6 79//6 80//6
f 81//1 82//1 83//1
f 81//1 83//1 84//1
f 85//2 87//2 86//2
f 85//2 88//2 87//2
f 81//3 84//3 88//3
f 81//3 88//3 85//3
f 82//4 86//4 87//4
f 82//4 87//4 83//4
f 81//5 85//5 86//5
f 81//5 86//5 82//5
f 84//6 83//6 87//6
f 84//6 87//6 88//6
