# Blender 4.4.1
# www.blender.org
mtllib colon.mtl
o digit_colon
v -0.500000 0.500000 -0.100000
v 0.500000 0.500000 -0.100000
v 0.500000 1.500000 -0.100000
v -0.500000 1.500000 -0.100000
v -0.500000 0.500000 0.100000
v 0.500000 0.500000 0.100000
v 0.500000 1.500000 0.100000
v -0.500000 1.500000 0.100000
v -0.500000 -1.500000 -0.100000
v 0.500000 -1.500000 -0.100000
v 0.500000 -0.500000 -0.100000
v -0.500000 -0.500000 -0.100000
v -0.500000 -1.500000 0.100000
v 0.500000 -1.500000 0.100000
v 0.500000 -0.500000 0.100000
v -0.500000 -0.500000 0.100000
vn -0.0000 -0.0000 1.0000
vn -0.0000 -0.0000 -1.0000
vn 1.0000 -0.0000 -0.0000
vn -1.0000 -0.0000 -0.0000
vn -0.0000 1.0000 -0.0000
vn -0.0000 -1.0000 -0.0000
s 0
usemtl マテリアル.010
f 1//1 2//1 3//1
f 1//1 3//1 4//1
f 5//2 7//2 6//2
f 5//2 8//2 7//2
f 1//3 4//3 8//3
f 1//3 8//3 5//3
f 2//4 6//4 7//4
f 2//4 7//4 3//4
f 1//5 5//5 6//5
f 1//5 6//5 2//5
f 4//6 3//6 7//6
f 4//6 7//6 8//6
f 9//1 10//1 11//1
f 9//1 11//1 12//1
f 13//2 15//2 14//2
f 13//2 16//2 15//2
f 9//3 12//3 16//3
f 9//3 16//3 13//3
f 10//4 14//4 15//4
f 10//4 15//4 11//4
f 9//5 13//5 14//5
f 9//5 14//5 10//5
f 12//6 11//6 15//6
f 12//6 15//6 16//6
